<svg width="54" height="54" viewBox="0 0 54 54" fill="none" xmlns="http://www.w3.org/2000/svg">
<path d="M24.1059 4.98842L3.97927 13.3172C2.86004 13.7804 2.87163 15.3706 3.99789 15.817L24.2084 23.8323C25.9841 24.5366 27.9617 24.5366 29.7374 23.8323L49.9484 15.8167C51.0742 15.3706 51.0863 13.7807 49.9667 13.3174L29.8406 4.98811C28.0044 4.22825 25.9418 4.22825 24.1056 4.98811" fill="#FCB400"/>
<path d="M28.7656 28.2084V48.2322C28.7656 49.1842 29.7259 49.8365 30.6111 49.4856L53.1319 40.7435C53.3829 40.644 53.5983 40.4712 53.7501 40.2477C53.902 40.0242 53.9831 39.7601 53.9831 39.4898V19.4665C53.9831 18.5141 53.0229 17.862 52.1376 18.2129L29.6169 26.9551C29.3658 27.0548 29.1504 27.2276 28.9986 27.4511C28.8468 27.6746 28.7656 27.9382 28.7656 28.2084Z" fill="#18BFFF"/>
<path d="M23.5069 29.2412L16.8232 32.4686L16.1446 32.7966L2.03585 39.5573C1.14181 39.989 0 39.3371 0 38.3435V19.55C0 19.1905 0.184301 18.8801 0.43146 18.6467C0.532856 18.5457 0.647889 18.4595 0.773208 18.3904C1.11008 18.188 1.59097 18.134 1.99985 18.2957L23.3946 26.7737C24.4821 27.2052 24.5675 28.7288 23.5069 29.2412Z" fill="#F82B60"/>
<path d="M23.5071 29.2412L16.8234 32.4686L0.431641 18.6464C0.533056 18.5455 0.648086 18.4594 0.773389 18.3904C1.11026 18.188 1.59115 18.134 2.00003 18.2957L23.3948 26.7737C24.4823 27.2052 24.5677 28.7288 23.5071 29.2412Z" fill="black" fill-opacity="0.25"/>
</svg>
