<svg width="241" height="36" viewBox="0 0 241 36" fill="none" xmlns="http://www.w3.org/2000/svg">
<mask id="mask0_1_295" style="mask-type:luminance" maskUnits="userSpaceOnUse" x="35" y="0" width="37" height="36">
<path d="M71.6152 0H35.6152V36H71.6152V0Z" fill="white"/>
</mask>
<g mask="url(#mask0_1_295)">
<path d="M53.6152 36C63.5563 36 71.6152 27.9411 71.6152 18C71.6152 8.05886 63.5563 0 53.6152 0C43.6741 0 35.6152 8.05886 35.6152 18C35.6152 27.9411 43.6741 36 53.6152 36Z" fill="#A0AEC0"/>
<path fill-rule="evenodd" clip-rule="evenodd" d="M60.5034 15.9304C60.4701 15.7709 60.3838 15.6447 60.2442 15.5516C60.1047 15.4587 59.9552 15.4286 59.7957 15.4619C59.6362 15.4952 59.5098 15.5815 59.4169 15.7211L58.3703 17.276L57.3337 15.7709C57.3004 15.7045 57.254 15.6347 57.1941 15.5615C57.1742 15.5416 57.1577 15.5217 57.1443 15.5018C56.9449 15.3158 56.7057 15.2227 56.4266 15.2227C56.1208 15.2227 55.8784 15.3289 55.699 15.5416C55.6233 15.6134 55.57 15.68 55.5395 15.741L55.5595 15.7211L54.4829 17.2859L53.4264 15.7211L53.4463 15.741C53.4065 15.6878 53.36 15.6279 53.3068 15.5615C53.2934 15.5482 53.2834 15.5351 53.2769 15.5217C53.0775 15.3223 52.8349 15.2227 52.5492 15.2227C52.2833 15.2227 52.0509 15.3158 51.8515 15.5018C51.8316 15.5217 51.8116 15.5416 51.7917 15.5615C51.7385 15.6279 51.6954 15.6878 51.6621 15.741L51.6821 15.7211L50.6155 17.2859L49.5589 15.7211L49.5789 15.741C49.539 15.6878 49.4924 15.6279 49.4393 15.5615C49.4194 15.5416 49.4029 15.5217 49.3895 15.5018C49.1836 15.3158 48.9475 15.2227 48.6818 15.2227C48.4158 15.2227 48.1834 15.3158 47.9841 15.5018C47.9775 15.5085 47.9707 15.5151 47.9641 15.5217C47.8909 15.5881 47.8345 15.6547 47.7947 15.7211L46.9076 17.0368C46.8145 17.1763 46.7845 17.3258 46.8178 17.4853C46.8509 17.6448 46.9374 17.7712 47.077 17.8641C47.2165 17.957 47.3661 17.9871 47.5255 17.9538C47.685 17.9207 47.8112 17.8376 47.9043 17.7046L48.6818 16.5483L49.7085 18.0634C49.7415 18.1432 49.8047 18.2295 49.8978 18.3226C50.0838 18.5154 50.3231 18.6117 50.6155 18.6117C50.9012 18.6117 51.1438 18.5154 51.3432 18.3226C51.3497 18.3027 51.3597 18.2893 51.373 18.2827C51.4263 18.2098 51.4727 18.1466 51.5126 18.0933L52.5492 16.5583L53.6158 18.1232C53.6455 18.1699 53.682 18.2229 53.7254 18.2827C53.7453 18.2961 53.7653 18.3126 53.7852 18.3326C53.9846 18.5187 54.2172 18.6117 54.4829 18.6117C54.7621 18.6117 55.0013 18.5187 55.2006 18.3326C55.214 18.3126 55.2305 18.2961 55.2505 18.2827C55.3103 18.203 55.3567 18.1298 55.39 18.0634L56.4266 16.5583L57.4633 18.0634C57.4966 18.1298 57.543 18.203 57.6028 18.2827C57.6228 18.2961 57.6427 18.3126 57.6626 18.3326C57.8554 18.5187 58.0912 18.6117 58.3703 18.6117C58.656 18.6117 58.8986 18.5154 59.098 18.3226C59.1045 18.3027 59.1145 18.2893 59.1279 18.2827C59.1743 18.2229 59.2142 18.1699 59.2475 18.1232L60.4137 16.3889C60.5066 16.2427 60.5367 16.0899 60.5034 15.9304Z" fill="#171923"/>
<path fill-rule="evenodd" clip-rule="evenodd" d="M55.6605 6.89062C57.8072 6.89062 59.641 7.65475 61.1627 9.18318C62.6843 10.6983 63.4452 12.5289 63.4452 14.6754V18.7621C63.4452 20.9085 62.6843 22.7423 61.1627 24.2642C59.641 25.7861 57.807 26.5468 55.6605 26.5468H51.5738C49.4274 26.5468 47.5967 25.7861 46.0816 24.2642C44.5532 22.7423 43.7891 20.9085 43.7891 18.7621V14.6754C43.7891 12.5289 44.5532 10.6983 46.0816 9.18318C47.5967 7.65475 49.4274 6.89062 51.5738 6.89062H55.6605ZM55.6605 24.952C57.3684 24.952 58.8268 24.3474 60.0363 23.1379C61.2458 21.9284 61.8504 20.4699 61.8504 18.7621V14.6754C61.8504 12.9677 61.2458 11.5122 60.0363 10.3095C58.8268 9.09349 57.3682 8.48546 55.6605 8.48546H51.5738C49.866 8.48546 48.4107 9.09349 47.208 10.3095C45.9919 11.5122 45.3839 12.9677 45.3839 14.6754V18.7621C45.3839 20.4699 45.9919 21.9284 47.208 23.1379C48.4107 24.3474 49.866 24.952 51.5738 24.952H55.6605Z" fill="#171923"/>
<path fill-rule="evenodd" clip-rule="evenodd" d="M57.5114 27.7314C57.352 27.5719 57.1626 27.4922 56.9433 27.4922H50.3248C50.1055 27.4922 49.9195 27.5719 49.7666 27.7314C49.6071 27.8841 49.5273 28.0703 49.5273 28.2896C49.5273 28.5089 49.6071 28.6983 49.7666 28.8577C49.9195 29.0107 50.1055 29.087 50.3248 29.087H56.9433C57.1626 29.087 57.352 29.0107 57.5114 28.8577C57.6641 28.6983 57.7407 28.5089 57.7407 28.2896C57.7407 28.0703 57.6641 27.8841 57.5114 27.7314Z" fill="#171923"/>
</g>
<path d="M82.1371 26.7693H78.5879L83.9956 11.105H88.2636L93.6636 26.7693H90.1144L86.1907 14.6845H86.0685L82.1371 26.7693ZM81.9153 20.6122H90.298V23.1974H81.9153V20.6122ZM96.3328 26.7693L93.1356 15.0211H96.4322L98.2525 22.9144H98.3596L100.257 15.0211H103.492L105.419 22.8685H105.519L107.309 15.0211H110.597L107.408 26.7693H103.958L101.939 19.3808H101.794L99.7747 26.7693H96.3328ZM114.653 26.7693L111.456 15.0211H114.753L116.573 22.9144H116.68L118.577 15.0211H121.812L123.74 22.8685H123.839L125.629 15.0211H128.918L125.728 26.7693H122.279L120.26 19.3808H120.114L118.095 26.7693H114.653ZM132.973 26.7693L129.776 15.0211H133.073L134.893 22.9144H135L136.897 15.0211H140.133L142.06 22.8685H142.159L143.949 15.0211H147.238L144.049 26.7693H140.599L138.58 19.3808H138.435L136.415 26.7693H132.973ZM158.751 18.3712L155.768 18.5547C155.717 18.2998 155.608 18.0703 155.439 17.8663C155.271 17.6573 155.049 17.4916 154.774 17.3692C154.504 17.2417 154.18 17.178 153.802 17.178C153.298 17.178 152.872 17.285 152.525 17.4992C152.178 17.7083 152.005 17.9887 152.005 18.3405C152.005 18.621 152.117 18.8581 152.342 19.0519C152.566 19.2457 152.951 19.4012 153.497 19.5185L155.623 19.9468C156.765 20.1813 157.617 20.5586 158.177 21.0788C158.738 21.5989 159.019 22.2822 159.019 23.1286C159.019 23.8986 158.792 24.5742 158.338 25.1555C157.889 25.7368 157.273 26.1906 156.487 26.5169C155.707 26.8382 154.807 26.9988 153.787 26.9988C152.232 26.9988 150.993 26.675 150.07 26.0274C149.152 25.3747 148.614 24.4875 148.456 23.3657L151.661 23.1974C151.758 23.6716 151.992 24.0337 152.365 24.2835C152.737 24.5283 153.213 24.6506 153.795 24.6506C154.366 24.6506 154.825 24.541 155.172 24.3218C155.523 24.0974 155.702 23.8093 155.707 23.4575C155.702 23.1617 155.577 22.9195 155.332 22.7309C155.088 22.5371 154.71 22.3892 154.2 22.2872L152.166 21.8819C151.018 21.6524 150.164 21.2547 149.603 20.6887C149.048 20.1227 148.77 19.4012 148.77 18.5241C148.77 17.7695 148.974 17.1193 149.381 16.5737C149.795 16.0281 150.373 15.6075 151.118 15.3117C151.867 15.016 152.745 14.8681 153.749 14.8681C155.233 14.8681 156.401 15.1817 157.252 15.8089C158.109 16.4361 158.608 17.2902 158.751 18.3712ZM166.379 26.9988C165.191 26.9988 164.163 26.7464 163.296 26.2416C162.435 25.7317 161.769 25.0229 161.3 24.1153C160.831 23.2025 160.596 22.1445 160.596 20.9411C160.596 19.7275 160.831 18.6669 161.3 17.7593C161.769 16.8465 162.435 16.1378 163.296 15.6329C164.163 15.123 165.191 14.8681 166.379 14.8681C167.567 14.8681 168.592 15.123 169.453 15.6329C170.32 16.1378 170.988 16.8465 171.457 17.7593C171.926 18.6669 172.161 19.7275 172.161 20.9411C172.161 22.1445 171.926 23.2025 171.457 24.1153C170.988 25.0229 170.32 25.7317 169.453 26.2416C168.592 26.7464 167.567 26.9988 166.379 26.9988ZM166.394 24.4747C166.934 24.4747 167.386 24.3218 167.748 24.0158C168.11 23.7048 168.383 23.2816 168.566 22.7461C168.755 22.2108 168.849 21.6014 168.849 20.9182C168.849 20.2349 168.755 19.6255 168.566 19.0901C168.383 18.5547 168.11 18.1315 167.748 17.8205C167.386 17.5094 166.934 17.3539 166.394 17.3539C165.849 17.3539 165.389 17.5094 165.017 17.8205C164.65 18.1315 164.372 18.5547 164.184 19.0901C164 19.6255 163.908 20.2349 163.908 20.9182C163.908 21.6014 164 22.2108 164.184 22.7461C164.372 23.2816 164.65 23.7048 165.017 24.0158C165.389 24.3218 165.849 24.4747 166.394 24.4747ZM174.28 26.7693V15.0211H177.385V17.0938H177.523C177.768 16.4055 178.175 15.8624 178.746 15.4647C179.317 15.0669 180.001 14.8681 180.796 14.8681C181.602 14.8681 182.288 15.0695 182.854 15.4723C183.42 15.8701 183.797 16.4105 183.986 17.0938H184.108C184.348 16.4208 184.781 15.8828 185.409 15.48C186.041 15.0721 186.788 14.8681 187.649 14.8681C188.746 14.8681 189.636 15.2174 190.319 15.916C191.007 16.6094 191.351 17.5935 191.351 18.8683V26.7693H188.101V19.5108C188.101 18.8581 187.927 18.3686 187.581 18.0423C187.234 17.7159 186.801 17.5528 186.28 17.5528C185.689 17.5528 185.227 17.7414 184.896 18.1188C184.565 18.491 184.399 18.983 184.399 19.5949V26.7693H181.24V19.442C181.24 18.8657 181.074 18.4069 180.743 18.0652C180.417 17.7236 179.985 17.5528 179.45 17.5528C179.088 17.5528 178.762 17.6446 178.471 17.8281C178.185 18.0066 177.959 18.259 177.79 18.5853C177.622 18.9065 177.538 19.2839 177.538 19.7173V26.7693H174.28ZM199.279 26.9988C198.071 26.9988 197.03 26.754 196.159 26.2645C195.292 25.7699 194.624 25.0713 194.155 24.1688C193.685 23.2612 193.451 22.1878 193.451 20.9487C193.451 19.7402 193.685 18.6797 194.155 17.7669C194.624 16.8542 195.284 16.1429 196.136 15.6329C196.992 15.123 197.997 14.8681 199.149 14.8681C199.924 14.8681 200.646 14.993 201.314 15.2429C201.987 15.4876 202.573 15.8573 203.073 16.3519C203.578 16.8465 203.97 17.4686 204.251 18.2182C204.531 18.9626 204.671 19.8346 204.671 20.834V21.7289H194.751V19.7097H201.604C201.604 19.2405 201.502 18.825 201.298 18.4629C201.094 18.1009 200.811 17.8179 200.449 17.6139C200.093 17.4049 199.677 17.3004 199.203 17.3004C198.708 17.3004 198.269 17.4151 197.887 17.6446C197.51 17.8689 197.214 18.1723 197 18.5547C196.786 18.9321 196.676 19.3527 196.671 19.8167V21.7366C196.671 22.3178 196.778 22.8201 196.992 23.2433C197.212 23.6665 197.52 23.9929 197.918 24.2223C198.315 24.4518 198.787 24.5665 199.333 24.5665C199.695 24.5665 200.026 24.5155 200.327 24.4136C200.628 24.3116 200.885 24.1586 201.1 23.9546C201.314 23.7507 201.477 23.5008 201.589 23.2051L204.603 23.4039C204.45 24.128 204.136 24.7603 203.662 25.3008C203.193 25.8362 202.586 26.2543 201.841 26.5552C201.102 26.8509 200.248 26.9988 199.279 26.9988Z" fill="#A0AEC0"/>
</svg>
