<svg width="241" height="40" viewBox="0 0 241 40" fill="none" xmlns="http://www.w3.org/2000/svg">
<path d="M85.8657 27.4001C78.3017 27.4001 72.1543 21.2578 72.1543 13.7C72.1543 6.14233 78.3017 0 85.8657 0C93.4297 0 99.5772 6.14233 99.5772 13.7C99.5772 21.2578 93.4297 27.4001 85.8657 27.4001ZM85.8657 3.29816C80.1326 3.29816 75.4686 7.95832 75.4686 13.6867C75.4686 19.4151 80.1326 24.0752 85.8657 24.0752C91.5989 24.0752 96.2629 19.4151 96.2629 13.6867C96.2629 7.95832 91.6122 3.29816 85.8657 3.29816Z" fill="#A0AEC0"/>
<path d="M67.357 39.7248C66.0607 38.4295 66.0607 36.333 67.357 35.038L84.7034 17.7192C85.9997 19.0145 85.9997 21.1109 84.7034 22.4061L67.357 39.7248Z" fill="#A0AEC0"/>
<path d="M67.357 27.3998C66.0607 26.1045 66.0607 24.0081 67.357 22.7129L78.6897 11.3896C79.986 12.6849 79.986 14.7813 78.6897 16.0765L67.357 27.3998Z" fill="#A0AEC0"/>
<path d="M80.6402 39.7246C79.3439 38.4296 79.3439 36.3332 80.6402 35.0378L85.5982 30.084C86.8945 31.3792 86.8945 33.4756 85.5982 34.7708L80.6402 39.7246Z" fill="#A0AEC0"/>
<path d="M114.291 11.9775C114.906 11.0962 115.2 10.0814 115.2 8.95978C115.2 7.93161 114.946 6.98354 114.438 6.12894C113.93 5.27438 113.249 4.59339 112.393 4.09934C111.538 3.60525 110.602 3.35156 109.587 3.35156H104.375C104.121 3.35156 103.947 3.37827 103.88 3.44505C103.8 3.51178 103.773 3.65869 103.773 3.89903V22.1124C103.773 22.4595 104.014 22.6331 104.495 22.6331L111.672 22.6064C112.701 22.6064 113.663 22.3527 114.531 21.8453C115.4 21.3379 116.082 20.6569 116.576 19.8023C117.071 18.9477 117.325 18.013 117.325 16.9982C117.325 15.97 117.057 15.0086 116.523 14.114C115.975 13.2327 115.226 12.5116 114.291 11.9775ZM106.981 7.30402C106.981 6.80997 107.181 6.55626 107.569 6.55626H109.587C110.228 6.55626 110.79 6.7966 111.271 7.26395C111.752 7.7313 111.992 8.30549 111.992 8.95978C111.992 9.60071 111.765 10.1615 111.298 10.6289C110.83 11.0962 110.282 11.3366 109.64 11.3366H107.676C107.208 11.3366 106.981 11.1096 106.981 10.6422V7.30402ZM113.075 18.7074C112.607 19.1747 112.046 19.4017 111.351 19.4017L107.662 19.4284C107.195 19.4284 106.967 19.2014 106.967 18.7341V15.2757C106.967 14.8083 107.195 14.5813 107.662 14.5813H111.351C112.032 14.5813 112.607 14.8083 113.075 15.2757C113.543 15.743 113.77 16.3039 113.77 16.9982C113.77 17.6792 113.529 18.24 113.075 18.7074Z" fill="#A0AEC0"/>
<path d="M139.669 11.1498C139.656 11.0429 139.616 10.9495 139.575 10.8694C139.549 10.7625 139.535 10.6557 139.509 10.5489C139.068 8.81302 138.226 7.30413 136.983 6.02225C136.769 5.79527 136.529 5.71514 136.235 5.78191C136.114 5.80861 135.981 5.88874 135.86 6.02225C135.767 6.11572 135.553 6.36943 135.219 6.75668C134.885 7.14389 134.644 7.41097 134.524 7.53114C134.35 7.75815 134.297 7.99849 134.364 8.2255C134.404 8.39907 134.497 8.57268 134.631 8.73288C135.299 9.49401 135.767 10.3886 136.021 11.4035C136.208 12.1245 136.261 12.8456 136.195 13.6067C136.168 13.8604 136.128 14.1274 136.074 14.3812C136.021 14.6215 135.941 14.8619 135.86 15.1022C135.607 15.7966 135.246 16.4375 134.778 17.025C134.297 17.6126 133.735 18.0933 133.067 18.4805C132.265 18.9746 131.397 19.2683 130.461 19.3351C129.9 19.3885 129.352 19.3618 128.804 19.255C128.243 19.1481 127.695 18.9746 127.134 18.7208C126.292 18.3069 125.57 17.7327 124.982 16.9983C124.394 16.2639 123.993 15.4494 123.766 14.5548C123.673 14.1942 123.619 13.8337 123.579 13.4732C123.526 12.5652 123.632 11.6972 123.94 10.856C124.461 9.41391 125.396 8.29227 126.746 7.47774C127.454 7.02372 128.243 6.74331 129.085 6.62314C129.927 6.50297 130.755 6.55637 131.571 6.75668C131.945 6.85015 132.199 6.72997 132.319 6.4095L133.134 4.13951C133.174 3.97927 133.161 3.8324 133.107 3.6855C133.054 3.55199 132.947 3.45852 132.813 3.4051L132.76 3.39175C131.464 3.00451 130.141 2.88434 128.791 3.04457C128.189 3.11134 127.601 3.24487 127.013 3.43182C127 3.43182 126.973 3.43182 126.96 3.44515L126.906 3.45852C125.624 3.8591 124.461 4.50003 123.419 5.38133C122.389 6.26262 121.561 7.3442 120.959 8.63941C120.452 9.70765 120.144 10.816 120.051 11.9643C119.984 12.7254 120.011 13.4732 120.104 14.2076C120.251 15.5696 120.665 16.8514 121.36 18.0532C121.908 19.0547 122.617 19.9226 123.512 20.6704C124.408 21.4048 125.396 21.9789 126.492 22.3662C126.679 22.4329 126.88 22.4997 127.067 22.5531C127.655 22.7401 128.269 22.8736 128.898 22.927C130.047 23.0472 131.196 22.9537 132.319 22.6733C133.749 22.3128 135.045 21.6585 136.208 20.7371C137.37 19.8024 138.252 18.6674 138.84 17.3188C139.348 16.2506 139.656 15.1423 139.763 13.9806C139.763 13.9138 139.776 13.8604 139.776 13.7936C139.856 12.9257 139.829 12.0444 139.669 11.1498Z" fill="#A0AEC0"/>
<path d="M154.824 19.0145H148.116C147.969 19.0145 147.835 18.9611 147.728 18.8409C147.621 18.7208 147.568 18.5872 147.568 18.4403V3.84564C147.568 3.69877 147.514 3.56523 147.407 3.44506C147.3 3.3249 147.153 3.27148 146.993 3.27148H144.133C143.986 3.27148 143.853 3.33825 143.732 3.44506C143.612 3.56523 143.559 3.69877 143.559 3.84564V22.0857C143.559 22.2459 143.612 22.3928 143.732 22.4996C143.853 22.6065 143.986 22.6599 144.133 22.6599H154.824C154.985 22.6599 155.132 22.6065 155.239 22.4996C155.346 22.3928 155.399 22.2459 155.399 22.0857V19.562C155.399 19.4151 155.346 19.2816 155.239 19.1748C155.132 19.0679 154.985 19.0145 154.824 19.0145Z" fill="#A0AEC0"/>
<path d="M160.449 6.68996H173.306C173.453 6.68996 173.573 6.63656 173.68 6.52972C173.787 6.42291 173.827 6.30274 173.827 6.16921V3.79238C173.827 3.65888 173.773 3.55204 173.68 3.44521C173.573 3.3384 173.453 3.29834 173.306 3.29834H160.449C160.316 3.29834 160.209 3.3384 160.102 3.43187C159.995 3.52534 159.955 3.64551 159.955 3.79238V6.16921C159.955 6.31608 160.008 6.43628 160.102 6.54309C160.195 6.64992 160.316 6.68996 160.449 6.68996Z" fill="#A0AEC0"/>
<path d="M173.707 19.4286C173.613 19.3352 173.493 19.2951 173.346 19.2951H163.818C163.684 19.2951 163.564 19.2417 163.457 19.1349C163.35 19.0281 163.296 18.9079 163.296 18.7743V15.7566C163.296 15.3694 163.51 15.1691 163.938 15.1691H171.007C171.141 15.1691 171.248 15.129 171.341 15.0489C171.435 14.9688 171.475 14.862 171.475 14.7284V12.3516C171.475 12.2181 171.435 12.1113 171.341 12.0312C171.248 11.951 171.141 11.911 171.007 11.911H164.031C163.55 11.911 163.31 11.7374 163.31 11.3902V9.37393C163.31 9.22706 163.27 9.10689 163.176 9.01342C163.083 8.91995 162.962 8.87988 162.815 8.87988H160.463C160.329 8.87988 160.223 8.91995 160.116 9.01342C160.009 9.10689 159.969 9.22706 159.969 9.37393V22.166C159.969 22.2995 160.022 22.4063 160.116 22.5131C160.223 22.62 160.329 22.6601 160.463 22.6601H173.373C173.52 22.6601 173.64 22.6066 173.734 22.5131C173.827 22.4063 173.867 22.2995 173.867 22.166V19.7892C173.854 19.6423 173.801 19.5221 173.707 19.4286Z" fill="#A0AEC0"/>
<path d="M139.883 36.0526H173.64C173.774 36.0526 173.881 35.9459 173.881 35.8123V34.1032C173.881 33.9696 173.774 33.8628 173.64 33.8628H141.179C140.458 33.8628 139.883 34.4369 139.883 35.1579V36.0526Z" fill="#A0AEC0"/>
</svg>
