<svg width="26" height="26" viewBox="0 0 26 26" fill="none" xmlns="http://www.w3.org/2000/svg">
<path d="M21.1426 4.38623C21.1419 3.76483 20.8948 3.16906 20.4554 2.72966C20.016 2.29026 19.4202 2.04313 18.7988 2.04248H7.86133C7.23993 2.04313 6.64416 2.29026 6.20476 2.72966C5.76536 3.16906 5.51822 3.76483 5.51758 4.38623V21.5737C5.51822 22.1951 5.76536 22.7909 6.20476 23.2303C6.64416 23.6697 7.23993 23.9168 7.86133 23.9175H18.7988C19.4202 23.9168 20.016 23.6697 20.4554 23.2303C20.8948 22.7909 21.1419 22.1951 21.1426 21.5737V4.38623ZM9.0332 21.5737C8.80143 21.5737 8.57486 21.505 8.38214 21.3762C8.18943 21.2475 8.03923 21.0644 7.95053 20.8503C7.86184 20.6362 7.83863 20.4006 7.88385 20.1732C7.92906 19.9459 8.04067 19.7371 8.20456 19.5732C8.36845 19.4093 8.57726 19.2977 8.80458 19.2525C9.0319 19.2073 9.26753 19.2305 9.48166 19.3192C9.69579 19.4079 9.87881 19.5581 10.0076 19.7508C10.1363 19.9435 10.2051 20.1701 10.2051 20.4019C10.2051 20.7127 10.0816 21.0107 9.86184 21.2305C9.64208 21.4503 9.344 21.5737 9.0332 21.5737ZM9.0332 17.6675C8.80143 17.6675 8.57486 17.5988 8.38214 17.47C8.18943 17.3412 8.03923 17.1582 7.95053 16.9441C7.86184 16.7299 7.83863 16.4943 7.88385 16.267C7.92906 16.0397 8.04067 15.8309 8.20456 15.667C8.36845 15.5031 8.57726 15.3915 8.80458 15.3462C9.0319 15.301 9.26753 15.3242 9.48166 15.4129C9.69579 15.5016 9.87881 15.6518 10.0076 15.8445C10.1363 16.0373 10.2051 16.2638 10.2051 16.4956C10.2051 16.8064 10.0816 17.1045 9.86184 17.3242C9.64208 17.544 9.344 17.6675 9.0332 17.6675ZM9.0332 13.7612C8.80143 13.7612 8.57486 13.6925 8.38214 13.5637C8.18943 13.435 8.03923 13.2519 7.95053 13.0378C7.86184 12.8237 7.83863 12.5881 7.88385 12.3607C7.92906 12.1334 8.04067 11.9246 8.20456 11.7607C8.36845 11.5968 8.57726 11.4852 8.80458 11.44C9.0319 11.3948 9.26753 11.418 9.48166 11.5067C9.69579 11.5954 9.87881 11.7456 10.0076 11.9383C10.1363 12.131 10.2051 12.3576 10.2051 12.5894C10.2051 12.9002 10.0816 13.1982 9.86184 13.418C9.64208 13.6378 9.344 13.7612 9.0332 13.7612ZM13.3301 21.5737C13.0983 21.5737 12.8717 21.505 12.679 21.3762C12.4863 21.2475 12.3361 21.0644 12.2474 20.8503C12.1587 20.6362 12.1355 20.4006 12.1807 20.1732C12.2259 19.9459 12.3375 19.7371 12.5014 19.5732C12.6653 19.4093 12.8741 19.2977 13.1015 19.2525C13.3288 19.2073 13.5644 19.2305 13.7785 19.3192C13.9927 19.4079 14.1757 19.5581 14.3045 19.7508C14.4332 19.9435 14.502 20.1701 14.502 20.4019C14.502 20.7127 14.3785 21.0107 14.1587 21.2305C13.9389 21.4503 13.6409 21.5737 13.3301 21.5737ZM13.3301 17.6675C13.0983 17.6675 12.8717 17.5988 12.679 17.47C12.4863 17.3412 12.3361 17.1582 12.2474 16.9441C12.1587 16.7299 12.1355 16.4943 12.1807 16.267C12.2259 16.0397 12.3375 15.8309 12.5014 15.667C12.6653 15.5031 12.8741 15.3915 13.1015 15.3462C13.3288 15.301 13.5644 15.3242 13.7785 15.4129C13.9927 15.5016 14.1757 15.6518 14.3045 15.8445C14.4332 16.0373 14.502 16.2638 14.502 16.4956C14.502 16.8064 14.3785 17.1045 14.1587 17.3242C13.9389 17.544 13.6409 17.6675 13.3301 17.6675ZM13.3301 13.7612C13.0983 13.7612 12.8717 13.6925 12.679 13.5637C12.4863 13.435 12.3361 13.2519 12.2474 13.0378C12.1587 12.8237 12.1355 12.5881 12.1807 12.3607C12.2259 12.1334 12.3375 11.9246 12.5014 11.7607C12.6653 11.5968 12.8741 11.4852 13.1015 11.44C13.3288 11.3948 13.5644 11.418 13.7785 11.5067C13.9927 11.5954 14.1757 11.7456 14.3045 11.9383C14.4332 12.131 14.502 12.3576 14.502 12.5894C14.502 12.9002 14.3785 13.1982 14.1587 13.418C13.9389 13.6378 13.6409 13.7612 13.3301 13.7612ZM18.7988 20.4019C18.7988 20.7127 18.6754 21.0107 18.4556 21.2305C18.2358 21.4503 17.9378 21.5737 17.627 21.5737C17.3162 21.5737 17.0181 21.4503 16.7983 21.2305C16.5785 21.0107 16.4551 20.7127 16.4551 20.4019V16.4956C16.4551 16.1848 16.5785 15.8867 16.7983 15.667C17.0181 15.4472 17.3162 15.3237 17.627 15.3237C17.9378 15.3237 18.2358 15.4472 18.4556 15.667C18.6754 15.8867 18.7988 16.1848 18.7988 16.4956V20.4019ZM17.627 13.7612C17.3952 13.7612 17.1686 13.6925 16.9759 13.5637C16.7832 13.435 16.633 13.2519 16.5443 13.0378C16.4556 12.8237 16.4324 12.5881 16.4776 12.3607C16.5228 12.1334 16.6344 11.9246 16.7983 11.7607C16.9622 11.5968 17.171 11.4852 17.3983 11.44C17.6257 11.3948 17.8613 11.418 18.0754 11.5067C18.2895 11.5954 18.4726 11.7456 18.6013 11.9383C18.7301 12.131 18.7988 12.3576 18.7988 12.5894C18.7988 12.9002 18.6754 13.1982 18.4556 13.418C18.2358 13.6378 17.9378 13.7612 17.627 13.7612ZM18.5698 8.84473C18.4234 8.99126 18.2247 9.07363 18.0176 9.07373H8.64258C8.43538 9.07373 8.23666 8.99142 8.09015 8.84491C7.94364 8.69839 7.86133 8.49968 7.86133 8.29248V5.16748C7.86133 4.96028 7.94364 4.76157 8.09015 4.61505C8.23666 4.46854 8.43538 4.38623 8.64258 4.38623H18.0176C18.2248 4.38623 18.4235 4.46854 18.57 4.61505C18.7165 4.76157 18.7988 4.96028 18.7988 5.16748V8.29248C18.7987 8.49964 18.7164 8.69829 18.5698 8.84473Z" fill="white"/>
</svg>
