<svg width="53" height="54" viewBox="0 0 53 54" fill="none" xmlns="http://www.w3.org/2000/svg">
<path d="M40.4475 13.0527H12.5527V40.9475H40.4475V13.0527Z" fill="white"/>
<path d="M40.4473 53.4999L52.9999 40.9473H40.4473V53.4999Z" fill="#EA4335"/>
<path d="M52.9999 13.0527H40.4473V40.9475H52.9999V13.0527Z" fill="#FBBC04"/>
<path d="M40.4475 40.9473H12.5527V53.4999H40.4475V40.9473Z" fill="#34A853"/>
<path d="M0 40.9473V49.3157C0 51.6275 1.87243 53.4999 4.18421 53.4999H12.5526V40.9473H0Z" fill="#188038"/>
<path d="M52.9999 13.0526V4.68421C52.9999 2.37243 51.1275 0.5 48.8157 0.5H40.4473V13.0526H52.9999Z" fill="#1967D2"/>
<path d="M40.4474 0.5H4.18421C1.87243 0.5 0 2.37243 0 4.68421V40.9474H12.5526V13.0526H40.4474V0.5Z" fill="#4285F4"/>
<path d="M18.2736 34.6919C17.231 33.9876 16.5092 32.959 16.1152 31.5991L18.5351 30.6019C18.7548 31.4387 19.1383 32.0872 19.6858 32.5475C20.2297 33.0078 20.8922 33.2344 21.6663 33.2344C22.4578 33.2344 23.1377 32.9938 23.7061 32.5126C24.2744 32.0315 24.5604 31.4178 24.5604 30.6751C24.5604 29.9149 24.2605 29.2943 23.6608 28.8131C23.061 28.3319 22.3079 28.0913 21.4083 28.0913H20.01V25.6959H21.2653C22.0394 25.6959 22.6914 25.4867 23.2214 25.0682C23.7514 24.6498 24.0164 24.078 24.0164 23.3492C24.0164 22.7007 23.7793 22.1846 23.3051 21.7976C22.8309 21.4105 22.2312 21.2153 21.5024 21.2153C20.7911 21.2153 20.2262 21.4036 19.8078 21.7836C19.3897 22.1647 19.0753 22.6459 18.8942 23.1819L16.4988 22.1846C16.8161 21.285 17.3984 20.49 18.2527 19.8031C19.1069 19.1162 20.1983 18.771 21.5233 18.771C22.5031 18.771 23.3853 18.9593 24.1664 19.3394C24.9474 19.7194 25.5611 20.2459 26.0039 20.9154C26.4467 21.5884 26.6664 22.3415 26.6664 23.1784C26.6664 24.0326 26.4607 24.7544 26.0492 25.3472C25.6378 25.9399 25.1322 26.3932 24.5325 26.7105V26.8535C25.3069 27.1728 25.9796 27.6972 26.4781 28.3703C26.9837 29.0502 27.2383 29.8626 27.2383 30.8111C27.2383 31.7595 26.9977 32.6068 26.5165 33.3495C26.0353 34.0922 25.3693 34.678 24.5255 35.1034C23.6782 35.5288 22.7263 35.7449 21.6698 35.7449C20.4459 35.7484 19.3162 35.3963 18.2736 34.6919ZM33.138 22.6832L30.481 24.6045L29.1525 22.5891L33.9191 19.1511H35.7462V35.3684H33.138V22.6832Z" fill="#4285F4"/>
</svg>
