<svg width="53" height="54" viewBox="0 0 53 54" fill="none" xmlns="http://www.w3.org/2000/svg">
<path d="M4.00687 43.9079L6.34422 47.9451C6.8299 48.795 7.52806 49.4629 8.34765 49.9485L16.6953 35.4995H0C0 36.4405 0.242841 37.3815 0.728522 38.2315L4.00687 43.9079Z" fill="#0066DA"/>
<path d="M26.5 18.5005L18.1523 4.05151C17.3328 4.5372 16.6346 5.20501 16.1489 6.05495L0.728522 32.7674C0.251773 33.5991 0.000634763 34.5408 0 35.4994H16.6953L26.5 18.5005Z" fill="#00AC47"/>
<path d="M44.6516 49.9485C45.4712 49.4629 46.1694 48.795 46.655 47.9451L47.6264 46.2756L52.2707 38.2315C52.7564 37.3815 52.9993 36.4405 52.9993 35.4995H36.3027L39.8555 42.4812L44.6516 49.9485Z" fill="#EA4335"/>
<path d="M26.5 18.5005L34.8476 4.05152C34.0281 3.56584 33.0871 3.323 32.1157 3.323H20.8843C19.9129 3.323 18.9719 3.59619 18.1523 4.05152L26.5 18.5005Z" fill="#00832D"/>
<path d="M36.3047 35.4995H16.6953L8.34766 49.9485C9.16724 50.4342 10.1083 50.6771 11.0796 50.6771H41.9204C42.8918 50.6771 43.8328 50.4039 44.6524 49.9485L36.3047 35.4995Z" fill="#2684FC"/>
<path d="M44.5613 19.4112L36.8511 6.05495C36.3654 5.20501 35.6672 4.5372 34.8477 4.05151L26.5 18.5005L36.3047 35.4994H52.9696C52.9696 34.5584 52.7268 33.6174 52.2411 32.7674L44.5613 19.4112Z" fill="#FFBA00"/>
</svg>
