<svg width="26" height="26" viewBox="0 0 26 26" fill="none" xmlns="http://www.w3.org/2000/svg">
<path d="M20.0827 5.16749H12.4709C12.2396 5.16823 12.0134 5.10024 11.8209 4.97217L10.4635 4.06446C10.014 3.76388 9.48522 3.60393 8.94448 3.60499H5.23892C4.51396 3.60576 3.81891 3.8941 3.30628 4.40672C2.79365 4.91935 2.50532 5.6144 2.50454 6.33936V7.51124H22.817C22.817 6.00342 21.5905 5.16749 20.0827 5.16749ZM20.8517 22.355H4.46988C3.7524 22.3542 3.06399 22.0714 2.55311 21.5676C2.04223 21.0639 1.74981 20.3795 1.73892 19.6621L0.950833 11.6182V11.6045C0.925025 11.2821 0.966226 10.9578 1.07184 10.6521C1.17746 10.3464 1.34521 10.0659 1.56453 9.82818C1.78385 9.59047 2.05 9.40072 2.34623 9.27088C2.64246 9.14104 2.96236 9.07392 3.28579 9.07374H22.0407C22.364 9.07405 22.6838 9.14127 22.9799 9.27117C23.276 9.40107 23.5421 9.59084 23.7613 9.82854C23.9805 10.0662 24.1482 10.3467 24.2537 10.6524C24.3593 10.958 24.4005 11.2822 24.3747 11.6045V11.6182L23.5827 19.6621C23.5718 20.3795 23.2794 21.0639 22.7685 21.5676C22.2576 22.0714 21.5692 22.3542 20.8517 22.355Z" fill="white"/>
</svg>
