<svg width="17" height="8" viewBox="0 0 17 8" fill="none" xmlns="http://www.w3.org/2000/svg">
<path d="M7.67857 7.60714V0.75H9.39286V7.60714H7.67857ZM1.39286 7.60714C1.05 7.60714 0.77381 7.4881 0.564286 7.25C0.354762 7.01191 0.25 6.75 0.25 6.46429V1.89286C0.25 1.60714 0.354762 1.34524 0.564286 1.10714C0.77381 0.869048 1.05 0.75 1.39286 0.75H4.82143C5.16429 0.75 5.44048 0.869048 5.65 1.10714C5.85952 1.34524 5.96429 1.60714 5.96429 1.89286V2.46429H1.96429V5.89286H4.25V4.17857H5.96429V6.46429C5.96429 6.75 5.85952 7.01191 5.65 7.25C5.44048 7.4881 5.16429 7.60714 4.82143 7.60714H1.39286ZM11.1071 7.60714V0.75H16.25V2.46429H12.8214V3.60714H15.1071V5.32143H12.8214V7.60714H11.1071Z" fill="#4B83FF"/>
</svg>
