<svg width="53" height="54" viewBox="0 0 53 54" fill="none" xmlns="http://www.w3.org/2000/svg">
<path d="M49.4453 46.9982H3.34375C1.55614 46.9982 0.0507812 45.5399 0.0507812 43.7054V10.3992C0.0507812 8.61156 1.5091 7.1062 3.34375 7.1062H49.4453C51.233 7.1062 52.7384 8.56452 52.7384 10.3992V43.7054C52.7384 45.5399 51.28 46.9982 49.4453 46.9982Z" fill="#E3E3E3"/>
<path opacity="0.1" d="M6.63659 46.9983L26.3474 31.1449L26.4886 30.2981L6.16618 15.668L6.11914 46.2927L6.63659 46.9983Z" fill="#231F20"/>
<path d="M3.34375 46.9981C1.5091 46.9981 0.0507812 45.5398 0.0507812 43.7051V10.3519C0.0507812 8.51729 1.5091 8.18799 3.34375 8.18799C5.17842 8.18799 6.63672 8.56433 6.63672 10.3519V46.9981H3.34375Z" fill="#D54B3D"/>
<path d="M3.34375 8.65841C5.69587 8.65841 6.16631 9.36406 6.16631 10.3519V46.5275H3.34375C1.79135 46.5275 0.521207 45.2574 0.521207 43.7051V10.3519C0.521207 9.317 0.991631 8.65841 3.34375 8.65841ZM3.34375 8.18799C1.5091 8.18799 0.0507812 8.56433 0.0507812 10.3519V43.7051C0.0507812 45.5398 1.5091 46.9981 3.34375 46.9981H6.63672V10.3519C6.63672 8.51729 5.17842 8.18799 3.34375 8.18799Z" fill="#D72B27"/>
<path d="M49.4452 46.9981H46.1523V10.2579C46.1523 8.4232 47.6107 8.18799 49.4452 8.18799C51.2799 8.18799 52.7382 8.4232 52.7382 10.2579V43.7521C52.7382 45.5398 51.2799 46.9981 49.4452 46.9981Z" fill="#D54B3D"/>
<path d="M49.4452 8.65841C51.5623 8.65841 52.2678 9.08179 52.2678 10.2579V43.7521C52.2678 45.3046 50.9977 46.5747 49.4452 46.5747H46.6227V10.2579C46.6227 9.03475 47.3283 8.65841 49.4452 8.65841ZM49.4452 8.18799C47.6107 8.18799 46.1523 8.4232 46.1523 10.2579V47.0451H49.4452C51.2799 47.0451 52.7382 45.5868 52.7382 43.7521V10.2579C52.7382 8.4232 51.2799 8.18799 49.4452 8.18799Z" fill="#D72B27"/>
<path d="M35.3324 46.9982L0.326172 11.72L2.16747 12.469L26.5355 30.0158L52.7382 10.802V43.7523C52.7382 45.5398 51.2799 46.9982 49.4451 46.9982H35.3324Z" fill="url(#paint0_linear_1_458)"/>
<path d="M26.3491 31.1448L1.46353 13.0805C0.00521017 11.9985 -0.418172 9.92862 0.663805 8.4703C1.74578 7.01198 3.8627 6.68269 5.36806 7.76466L26.3961 23.0535L47.5652 7.57649C49.0236 6.49452 51.0935 6.82381 52.1754 8.32917C53.2574 9.78748 52.928 11.8574 51.4226 12.9393L26.3491 31.1448Z" fill="#D54B3D"/>
<path d="M49.4465 7.38839C50.3403 7.38839 51.1871 7.81178 51.7516 8.56446C52.6454 9.8346 52.363 11.5752 51.1401 12.516L26.3485 30.5804L1.74534 12.7042C0.475196 11.7633 0.145898 9.97574 1.03971 8.75263C1.55717 8.04699 2.45099 7.57656 3.39182 7.57656C4.00339 7.57656 4.61494 7.76473 5.08536 8.14107L26.0663 23.3829L26.3485 23.571L26.6309 23.3829L47.7528 7.90586C48.2704 7.57656 48.835 7.38839 49.4465 7.38839ZM49.4465 6.91797C48.7878 6.91797 48.0822 7.10614 47.5176 7.52952L26.3485 23.0065L5.32057 7.71769C4.75605 7.29431 4.05043 7.10614 3.34478 7.10614C2.30985 7.10614 1.27492 7.57656 0.616323 8.47037C-0.418612 9.92868 0.00477049 11.9986 1.46309 13.0805L26.3485 31.192L51.3752 12.9394C52.8336 11.8574 53.1628 9.8346 52.1278 8.32924C51.4692 7.38839 50.4813 6.91797 49.4465 6.91797Z" fill="#D72B27"/>
<defs>
<linearGradient id="paint0_linear_1_458" x1="0.328211" y1="28.8993" x2="52.7552" y2="28.8993" gradientUnits="userSpaceOnUse">
<stop stop-opacity="0.1"/>
<stop offset="1" stop-opacity="0.2"/>
</linearGradient>
</defs>
</svg>
