<svg width="26" height="26" viewBox="0 0 26 26" fill="none" xmlns="http://www.w3.org/2000/svg">
<path d="M13.3301 5.94873C12.7893 5.94873 12.2606 5.78836 11.8109 5.48791C11.3613 5.18745 11.0108 4.7604 10.8038 4.26076C10.5969 3.76112 10.5427 3.21132 10.6482 2.68091C10.7538 2.15049 11.0142 1.66327 11.3966 1.28086C11.779 0.898452 12.2662 0.638028 12.7966 0.532522C13.327 0.427015 13.8768 0.481165 14.3765 0.688124C14.8761 0.895082 15.3032 1.24555 15.6036 1.69522C15.9041 2.14488 16.0645 2.67355 16.0645 3.21436C16.0637 3.93932 15.7753 4.63437 15.2627 5.147C14.7501 5.65962 14.055 5.94796 13.3301 5.94873Z" fill="white"/>
<path d="M21.9233 5.98772L21.9014 5.99358L21.8809 5.99993C21.832 6.0136 21.7832 6.02825 21.7344 6.04339C20.8257 6.30999 16.4155 7.55315 13.3086 7.55315C10.4214 7.55315 6.41016 6.47893 5.12695 6.11419C4.99924 6.06481 4.86882 6.02275 4.73633 5.98821C3.80859 5.74407 3.17383 6.68645 3.17383 7.54778C3.17383 8.40081 3.94043 8.80706 4.71436 9.09856V9.11224L9.36377 10.5644C9.83887 10.7465 9.96582 10.9325 10.0278 11.0937C10.2295 11.6108 10.0684 12.6347 10.0112 12.9921L9.72803 15.1894L8.15625 23.7924C8.15137 23.8158 8.14697 23.8398 8.14307 23.8642L8.13184 23.9262C8.01856 24.7148 8.59766 25.4799 9.69434 25.4799C10.6514 25.4799 11.0737 24.8193 11.2568 23.9203C11.4399 23.0214 12.624 16.2265 13.3076 16.2265C13.9912 16.2265 15.3994 23.9203 15.3994 23.9203C15.5825 24.8193 16.0049 25.4799 16.9619 25.4799C18.0615 25.4799 18.6406 24.7114 18.5244 23.9203C18.5144 23.8538 18.5021 23.7877 18.4873 23.7221L16.894 15.1904L16.6113 12.9931C16.4067 11.7133 16.5713 11.2905 16.627 11.1913C16.6284 11.189 16.6298 11.1866 16.6309 11.184C16.6836 11.0864 16.9238 10.8676 17.4844 10.6572L21.8438 9.13323C21.8705 9.1261 21.8969 9.11763 21.9229 9.10784C22.7041 8.81487 23.4854 8.4096 23.4854 7.54876C23.4854 6.68792 22.8511 5.74407 21.9233 5.98772Z" fill="white"/>
</svg>
