<svg width="241" height="36" viewBox="0 0 241 36" fill="none" xmlns="http://www.w3.org/2000/svg">
<path d="M80.5059 8.4295C80.5059 6.96608 81.7351 5.73682 83.1985 5.73682C84.662 5.73682 85.8912 6.96608 85.8912 8.4295C85.8912 9.89291 84.662 11.1222 83.1985 11.1222C81.7351 11.1222 80.5059 9.89291 80.5059 8.4295ZM80.9742 12.4685H85.4815V27.4832H80.9742V12.4685Z" fill="#A0AEC0"/>
<path d="M104.125 21.3073C104.125 25.0243 101.081 27.4536 97.3351 27.4536H88.4961V6.43896H96.7205C100.379 6.43896 103.364 8.8097 103.364 12.439C103.364 14.1951 102.662 15.5707 101.52 16.5658C103.101 17.5609 104.125 19.1707 104.125 21.3073ZM93.2961 10.9463V14.6634H96.7205C97.8034 14.6634 98.5644 13.8731 98.5644 12.7902C98.5644 11.7073 97.8327 10.917 96.7205 10.917H93.2961V10.9463ZM99.3254 20.956C99.3254 19.7853 98.5351 18.9365 97.3351 18.9365H93.2961V22.9755H97.3351C98.5351 22.9755 99.3254 22.1268 99.3254 20.956Z" fill="#A0AEC0"/>
<path d="M121.861 12.4683V27.483H117.354V26.0488C116.359 27.1903 114.895 27.8927 112.876 27.8927C108.954 27.8927 105.705 24.4391 105.705 19.961C105.705 15.483 108.954 12.0293 112.876 12.0293C114.895 12.0293 116.359 12.7317 117.354 13.8732V12.4683H121.861ZM117.354 19.961C117.354 17.7073 115.861 16.3025 113.783 16.3025C111.705 16.3025 110.212 17.7073 110.212 19.961C110.212 22.2147 111.705 23.6195 113.783 23.6195C115.832 23.6195 117.354 22.2147 117.354 19.961Z" fill="#A0AEC0"/>
<path d="M139.248 18.2634V27.483H134.74V18.9073C134.74 17.0342 133.57 16.1854 132.135 16.1854C130.496 16.1854 129.355 17.1512 129.355 19.2878V27.483H124.848V12.4683H129.355V13.8732C130.174 12.761 131.667 12.0293 133.657 12.0293C136.672 12.0293 139.248 14.1952 139.248 18.2634Z" fill="#A0AEC0"/>
<path d="M146.71 11.0634V15.1316H154.525V19.756H146.71V27.4829H141.91V6.43896H154.671V11.0634H146.71Z" fill="#A0AEC0"/>
<path d="M156.516 8.4295C156.516 6.96608 157.745 5.73682 159.208 5.73682C160.672 5.73682 161.901 6.96608 161.901 8.4295C161.901 9.89291 160.672 11.1222 159.208 11.1222C157.745 11.1222 156.516 9.89291 156.516 8.4295ZM156.955 12.4685H161.462V27.4832H156.955V12.4685Z" fill="#A0AEC0"/>
<path d="M173.52 12.1465V17.2684C171.647 16.9758 169.013 17.7075 169.013 20.6928V27.4831H164.506V12.4684H169.013V15.1319C169.599 13.1123 171.618 12.1465 173.52 12.1465Z" fill="#A0AEC0"/>
<path d="M186.984 22.9757C186.984 26.4293 183.969 27.8927 180.75 27.8927C177.735 27.8927 175.452 26.7513 174.281 24.322L178.174 22.0976C178.554 23.2391 179.403 23.883 180.72 23.883C181.803 23.883 182.33 23.561 182.33 22.9464C182.33 21.3074 174.954 22.1562 174.954 16.9757C174.954 13.6976 177.706 12.0586 180.837 12.0586C183.267 12.0586 185.432 13.1415 186.691 15.2781L182.857 17.3562C182.447 16.5659 181.832 16.0391 180.837 16.0391C180.047 16.0391 179.579 16.3318 179.579 16.8879C179.579 18.5562 186.984 17.4147 186.984 22.9757Z" fill="#A0AEC0"/>
<path d="M194.944 16.771V22.0978C194.944 23.3856 196.057 23.5027 198.047 23.3856V27.4832C192.164 28.0978 190.437 26.3124 190.437 22.0978V16.771H188.037V12.4393H190.437V9.60025L194.944 8.25391V12.4685H198.047V16.8002H194.944V16.771Z" fill="#A0AEC0"/>
<path d="M68.9449 18.0879L64.3205 20.7513L59.14 23.7367L49.8034 29.122L49.3059 29.4146C49.2766 29.4146 49.2766 29.4439 49.2473 29.4439C48.3108 29.9707 47.1986 30.2927 46.0571 30.2927C44.74 30.2927 43.54 29.9122 42.5156 29.2391C42.5742 30.3805 42.9254 31.4927 43.5107 32.4585C44.1254 33.4829 45.0034 34.361 46.0571 34.9756C47.1108 35.5902 48.3108 35.9122 49.5108 35.9415C49.54 35.9415 49.5986 35.9415 49.6278 35.9415C50.8571 35.9415 52.0864 35.6195 53.1986 34.9756L60.7498 30.6146L62.74 29.4732L71.7546 24.2635C71.8717 24.205 71.9888 24.1172 72.1058 24.0294C72.1058 23.9123 72.1058 23.7659 72.1058 23.6489C72.1351 21.2781 70.8473 19.2001 68.9449 18.0879Z" fill="#A0AEC0"/>
<path d="M74.448 14.6048C73.8334 13.4926 72.8968 12.556 71.7846 11.8829L62.2431 6.38043L53.17 1.17067C53.0236 1.08286 52.8773 0.99506 52.7309 0.936523C50.6529 2.01945 49.2188 4.1853 49.2188 6.70238L49.7748 7.02433L58.9358 12.3219L64.2919 15.3951L68.7992 17.9999C68.8578 18.0292 68.887 18.0585 68.9456 18.0877C70.848 19.2292 72.1358 21.3073 72.1358 23.678C72.1358 23.7951 72.1358 23.9414 72.1358 24.0585C73.1016 23.4146 73.8919 22.5658 74.448 21.5707C75.0334 20.517 75.3553 19.317 75.3553 18.117C75.326 16.8585 75.0334 15.6585 74.448 14.6048Z" fill="#A0AEC0"/>
<path d="M49.5107 0.205078C48.3107 0.234346 47.1107 0.556299 46.0571 1.17093C45.0034 1.78557 44.1254 2.63435 43.5107 3.68801C42.8375 4.8002 42.4863 6.05874 42.4863 7.34654V18.3807V28.8002C42.4863 28.9465 42.4863 29.0929 42.4863 29.2392C43.5107 29.9123 44.7107 30.2928 46.0278 30.2928C47.1985 30.2928 48.2815 30.0001 49.218 29.444V18.1465V6.67337C49.218 4.1563 50.6229 1.99045 52.7302 0.907519C51.7351 0.439226 50.6229 0.205078 49.5107 0.205078Z" fill="#A0AEC0"/>
</svg>
