<svg width="241" height="36" viewBox="0 0 241 36" fill="none" xmlns="http://www.w3.org/2000/svg">
<mask id="mask0_1_91" style="mask-type:luminance" maskUnits="userSpaceOnUse" x="51" y="0" width="139" height="36">
<path d="M189.73 0H51.5684V36H189.73V0Z" fill="white"/>
</mask>
<g mask="url(#mask0_1_91)">
<path d="M103.683 28.5011V7.49957H101.973V28.4988L103.683 28.5011ZM114.455 28.8318C115.66 28.8659 116.857 28.6335 117.962 28.1512C119.067 27.6689 120.051 26.9486 120.845 26.0418L119.675 25.0226C119.017 25.7374 118.212 26.3028 117.317 26.6805C116.422 27.0581 115.456 27.2393 114.484 27.2118C113.735 27.2556 112.986 27.1475 112.28 26.8939C111.575 26.6404 110.928 26.2466 110.378 25.7364C109.829 25.2262 109.388 24.6101 109.084 23.9251C108.779 23.2402 108.616 22.5007 108.604 21.7511H121.806C121.998 20.6884 121.946 19.5958 121.651 18.5567C121.357 17.5175 120.83 16.5592 120.11 15.7547C119.389 14.9503 118.495 14.3209 117.494 13.9146C116.493 13.5083 115.413 13.3358 114.335 13.4103C113.327 13.3761 112.323 13.553 111.387 13.9296C110.451 14.3063 109.604 14.8743 108.901 15.5974C108.198 16.3204 107.653 17.1825 107.302 18.1283C106.952 19.0741 106.803 20.0828 106.865 21.0896C106.807 22.1082 106.963 23.1276 107.322 24.0825C107.681 25.0375 108.236 25.907 108.95 26.6355C109.665 27.364 110.523 27.9354 111.471 28.3132C112.419 28.691 113.435 28.8669 114.455 28.8296V28.8318ZM120.154 20.2503H108.604C108.631 19.524 108.802 18.8102 109.107 18.1504C109.412 17.4906 109.845 16.8979 110.381 16.4067C110.917 15.9155 111.545 15.5355 112.229 15.2889C112.912 15.0421 113.638 14.9336 114.365 14.9696C115.099 14.9013 115.84 14.9871 116.539 15.2215C117.239 15.4559 117.882 15.8337 118.426 16.3308C118.971 16.8279 119.406 17.4333 119.704 18.1082C120.002 18.7831 120.155 19.5127 120.154 20.2503ZM126.516 28.5011V20.1896C126.467 19.5387 126.552 18.8847 126.765 18.268C126.979 17.6514 127.318 17.0851 127.759 16.6043C128.201 16.1235 128.736 15.7383 129.332 15.4726C129.928 15.2069 130.573 15.0663 131.225 15.0596C133.986 15.0596 135.517 16.7988 135.517 19.9803V28.5011H137.226V20.1896C137.178 19.5362 137.265 18.8799 137.481 18.2614C137.697 17.6429 138.038 17.0754 138.482 16.5943C138.927 16.1131 139.466 15.7286 140.066 15.4646C140.665 15.2006 141.313 15.0627 141.968 15.0596C144.729 15.0596 146.259 16.7988 146.259 19.9803V28.5011H147.969V19.8611C148.071 19.0335 147.99 18.1938 147.732 17.4009C147.475 16.608 147.046 15.8813 146.477 15.272C145.907 14.6628 145.211 14.1857 144.438 13.8745C143.664 13.5634 142.832 13.4257 141.999 13.4711C140.86 13.4533 139.739 13.7635 138.771 14.3647C137.802 14.9659 137.028 15.8327 136.538 16.8618C136.144 15.807 135.421 14.9074 134.475 14.2965C133.529 13.6856 132.412 13.3961 131.288 13.4711C130.308 13.4509 129.339 13.69 128.481 14.1641C127.622 14.6382 126.904 15.3305 126.399 16.1711L126.365 13.6803H124.805V28.5011H126.516ZM155.289 28.5011V7.53106H152.197V28.5011H155.289ZM160.568 11.2796C160.823 11.2911 161.078 11.2493 161.316 11.1569C161.554 11.0645 161.77 10.9236 161.951 10.743C162.131 10.5624 162.272 10.3462 162.365 10.1082C162.457 9.87012 162.499 9.61542 162.487 9.36031C162.487 8.851 162.285 8.36256 161.925 8.00242C161.565 7.64228 161.076 7.43994 160.567 7.43994C160.057 7.43994 159.569 7.64228 159.209 8.00242C158.848 8.36256 158.646 8.851 158.646 9.36031C158.635 9.6156 158.677 9.8705 158.769 10.1087C158.862 10.347 159.003 10.5633 159.184 10.7439C159.364 10.9245 159.581 11.0654 159.819 11.1576C160.058 11.2499 160.313 11.2914 160.568 11.2796ZM162.098 28.4988V13.6488H159.009V28.4988H162.098ZM171.279 28.9488C175.088 28.9488 177.579 27.0296 177.579 24.2688C177.579 20.428 174.04 19.8588 171.308 19.618C169.389 19.4088 168.128 18.9588 168.097 17.728C168.097 16.5873 169.267 15.9573 171.128 15.9573C171.857 15.9044 172.589 15.9993 173.28 16.2363C173.971 16.4734 174.606 16.8476 175.149 17.3366L176.889 15.2958C175.312 13.9336 173.269 13.2345 171.189 13.3451C168.428 13.3451 165.039 14.5443 165.039 17.8158C165.039 21.0873 168.308 22.0166 171.07 22.2551C173.23 22.4643 174.49 22.9751 174.49 24.2351C174.49 25.6751 172.78 26.2151 171.34 26.2151C170.372 26.2162 169.414 26.0231 168.522 25.647C167.63 25.271 166.823 24.7197 166.148 24.0258L164.528 26.2151C165.377 27.1464 166.425 27.8757 167.593 28.3491C168.761 28.8226 170.021 29.0283 171.279 28.9511V28.9488ZM186.52 28.6788C187.625 28.695 188.721 28.4701 189.731 28.0196L188.831 25.3803C188.251 25.702 187.602 25.8773 186.94 25.8911C185.5 25.8911 184.809 25.0203 184.809 23.4611V16.4096H189.159V13.7411H184.839V9.45031L181.718 9.78106V13.7411H178.869V16.4096H181.72V23.4588C181.72 26.8811 183.43 28.6811 186.52 28.6811V28.6788Z" fill="#A0AEC0"/>
<path d="M80.0716 0C82.0607 0 83.9684 0.790099 85.3748 2.19648C86.7813 3.60287 87.5715 5.51034 87.5715 7.49925V28.4985C87.5719 29.4835 87.3782 30.4589 87.0014 31.369C86.6247 32.2791 86.0721 33.1061 85.3756 33.8027C84.6792 34.4993 83.8523 35.0518 82.9422 35.4289C82.0322 35.806 81.0567 36 80.0716 36H69.5699C64.7956 36 60.2169 34.1036 56.8409 30.7279C53.465 27.3523 51.5684 22.7739 51.5684 18V7.49925C51.5684 5.51034 52.3585 3.60287 53.765 2.19648C55.1715 0.790099 57.0792 0 59.0683 0H80.0716ZM63.5687 10.5007C63.1706 10.5007 62.7889 10.6589 62.5074 10.9403C62.2259 11.2218 62.0678 11.6035 62.0678 12.0015V19.5007C62.0678 21.0923 62.7 22.6186 63.8255 23.7439C64.951 24.8693 66.4774 25.5015 68.069 25.5015H75.569C75.7708 25.5093 75.9722 25.4763 76.1609 25.4045C76.3497 25.3326 76.5221 25.2235 76.6676 25.0834C76.8132 24.9434 76.929 24.7754 77.0081 24.5896C77.0872 24.4037 77.128 24.2038 77.128 24.0019C77.128 23.7999 77.0872 23.6 77.0081 23.4142C76.929 23.2283 76.8132 23.0604 76.6676 22.9203C76.5221 22.7803 76.3497 22.6711 76.1609 22.5993C75.9722 22.5274 75.7708 22.4944 75.569 22.5022H68.069C67.675 22.5022 67.2847 22.4246 66.9207 22.2737C66.5566 22.1229 66.2258 21.9017 65.9473 21.623C65.6687 21.3443 65.4478 21.0133 65.2972 20.6492C65.1466 20.2851 65.0693 19.8948 65.0695 19.5007V11.9993C65.069 11.6016 64.9106 11.2205 64.6292 10.9395C64.3478 10.6586 63.9663 10.5007 63.5687 10.5007ZM74.0704 16.4993H69.5699C69.1719 16.4993 68.7901 16.6574 68.5087 16.9388C68.2272 17.2203 68.069 17.602 68.069 18C68.069 18.398 68.2272 18.7797 68.5087 19.0612C68.7901 19.3426 69.1719 19.5007 69.5699 19.5007H74.0704C74.2722 19.5086 74.4735 19.4756 74.6623 19.4037C74.8511 19.3319 75.0234 19.2227 75.169 19.0827C75.3146 18.9426 75.4303 18.7747 75.5094 18.5888C75.5885 18.403 75.6293 18.2031 75.6293 18.0011C75.6293 17.7992 75.5885 17.5992 75.5094 17.4134C75.4303 17.2276 75.3146 17.0596 75.169 16.9196C75.0234 16.7796 74.8511 16.6704 74.6623 16.5985C74.4735 16.5267 74.2722 16.4937 74.0704 16.5015V16.4993ZM75.5712 10.4985H69.5699C69.1719 10.4985 68.7901 10.6566 68.5087 10.9381C68.2272 11.2195 68.069 11.6012 68.069 11.9993C68.069 12.3973 68.2272 12.779 68.5087 13.0605C68.7901 13.3419 69.1719 13.5 69.5699 13.5H75.5712C75.773 13.5078 75.9744 13.4748 76.1632 13.403C76.3519 13.3312 76.5243 13.2219 76.6699 13.0819C76.8154 12.9419 76.9312 12.7739 77.0103 12.5881C77.0894 12.4022 77.1302 12.2024 77.1302 12.0004C77.1302 11.7984 77.0894 11.5985 77.0103 11.4127C76.9312 11.2268 76.8154 11.0589 76.6699 10.9188C76.5243 10.7788 76.3519 10.6696 76.1632 10.5978C75.9744 10.5259 75.773 10.4929 75.5712 10.5007V10.4985Z" fill="#A0AEC0"/>
</g>
</svg>
