<svg width="53" height="54" viewBox="0 0 53 54" fill="none" xmlns="http://www.w3.org/2000/svg">
<path d="M47.4707 13.5493C44.9571 13.5493 42.8425 15.2808 42.2456 17.6118H34.725C31.774 17.6118 29.3735 20.0122 29.3735 22.9633C29.3735 24.4375 28.1749 25.639 26.6981 25.639H25.6251C25.0282 23.308 22.9159 21.5765 20.3997 21.5765C17.886 21.5765 15.7712 23.308 15.1743 25.639H10.8777C10.2808 23.308 8.16851 21.5765 5.6523 21.5765C2.67555 21.5765 0.251953 23.9975 0.251953 26.9768C0.251953 29.9536 2.67298 32.3772 5.6523 32.3772C8.16594 32.3772 10.2808 30.6457 10.8777 28.3147H15.1794C15.7763 30.6457 17.8886 32.3772 20.4048 32.3772C22.903 32.3772 25.0024 30.6714 25.6173 28.3636H26.7006C28.1749 28.3636 29.3761 29.5625 29.3761 31.0393C29.3761 33.9904 31.7765 36.3908 34.7276 36.3908H36.4796C37.0765 38.7218 39.1888 40.4533 41.705 40.4533C44.6818 40.4533 47.1056 38.0322 47.1056 35.0529C47.1056 32.0762 44.6844 29.6526 41.705 29.6526C39.1914 29.6526 37.0765 31.3841 36.4796 33.715H34.7276C33.2533 33.715 32.0521 32.5161 32.0521 31.0393C32.0521 29.4288 31.3317 27.9828 30.2022 27.0026C31.3343 26.0198 32.0521 24.5764 32.0521 22.9658C32.0521 21.4916 33.2508 20.2901 34.7276 20.2901H42.2482C42.845 22.6211 44.9573 24.3526 47.4735 24.3526C50.4503 24.3526 52.8736 21.9315 52.8736 18.9522C52.8711 15.9729 50.4475 13.5493 47.4707 13.5493ZM5.65745 29.6989C4.15492 29.6989 2.93283 28.4768 2.93283 26.9743C2.93283 25.4718 4.15492 24.2497 5.65745 24.2497C7.15997 24.2497 8.38206 25.4718 8.38206 26.9743C8.38206 28.4768 7.15997 29.6989 5.65745 29.6989ZM20.4048 29.6989C18.9023 29.6989 17.6802 28.4768 17.6802 26.9743C17.6802 25.4718 18.9023 24.2497 20.4048 24.2497C21.9073 24.2497 23.1294 25.4718 23.1294 26.9743C23.1294 28.4768 21.9073 29.6989 20.4048 29.6989ZM41.7027 32.3257C43.2052 32.3257 44.4271 33.5478 44.4271 35.0503C44.4271 36.5529 43.2052 37.775 41.7027 37.775C40.2002 37.775 38.9779 36.5529 38.9779 35.0503C38.9804 33.5478 40.2028 32.3257 41.7027 32.3257ZM47.4707 21.6743C45.9682 21.6743 44.7461 20.4522 44.7461 18.9497C44.7461 17.4472 45.9682 16.2251 47.4707 16.2251C48.9732 16.2251 50.1953 17.4472 50.1953 18.9497C50.1953 20.4522 48.9732 21.6743 47.4707 21.6743Z" fill="#FF6D5A"/>
</svg>
