<svg width="26" height="26" viewBox="0 0 26 26" fill="none" xmlns="http://www.w3.org/2000/svg">
<path d="M20.4717 8.29227C20.4719 7.7443 20.3281 7.2059 20.0546 6.73108C19.7811 6.25625 19.3875 5.86169 18.9134 5.58697C18.4393 5.31224 17.9012 5.16702 17.3533 5.16586C16.8053 5.16471 16.2667 5.30766 15.7914 5.58037C15.3161 5.85309 14.9209 6.24599 14.6454 6.71966C14.3699 7.19332 14.2238 7.73111 14.2217 8.27907C14.2196 8.82703 14.3617 9.36591 14.6336 9.84164C14.9055 10.3174 15.2978 10.7132 15.771 10.9895C15.6592 12.4095 14.7905 12.7962 12.1089 13.3538C11.2417 13.5335 10.3545 13.7176 9.53516 14.034V7.87186C10.1309 7.5279 10.5965 6.99697 10.8598 6.36141C11.123 5.72586 11.1692 5.0212 10.9912 4.35672C10.8131 3.69224 10.4208 3.10508 9.87504 2.6863C9.32927 2.26752 8.66058 2.04053 7.97266 2.04053C7.28474 2.04053 6.61604 2.26752 6.07028 2.6863C5.52451 3.10508 5.13219 3.69224 4.95414 4.35672C4.77609 5.0212 4.82228 5.72586 5.08553 6.36141C5.34879 6.99697 5.8144 7.5279 6.41016 7.87186V18.0877C5.81531 18.4312 5.3502 18.9611 5.08678 19.5955C4.82335 20.2299 4.77629 20.9334 4.95286 21.5972C5.12943 22.261 5.5198 22.8482 6.0636 23.2678C6.60739 23.6875 7.27431 23.9163 7.96121 23.9189C8.64811 23.9214 9.31671 23.6976 9.86362 23.282C10.4105 22.8664 10.8053 22.2822 10.9868 21.6197C11.1683 20.9572 11.1265 20.2533 10.8678 19.617C10.6091 18.9807 10.1479 18.4473 9.55567 18.0994C9.67236 17.2205 10.3369 16.9114 12.7422 16.4138C14.0815 16.137 15.4658 15.8504 16.6377 15.0979C18.0537 14.1907 18.812 12.8138 18.9014 11.0017C19.3783 10.7282 19.7747 10.3336 20.0504 9.8579C20.3261 9.38217 20.4714 8.84212 20.4717 8.29227ZM7.97168 3.60477C8.28071 3.60477 8.58281 3.69641 8.83976 3.8681C9.09671 4.03979 9.29698 4.28381 9.41524 4.56932C9.5335 4.85483 9.56445 5.169 9.50416 5.4721C9.44387 5.77519 9.29505 6.0536 9.07654 6.27212C8.85802 6.49064 8.5796 6.63945 8.27651 6.69974C7.97341 6.76003 7.65925 6.72909 7.37374 6.61083C7.08823 6.49257 6.8442 6.2923 6.67251 6.03535C6.50082 5.77839 6.40918 5.4763 6.40918 5.16727C6.40918 4.75287 6.5738 4.35544 6.86683 4.06241C7.15985 3.76939 7.55728 3.60477 7.97168 3.60477ZM7.97168 22.3548C7.66265 22.3548 7.36055 22.2631 7.1036 22.0914C6.84665 21.9197 6.64638 21.6757 6.52812 21.3902C6.40986 21.1047 6.37891 20.7905 6.4392 20.4874C6.49949 20.1843 6.64831 19.9059 6.86683 19.6874C7.08535 19.4689 7.36376 19.3201 7.66685 19.2598C7.96995 19.1995 8.28411 19.2304 8.56962 19.3487C8.85513 19.467 9.09916 19.6672 9.27085 19.9242C9.44254 20.1811 9.53418 20.4832 9.53418 20.7923C9.53418 21.2067 9.36956 21.6041 9.07654 21.8971C8.78351 22.1901 8.38608 22.3548 7.97168 22.3548ZM17.3467 9.85477C17.0376 9.85477 16.7356 9.76313 16.4786 9.59144C16.2217 9.41975 16.0214 9.17572 15.9031 8.89021C15.7849 8.6047 15.7539 8.29053 15.8142 7.98744C15.8745 7.68434 16.0233 7.40593 16.2418 7.18741C16.4603 6.96889 16.7388 6.82008 17.0419 6.75979C17.3449 6.6995 17.6591 6.73044 17.9446 6.84871C18.2301 6.96697 18.4742 7.16724 18.6459 7.42419C18.8175 7.68114 18.9092 7.98323 18.9092 8.29227C18.9092 8.70667 18.7446 9.1041 18.4515 9.39712C18.1585 9.69015 17.7611 9.85477 17.3467 9.85477Z" fill="white"/>
</svg>
