<svg width="241" height="36" viewBox="0 0 241 36" fill="none" xmlns="http://www.w3.org/2000/svg">
<path d="M97.0059 24.6123V11.3327H99.3569L103.361 22.298L107.42 11.3327H109.762V24.6123H108.008V13.8766L104.16 24.6123H102.571L98.7508 13.9776V24.6123H97.0059ZM115.498 24.7959C114.886 24.7959 114.344 24.6888 113.873 24.4745C113.401 24.2541 113.031 23.9388 112.762 23.5286C112.498 23.1184 112.367 22.6225 112.367 22.0408C112.367 20.9878 112.734 20.2041 113.469 19.6898C114.204 19.1755 115.382 18.9 117.005 18.8633L118.704 18.8174V18.0735C118.704 17.4919 118.529 17.0327 118.18 16.6959C117.831 16.3531 117.289 16.1817 116.555 16.1817C116.009 16.1878 115.529 16.3164 115.113 16.5674C114.702 16.8184 114.436 17.2286 114.314 17.798H112.817C112.854 17.1796 113.028 16.6592 113.34 16.2368C113.653 15.8082 114.087 15.4837 114.644 15.2633C115.208 15.0429 115.872 14.9327 116.637 14.9327C117.464 14.9327 118.149 15.049 118.694 15.2817C119.245 15.5143 119.655 15.8572 119.925 16.3102C120.201 16.7633 120.338 17.3204 120.338 17.9817V24.6123H118.887L118.768 22.8306C118.401 23.5715 117.932 24.0858 117.363 24.3735C116.799 24.6551 116.178 24.7959 115.498 24.7959ZM116.013 23.5745C116.331 23.5745 116.646 23.5164 116.959 23.4C117.277 23.2837 117.568 23.1276 117.831 22.9317C118.094 22.7296 118.302 22.5062 118.456 22.2612C118.615 22.0102 118.697 21.7531 118.704 21.4898V19.8643L117.289 19.8919C116.567 19.9041 115.961 19.9776 115.471 20.1123C114.987 20.247 114.623 20.4582 114.378 20.7459C114.139 21.0337 114.02 21.4102 114.02 21.8755C114.02 22.4082 114.204 22.8245 114.571 23.1245C114.944 23.4245 115.425 23.5745 116.013 23.5745ZM131.578 24.6123H129.778L126.802 19.8459L124.929 21.7837V24.6123H123.239V10.9653H124.929V19.8643L129.392 15.1164H131.339L127.914 18.7347L131.578 24.6123ZM134.389 20.2592C134.389 20.8592 134.487 21.4041 134.682 21.8939C134.884 22.3776 135.188 22.7633 135.592 23.051C136.002 23.3388 136.513 23.4827 137.125 23.4827C137.731 23.4827 138.252 23.3419 138.687 23.0602C139.127 22.7786 139.409 22.3715 139.531 21.8388H141.139C141.022 22.4817 140.765 23.0235 140.367 23.4643C139.969 23.9051 139.488 24.2388 138.925 24.4653C138.362 24.6857 137.774 24.7959 137.162 24.7959C136.274 24.7959 135.494 24.6031 134.82 24.2174C134.147 23.8317 133.62 23.2776 133.241 22.5551C132.861 21.8327 132.671 20.9664 132.671 19.9561C132.671 18.9582 132.843 18.0827 133.185 17.3296C133.528 16.5766 134.024 15.9888 134.673 15.5664C135.328 15.1439 136.115 14.9327 137.033 14.9327C137.927 14.9327 138.684 15.1255 139.302 15.5112C139.92 15.897 140.388 16.4419 140.707 17.1459C141.031 17.8439 141.194 18.6735 141.194 19.6347V20.2592H134.389ZM134.398 19.1113H139.559C139.559 18.5664 139.467 18.0765 139.283 17.6419C139.1 17.201 138.818 16.8551 138.439 16.6041C138.065 16.347 137.594 16.2184 137.024 16.2184C136.43 16.2184 135.938 16.3623 135.546 16.65C135.16 16.9317 134.869 17.2959 134.673 17.7429C134.483 18.1837 134.391 18.6398 134.398 19.1113ZM143.526 24.6123V15.1164H145.142V16.9439C145.301 16.4909 145.525 16.1174 145.813 15.8235C146.1 15.5235 146.428 15.3 146.795 15.1531C147.169 15.0061 147.555 14.9327 147.952 14.9327C148.093 14.9327 148.231 14.9419 148.366 14.9602C148.501 14.9786 148.605 15.0092 148.678 15.0521V16.6959C148.586 16.6531 148.467 16.6255 148.32 16.6133C148.179 16.5949 148.06 16.5857 147.962 16.5857C147.582 16.5612 147.227 16.5857 146.896 16.6592C146.566 16.7265 146.275 16.8459 146.024 17.0174C145.773 17.1888 145.574 17.4153 145.427 17.697C145.286 17.9725 145.216 18.3092 145.216 18.7072V24.6123H143.526ZM151.005 11.3327H152.741V23.0878H159.013V24.6123H150.996L151.005 11.3327ZM162.226 20.2592C162.226 20.8592 162.325 21.4041 162.52 21.8939C162.722 22.3776 163.025 22.7633 163.43 23.051C163.84 23.3388 164.351 23.4827 164.963 23.4827C165.569 23.4827 166.09 23.3419 166.524 23.0602C166.965 22.7786 167.247 22.3715 167.369 21.8388H168.976C168.86 22.4817 168.603 23.0235 168.205 23.4643C167.807 23.9051 167.327 24.2388 166.763 24.4653C166.2 24.6857 165.612 24.7959 165 24.7959C164.112 24.7959 163.332 24.6031 162.658 24.2174C161.985 23.8317 161.458 23.2776 161.079 22.5551C160.699 21.8327 160.509 20.9664 160.509 19.9561C160.509 18.9582 160.681 18.0827 161.023 17.3296C161.367 16.5766 161.862 15.9888 162.511 15.5664C163.167 15.1439 163.953 14.9327 164.871 14.9327C165.765 14.9327 166.521 15.1255 167.14 15.5112C167.758 15.897 168.227 16.4419 168.545 17.1459C168.87 17.8439 169.032 18.6735 169.032 19.6347V20.2592H162.226ZM162.236 19.1113H167.397C167.397 18.5664 167.305 18.0765 167.121 17.6419C166.938 17.201 166.656 16.8551 166.276 16.6041C165.903 16.347 165.432 16.2184 164.862 16.2184C164.269 16.2184 163.776 16.3623 163.384 16.65C162.998 16.9317 162.707 17.2959 162.511 17.7429C162.322 18.1837 162.23 18.6398 162.236 19.1113ZM173.883 24.7959C173.271 24.7959 172.729 24.6888 172.257 24.4745C171.786 24.2541 171.416 23.9388 171.146 23.5286C170.883 23.1184 170.751 22.6225 170.751 22.0408C170.751 20.9878 171.118 20.2041 171.853 19.6898C172.588 19.1755 173.767 18.9 175.389 18.8633L177.088 18.8174V18.0735C177.088 17.4919 176.913 17.0327 176.564 16.6959C176.215 16.3531 175.674 16.1817 174.939 16.1817C174.394 16.1878 173.914 16.3164 173.497 16.5674C173.087 16.8184 172.821 17.2286 172.698 17.798H171.201C171.238 17.1796 171.412 16.6592 171.725 16.2368C172.037 15.8082 172.472 15.4837 173.029 15.2633C173.592 15.0429 174.256 14.9327 175.022 14.9327C175.848 14.9327 176.534 15.049 177.079 15.2817C177.63 15.5143 178.04 15.8572 178.309 16.3102C178.585 16.7633 178.723 17.3204 178.723 17.9817V24.6123H177.272L177.152 22.8306C176.785 23.5715 176.316 24.0858 175.747 24.3735C175.184 24.6551 174.562 24.7959 173.883 24.7959ZM174.397 23.5745C174.716 23.5745 175.031 23.5164 175.343 23.4C175.661 23.2837 175.952 23.1276 176.215 22.9317C176.479 22.7296 176.687 22.5062 176.84 22.2612C176.999 22.0102 177.082 21.7531 177.088 21.4898V19.8643L175.674 19.8919C174.951 19.9041 174.345 19.9776 173.855 20.1123C173.372 20.247 173.007 20.4582 172.762 20.7459C172.524 21.0337 172.404 21.4102 172.404 21.8755C172.404 22.4082 172.588 22.8245 172.955 23.1245C173.329 23.4245 173.809 23.5745 174.397 23.5745ZM185.049 24.7959C183.819 24.7959 182.842 24.3735 182.12 23.5286C181.397 22.6837 181.036 21.45 181.036 19.8276C181.036 18.8419 181.18 17.9817 181.468 17.247C181.762 16.5123 182.196 15.9429 182.772 15.5388C183.347 15.1347 184.063 14.9327 184.921 14.9327C185.374 14.9327 185.775 14.9908 186.124 15.1072C186.479 15.2235 186.785 15.3704 187.042 15.548C187.299 15.7255 187.507 15.9092 187.667 16.099C187.832 16.2888 187.954 16.4633 188.034 16.6225V10.9653H189.742V24.6123H188.447L188.264 22.6653C188.202 22.849 188.104 23.0633 187.97 23.3082C187.835 23.547 187.645 23.7827 187.4 24.0153C187.155 24.2419 186.84 24.4286 186.454 24.5755C186.075 24.7225 185.606 24.7959 185.049 24.7959ZM185.352 23.4919C186.313 23.4919 186.999 23.201 187.41 22.6194C187.826 22.0317 188.034 21.0735 188.034 19.7449C188.028 19.0041 187.933 18.3735 187.749 17.8531C187.572 17.3327 187.29 16.9378 186.904 16.6684C186.525 16.3929 186.02 16.2551 185.389 16.2551C184.605 16.2551 183.969 16.5337 183.479 17.0908C182.989 17.648 182.744 18.5327 182.744 19.7449C182.744 20.9327 182.965 21.8541 183.405 22.5092C183.852 23.1643 184.501 23.4919 185.352 23.4919Z" fill="#A0AEC0"/>
<path fill-rule="evenodd" clip-rule="evenodd" d="M49.332 17.8166C49.332 31.9997 49.3386 35.6333 49.3642 35.6333C49.4135 35.6333 50.6654 35.181 54.6475 33.7247C58.24 32.4109 58.5073 32.3081 72.4822 26.8669C80.2854 23.8288 87.2051 21.1489 87.8597 20.9116C88.514 20.6744 89.0977 20.4524 89.1565 20.4182C89.353 20.304 89.3398 20.5183 89.36 17.1431C89.3791 13.9433 89.3541 12.1159 89.2806 11.3404C89.1785 10.2589 88.9251 9.19649 88.5276 8.18368C88.0482 6.96159 87.3557 5.81455 86.4087 4.67478C86.0599 4.2548 85.0612 3.25148 84.6652 2.92315C82.8222 1.39519 80.8007 0.484226 78.4961 0.143308C77.5783 0.00750978 78.6724 0.0172984 63.4226 0.00831255L49.332 0V17.8166ZM77.5391 2.26133C79.328 2.4946 80.8283 3.04172 82.2163 3.96694C82.8414 4.38366 83.242 4.71053 83.7943 5.25464C85.5233 6.95799 86.5799 9.09254 86.8892 11.5058C86.937 11.8807 86.9414 12.0596 86.9414 13.6596V15.4046L86.8573 15.4314C86.5645 15.5247 80.0347 17.5314 79.9778 17.5456L79.9075 17.5632L79.8987 13.7215L79.8899 9.87987L79.8215 9.51733C79.6235 8.46775 79.256 7.63813 78.6852 6.95186C78.2159 6.38765 77.6481 6.01325 76.9873 5.83233L76.7372 5.76386L74.7779 5.75545L72.8185 5.74707V12.7774V19.8078L72.6051 19.8725C72.4877 19.9081 70.9134 20.381 69.1067 20.9233C67.3 21.4657 65.8013 21.9158 65.7764 21.9237C65.7334 21.9372 65.7312 21.6358 65.7311 15.8441C65.731 10.4426 65.7264 9.72393 65.6907 9.51733C65.4559 8.16002 64.8116 7.01056 63.9089 6.33846C63.6407 6.13877 63.197 5.92288 62.873 5.83442L62.6143 5.76386L60.6549 5.75545L58.6956 5.74707V15.6303C58.6956 23.5262 58.7021 25.5111 58.7279 25.5012C58.7457 25.4945 60.1454 24.981 61.8383 24.3602C63.5313 23.7394 65.1201 23.1562 65.369 23.0643L65.8217 22.8971L65.8283 24.8809C65.832 25.9719 65.8262 26.8727 65.8154 26.8825C65.7973 26.8991 51.7546 32.0522 51.6535 32.0794C51.6105 32.091 51.6083 31.3673 51.6083 17.1463V2.20099L64.4055 2.20922C76.2513 2.21687 77.2278 2.22075 77.5391 2.26133Z" fill="#A0AEC0"/>
</svg>
