<svg width="53" height="54" viewBox="0 0 53 54" fill="none" xmlns="http://www.w3.org/2000/svg">
<path d="M39.3316 25.4266C39.6974 25.4266 40.0629 25.4266 40.4285 25.4266C40.6611 24.9279 40.6611 24.1968 40.4285 23.3658C40.1958 22.136 39.8302 21.3051 39.0991 21.4048C38.3678 21.5378 38.3678 22.5016 38.6004 23.7315C38.7002 24.4626 38.966 25.0608 39.3316 25.4266Z" fill="#A0AEC0"/>
<path d="M32.8824 26.5234C33.3808 26.7561 33.7464 26.889 33.8462 26.7561C33.9791 26.6232 33.8462 26.5234 33.7133 26.2576C33.4806 25.7589 32.849 25.3934 32.3837 25.1607C31.1539 24.662 29.8246 24.7952 28.7277 25.6592C28.3621 25.8918 27.9966 26.2576 28.1295 26.5234C28.1295 26.6563 28.2623 26.6563 28.3621 26.6563C28.5948 26.6563 29.6917 26.1578 30.9213 26.0581C31.6526 26.025 32.3837 26.2907 32.8824 26.5234Z" fill="#A0AEC0"/>
<path d="M31.7869 27.1216C31.0556 27.2545 30.69 27.4872 30.4574 27.7199C30.2247 27.9525 30.0918 28.0857 30.0918 28.2186V28.3514H30.2247C30.3576 28.3514 30.7234 28.2186 30.7234 28.2186C31.6871 27.853 32.3187 27.853 32.9169 27.9859C33.2825 27.9859 33.4154 28.1188 33.5152 27.9859C33.5152 27.9859 33.5152 27.853 33.5152 27.7532C33.4818 27.3877 32.7507 27.0219 31.7869 27.1216Z" fill="#A0AEC0"/>
<path d="M32.1512 27.9855C32.3839 27.4871 32.3839 26.3902 32.1512 25.5593C31.9185 24.3295 31.553 23.5984 30.6887 23.5984C29.9576 23.7313 29.9576 24.6951 30.1903 26.0246C30.3232 26.8889 30.6887 27.3542 30.7885 27.7198C31.4201 28.7169 31.7856 28.4509 32.1512 27.9855Z" fill="#A0AEC0"/>
<path d="M37.1367 29.3153C37.6354 29.548 38.1007 29.4482 38.3665 29.0826C38.4996 28.7169 38.2336 28.2184 37.7683 27.9857C37.2698 27.7531 36.8045 27.8529 36.5385 28.2184C36.2727 28.584 36.6383 29.0826 37.1367 29.3153Z" fill="#A0AEC0"/>
<path d="M40.163 26.6562C39.7972 26.6562 39.4316 27.0218 39.4316 27.62C39.4316 28.1187 39.6643 28.584 40.163 28.584C40.5285 28.584 40.8941 28.2185 40.8941 27.62C40.7943 27.1216 40.5285 26.6562 40.163 26.6562Z" fill="#A0AEC0"/>
<path d="M14.4027 36.1285C14.2698 35.9956 14.1701 35.9956 14.0371 36.1285C13.9041 36.1285 13.8045 36.1285 13.6715 36.1285C13.4388 36.1285 13.1729 35.9956 13.0732 35.7629C12.9735 35.5302 12.9403 35.1647 13.0732 34.6662L13.2062 34.4336C13.5718 33.7022 14.0703 32.6056 13.4388 31.5087C12.9403 30.6444 12.342 30.1791 11.4779 30.0462C10.6137 29.9133 9.78279 30.2789 9.28423 30.9104C8.42007 31.8742 8.32035 33.104 8.42007 33.5693C8.42007 33.7022 8.55302 33.802 8.65273 33.802C8.78567 33.802 9.01834 33.6691 9.15127 33.3033V33.1704C9.15127 32.9378 9.28423 32.672 9.51688 32.3062C9.74954 31.9407 10.1151 31.708 10.4808 31.708C10.8464 31.5751 11.3449 31.708 11.7105 31.9407C12.3088 32.3062 12.5747 33.0376 12.3088 33.7687C11.9432 34.1345 11.8102 34.7327 11.8102 35.364C11.9432 36.4609 12.6744 36.9594 13.2726 37.0591C13.8709 37.0591 14.3695 36.6936 14.3695 36.4609C14.5024 36.2616 14.4027 36.2616 14.4027 36.1285Z" fill="#A0AEC0"/>
<path d="M49.7682 34.0681C49.7682 33.9352 49.6353 33.4699 49.4027 32.7385L48.9042 31.6419C49.7682 30.4121 49.7682 29.2154 49.6353 28.6172C49.5024 27.886 49.1369 27.1547 48.5387 26.4236C47.9402 25.6925 46.478 24.9611 44.6497 24.4627L43.6859 24.23C43.6859 24.23 43.6859 21.9034 43.553 20.9395C43.553 20.2083 43.4202 19.1115 43.0544 18.0147C42.6888 16.5522 41.9577 15.2228 40.9937 14.3586C43.4202 11.7994 45.0155 8.87452 45.0155 6.44823C45.0155 1.8283 39.2988 0.365876 32.1196 3.29073L30.6571 3.88898C30.6571 3.88898 27.9982 1.23004 27.8651 1.23004C19.9881 -5.81618 -5.17224 22.269 2.83785 29.0825L4.53293 30.545C4.03439 31.7747 3.93468 33.1041 4.03439 34.5665C4.26703 36.3946 5.26413 38.2226 6.69332 39.685C8.15574 41.0146 10.0835 41.8786 12.0445 41.8786C15.202 49.1909 22.3811 53.545 30.7569 53.8107C39.7641 54.0434 47.4084 49.7891 50.566 42.2444C50.7987 41.7457 51.6629 39.3195 51.6629 37.1259C51.8622 34.899 50.6324 34.0681 49.7682 34.0681ZM12.8089 39.7848C12.5762 39.7848 12.2106 39.9177 11.9448 39.7848C9.28579 39.6519 6.22801 37.2255 5.99536 34.3008C5.76269 31.1432 7.32482 28.7169 10.2497 28.0854C10.6153 27.9525 10.9809 27.9525 11.4794 27.9525C13.0748 28.0854 15.5011 29.2821 16.0993 32.805C16.5647 36.1288 15.8667 39.2861 12.8089 39.7848ZM9.78436 26.1578C7.95634 26.5234 6.39419 27.4871 5.39709 28.9496C4.79882 28.4509 3.70201 27.4871 3.56907 27.1216C1.97369 24.1967 5.26413 18.3803 7.59073 15.1895C13.1745 7.17943 22.0488 1.09709 26.0704 2.16067C26.8015 2.39332 28.9953 4.95257 28.9953 4.95257C28.9953 4.95257 24.874 7.27915 21.0849 10.4366C15.9664 14.2257 12.0777 19.9424 9.78436 26.1578ZM38.4677 38.555L38.6008 38.4221C38.6008 38.2893 38.4677 38.2893 38.4677 38.2893C38.4677 38.2893 34.2134 38.8875 30.1918 37.425C30.6902 35.9626 31.7871 36.461 33.5821 36.6937C36.7394 36.9263 39.6643 36.461 41.725 35.8297C43.553 35.331 45.9793 34.2343 47.8073 32.805C48.4055 34.1345 48.6715 35.7299 48.6715 35.7299C48.6715 35.7299 49.17 35.597 49.5355 35.8628C49.9013 36.0954 50.134 36.5941 50.0342 37.8239C49.6687 40.2502 48.5718 42.0782 47.0098 43.9062C46.0457 45.0031 44.6831 45.9669 43.2539 46.698C42.5226 47.0638 41.6586 47.4293 40.8277 47.662C34.2467 49.7227 27.6991 47.5289 25.6384 42.5435C25.5053 42.178 25.2726 41.8122 25.2726 41.3137C24.4086 38.0233 25.1397 34.1345 27.5993 31.7083C27.7322 31.5754 27.832 31.3427 27.832 31.1101C27.832 30.8774 27.6991 30.7443 27.5993 30.6114C26.7351 29.3816 23.8435 27.3209 24.4418 23.2993C24.8075 20.3745 27.3667 18.4467 29.66 18.5464H30.2582C31.222 18.5464 32.2191 18.7791 32.9172 18.7791C34.2467 18.7791 35.5761 18.6461 37.0385 17.4496C37.5372 17.084 37.9028 16.7184 38.6339 16.5855C38.767 16.5855 38.8666 16.4525 39.2321 16.5855C39.5979 16.5855 39.9635 16.7184 40.1961 16.9511C41.4259 17.8152 41.5255 19.61 41.6586 21.0724C41.6586 21.9366 41.7915 23.8644 41.7915 24.3629C41.9244 25.5927 42.157 25.8254 42.8884 26.058C43.2539 26.1909 43.6195 26.2907 44.1179 26.4236C45.7135 26.922 46.6773 27.2878 47.2755 27.886C47.6411 28.2516 47.7742 28.6172 47.8738 28.9829C48.1064 30.3123 46.7771 32.0074 43.4866 33.6028C39.8306 35.2979 35.5761 35.6634 32.5516 35.2979L31.4547 35.1648C29.0285 34.7992 27.6991 37.9568 29.1282 40.0175C30.092 41.3468 32.6514 42.344 35.0776 42.344C40.9272 42.344 45.4142 39.9177 47.0098 37.7241L47.1426 37.4915C47.2755 37.3586 47.1426 37.2588 47.0098 37.3586C45.6802 38.3224 39.5979 41.9784 33.1498 40.8817C33.1498 40.8817 32.4187 40.7486 31.6874 40.5159C31.0891 40.2833 29.9925 39.7848 29.7265 38.555C35.1774 40.1504 38.4677 38.555 38.4677 38.555ZM20.2207 15.2228C22.1817 12.8962 24.7077 10.8355 26.9013 9.73866C27.0342 9.73866 27.0342 9.73868 27.0342 9.87162C26.9013 10.2372 26.5358 10.8355 26.436 11.3341C26.436 11.467 26.5689 11.467 26.5689 11.467C27.8984 10.5031 30.3247 9.50601 32.4187 9.4063C32.5516 9.4063 32.5516 9.53926 32.5516 9.53926C32.186 9.7719 31.9534 10.1375 31.5878 10.5031C31.5878 10.5031 31.5878 10.6361 31.7207 10.6361C33.1832 10.6361 35.2439 11.1346 36.5732 11.9655C36.7063 11.9655 36.5732 12.1982 36.4403 12.1982C34.3796 11.6997 31.0891 11.3341 27.566 12.1982C24.4086 12.9294 22.082 14.1592 20.3869 15.3557C20.2207 15.3225 20.121 15.3225 20.2207 15.2228Z" fill="#A0AEC0"/>
</svg>
