<svg width="53" height="54" viewBox="0 0 53 54" fill="none" xmlns="http://www.w3.org/2000/svg">
<path fill-rule="evenodd" clip-rule="evenodd" d="M9.93113 9.93198C11.5711 11.2644 12.1863 11.1627 15.266 10.9572L44.2988 9.21396C44.9145 9.21396 44.4026 8.59968 44.1971 8.4976L39.3754 5.01186C38.4516 4.29457 37.2207 3.47313 34.8616 3.6786L6.749 5.72904C5.72373 5.83071 5.51897 6.34334 5.92726 6.75422L9.93113 9.93198ZM11.6742 16.6981V47.2456C11.6742 48.8873 12.4946 49.5016 14.3411 49.4001L46.2482 47.5537C48.0956 47.4523 48.3014 46.3231 48.3014 44.9893V14.6467C48.3014 13.3153 47.7892 12.5972 46.6584 12.6997L13.3151 14.6467C12.0846 14.7502 11.6742 15.3657 11.6742 16.6981ZM43.1729 18.3367C43.3773 19.2602 43.1729 20.1829 42.2475 20.2867L40.7103 20.5931V43.1452C39.3754 43.8627 38.1445 44.2729 37.119 44.2729C35.4767 44.2729 35.0654 43.7599 33.8354 42.2231L23.7794 26.4365V41.7104L26.9615 42.4285C26.9615 42.4285 26.9615 44.2729 24.3943 44.2729L17.3167 44.6833C17.1111 44.2729 17.3167 43.2487 18.0346 43.0433L19.8816 42.5314V22.3363L17.3172 22.1307C17.1115 21.2073 17.6238 19.8757 19.0612 19.7724L26.6537 19.2605L37.119 35.2528V21.1056L34.4507 20.7994C34.2458 19.6704 35.0654 18.8506 36.0915 18.7489L43.1729 18.3367ZM4.38863 2.96142L33.6301 0.807982C37.2211 0.500007 38.145 0.706326 40.402 2.34578L49.7362 8.90641C51.2765 10.0346 51.7899 10.3417 51.7899 11.5716V47.5537C51.7899 49.8088 50.9682 51.1424 48.0963 51.3467L14.1379 53.3973C11.9819 53.5001 10.9558 53.1928 9.82668 51.7567L2.9528 42.8382C1.7212 41.1965 1.20898 39.9683 1.20898 38.5314V6.54799C1.20898 4.70387 2.03073 3.16556 4.38863 2.96142Z" fill="#A0AEC0"/>
</svg>
