<svg width="241" height="40" viewBox="0 0 241 40" fill="none" xmlns="http://www.w3.org/2000/svg">
<mask id="mask0_1_259" style="mask-type:luminance" maskUnits="userSpaceOnUse" x="40" y="0" width="161" height="40">
<path d="M200.8 0H40.7422V40H200.8V0Z" fill="white"/>
</mask>
<g mask="url(#mask0_1_259)">
<path d="M45.5363 12.7408L40.7422 0L53.723 8.01422L45.5363 12.7408ZM46.112 14.2708L46.3084 14.7925L55.3755 40L70.5594 0.156098L46.112 14.2708Z" fill="#A0AEC0"/>
<path d="M83.0056 15.7479H79.726V22.4927H75.9512V3.92871H83.0056C87.461 3.92871 89.4411 6.65127 89.4411 9.83819C89.4411 13.056 87.461 15.7479 83.0056 15.7479ZM82.3869 6.62048H79.726V13.056H82.3869C84.8312 13.056 85.6975 11.6017 85.6975 9.83819C85.6975 8.10555 84.8312 6.62048 82.3869 6.62048Z" fill="#A0AEC0"/>
<path d="M91.918 22.4927V3.92871H95.6926V22.4927H91.918Z" fill="#A0AEC0"/>
<path d="M112.865 22.4927L103.15 10.2405V22.4927H99.7773V3.92871H102.407L112.123 16.181V3.92871H115.495V22.4927H112.865Z" fill="#A0AEC0"/>
<path d="M126.664 15.7479H123.384V22.4927H119.609V3.92871H126.664C131.119 3.92871 133.099 6.65127 133.099 9.83819C133.099 13.056 131.119 15.7479 126.664 15.7479ZM126.045 6.62048H123.384V13.056H126.045C128.489 13.056 129.356 11.6017 129.356 9.83819C129.356 8.10555 128.489 6.62048 126.045 6.62048Z" fill="#A0AEC0"/>
<path d="M145.26 23.0191C139.567 23.0191 135.143 18.9039 135.143 13.2109C135.143 7.51795 139.567 3.40283 145.26 3.40283C150.922 3.40283 155.285 7.51795 155.285 13.2109C155.285 18.9039 150.922 23.0191 145.26 23.0191ZM145.26 6.40418C141.547 6.40418 139.103 9.18857 139.103 13.2109C139.103 17.2333 141.547 20.0178 145.26 20.0178C148.911 20.0178 151.324 17.2334 151.324 13.211C151.324 9.18859 148.911 6.40418 145.26 6.40418Z" fill="#A0AEC0"/>
<path d="M158.504 22.4927V3.92871H162.279V22.4927H158.504Z" fill="#A0AEC0"/>
<path d="M179.451 22.4927L169.736 10.2405V22.4927H166.363V3.92871H168.993L178.708 16.181V3.92871H182.081V22.4927H179.451Z" fill="#A0AEC0"/>
<path d="M194.518 6.86793V22.4927H190.744V6.86793H184.463V3.92871H200.799V6.86793H194.518Z" fill="#A0AEC0"/>
<path d="M85.3535 38.3629V28.9971H87.216V38.3629H85.3535Z" fill="#A0AEC0"/>
<path d="M97.5197 38.3629L92.7263 32.1815V38.3629H91.0625V28.9971H92.3601L97.153 35.1785V28.9971H98.817V38.3629H97.5197Z" fill="#A0AEC0"/>
<path d="M106.783 30.48V38.3629H104.921V30.48H101.822V28.9971H109.882V30.48H106.783Z" fill="#A0AEC0"/>
<path d="M112.889 38.3629V28.9971H118.857V30.48H114.751V32.681H118.094V34.1641H114.751V36.8802H118.857V38.3631L112.889 38.3629Z" fill="#A0AEC0"/>
<path d="M130.016 38.3629H127.971L125.437 34.6322H124.292V38.3629H122.43V28.9971H126.032C128.2 28.9971 129.131 30.3083 129.131 31.8224C129.131 33.087 128.475 34.086 127.299 34.4293L130.016 38.3629ZM124.292 33.2898H125.727C126.887 33.2898 127.299 32.6654 127.299 31.838C127.299 30.9953 126.887 30.3551 125.727 30.3551H124.292V33.2898Z" fill="#A0AEC0"/>
<path d="M139.602 38.3629L138.67 36.0527H134.961L134.03 38.3629H132.229L136.121 28.9971H137.571L141.464 38.3629H139.602ZM136.823 31.3229L135.465 34.7259H138.166L136.823 31.3229Z" fill="#A0AEC0"/>
<path d="M148.302 38.566C145.661 38.566 143.387 36.7085 143.387 33.68C143.387 30.6515 145.661 28.7939 148.302 28.7939C149.508 28.7939 150.729 29.153 151.492 29.7463V31.479C150.676 30.7311 149.608 30.3186 148.5 30.3237C146.684 30.3237 145.34 31.5725 145.34 33.68C145.34 35.7719 146.684 37.0361 148.5 37.0361C149.608 37.0412 150.676 36.6287 151.492 35.881V37.6137C150.729 38.207 149.508 38.566 148.302 38.566Z" fill="#A0AEC0"/>
<path d="M159.092 30.48V38.3629H157.23V30.48H154.131V28.9971H162.191V30.48H159.092Z" fill="#A0AEC0"/>
<path d="M165.197 38.3629V28.9971H167.06V38.3629H165.197Z" fill="#A0AEC0"/>
<path d="M175.318 38.3629H173.914L170.021 28.9971H171.93L174.662 35.7251L177.364 28.9973H179.211L175.318 38.3629Z" fill="#A0AEC0"/>
<path d="M182.186 38.3629V28.9971H188.154V30.48H184.048V32.681H187.391V34.1641H184.048V36.8802H188.154V38.3631L182.186 38.3629Z" fill="#A0AEC0"/>
</g>
</svg>
