<svg width="54" height="54" viewBox="0 0 54 54" fill="none" xmlns="http://www.w3.org/2000/svg">
<mask id="mask0_1_573" style="mask-type:luminance" maskUnits="userSpaceOnUse" x="0" y="0" width="54" height="54">
<path d="M53.4512 0H0.546875V54H53.4512V0Z" fill="white"/>
</mask>
<g mask="url(#mask0_1_573)">
<path d="M36.7941 34.9403C35.0833 36.4586 32.9468 38.3478 29.0729 38.3478H26.7564C23.953 38.3478 21.4033 37.3288 19.5783 35.4819C17.7955 33.6772 16.8141 31.2073 16.8141 28.526V25.3565C16.8141 22.6753 17.7955 20.2054 19.5783 18.4007C21.4033 16.5537 23.953 15.5363 26.7564 15.5363H29.0729C32.9515 15.5363 35.0833 17.424 36.7941 18.9422C38.5706 20.5074 40.103 21.8754 44.1897 21.8754C44.813 21.8753 45.4353 21.8255 46.0508 21.7267L46.0367 21.6907C45.7919 21.0828 45.5047 20.4929 45.1774 19.9252L42.4461 15.1935C41.2144 13.0605 39.4429 11.2892 37.3098 10.0578C35.1766 8.82636 32.7568 8.17811 30.2937 8.17822H24.8296C22.3664 8.17811 19.9467 8.82636 17.8135 10.0578C15.6803 11.2892 13.9089 13.0605 12.6772 15.1935L9.94589 19.9252C8.71461 22.0584 8.06641 24.4782 8.06641 26.9413C8.06641 29.4043 8.71461 31.8241 9.94589 33.9574L12.6772 38.689C13.9089 40.8221 15.6803 42.5933 17.8135 43.8248C19.9467 45.0562 22.3664 45.7045 24.8296 45.7043H30.2937C32.7568 45.7045 35.1766 45.0562 37.3098 43.8248C39.4429 42.5933 41.2144 40.8221 42.4461 38.689L45.1774 33.9652C45.5047 33.3975 45.7919 32.8075 46.0367 32.1996L46.0508 32.1652C45.4357 32.063 44.8133 32.0107 44.1897 32.0087C40.103 32.0087 38.5706 33.3688 36.7941 34.9419" fill="#006BFF"/>
<path d="M29.0722 18.4082H26.7556C22.4889 18.4082 19.6855 21.4557 19.6855 25.3562V28.5258C19.6855 32.4263 22.4889 35.4738 26.7556 35.4738H29.0722C35.2892 35.4738 34.8008 29.1346 44.189 29.1346C45.0785 29.1337 45.9662 29.2154 46.8405 29.3788C47.1254 27.7662 47.1254 26.116 46.8405 24.5032C45.966 24.6659 45.0785 24.7476 44.189 24.7473C34.7977 24.7473 35.2892 18.4082 29.0722 18.4082Z" fill="#006BFF"/>
<path d="M52.2345 31.6956C50.6358 30.5247 48.792 29.732 46.8423 29.3775C46.8423 29.3947 46.8423 29.4088 46.8423 29.4245C46.6745 30.3589 46.4122 31.2741 46.0597 32.1558C47.6703 32.4051 49.1984 33.0345 50.5174 33.9918C50.5174 34.0043 50.5096 34.0199 50.5049 34.034C48.8071 39.5312 45.194 44.2374 40.3215 47.2972C35.4491 50.3571 29.6407 51.5676 23.9516 50.7091C18.2625 49.8507 13.0701 46.9801 9.31748 42.6186C5.5649 38.2573 3.50116 32.6947 3.50116 26.9412C3.50116 21.1877 5.5649 15.625 9.31748 11.2637C13.0701 6.90231 18.2625 4.03169 23.9516 3.17322C29.6407 2.31472 35.4491 3.52537 40.3215 6.5852C45.194 9.64503 48.8071 14.351 50.5049 19.8485C50.5049 19.8625 50.5127 19.8782 50.5174 19.8907C49.1986 20.848 47.6703 21.4769 46.0597 21.7252C46.4119 22.6079 46.6741 23.5241 46.8423 24.4596C46.8414 24.4741 46.8414 24.4887 46.8423 24.5034C48.792 24.1494 50.6356 23.3574 52.2345 22.1869C53.7715 21.049 53.4741 19.7639 53.2409 19.0032C51.3406 12.8395 47.292 7.56215 41.8311 4.13005C36.3701 0.69793 29.8589 -0.661157 23.481 0.299748C17.103 1.26065 11.2814 4.47778 7.07404 9.36653C2.86666 14.2553 0.552734 20.4911 0.552734 26.9412C0.552734 33.3912 2.86666 39.627 7.07404 44.5158C11.2814 49.4046 17.103 52.6218 23.481 53.5827C29.8589 54.5435 36.3701 53.1845 41.8311 49.7523C47.292 46.3202 51.3406 41.0428 53.2409 34.8792C53.4741 34.1185 53.7715 32.8335 52.2345 31.6956Z" fill="#006BFF"/>
<path d="M46.0511 21.7249C45.436 21.8271 44.8137 21.8794 44.1901 21.8815C40.1033 21.8815 38.571 20.5213 36.796 18.9482C35.0837 17.43 32.9518 15.5408 29.0732 15.5408H26.7567C23.9518 15.5408 21.4037 16.5597 19.5786 18.4067C17.7958 20.2114 16.8145 22.6813 16.8145 25.3625V28.5321C16.8145 31.2133 17.7958 33.6832 19.5786 35.4879C21.4037 37.3348 23.9518 38.3522 26.7567 38.3522H29.0732C32.9518 38.3522 35.0837 36.4646 36.796 34.9463C38.571 33.3811 40.1033 32.0131 44.1901 32.0131C44.8134 32.0133 45.4357 32.063 46.0511 32.1618C46.4044 31.2804 46.6666 30.3652 46.8338 29.4305C46.8347 29.4148 46.8347 29.3992 46.8338 29.3835C45.9593 29.2214 45.0716 29.1401 44.1823 29.1409C34.791 29.1409 35.2825 35.4816 29.0654 35.4816H26.7489C22.4821 35.4816 19.6788 32.4326 19.6788 28.5321V25.3562C19.6788 21.4557 22.4821 18.4082 26.7489 18.4082H29.0654C35.2825 18.4082 34.7941 24.7458 44.1823 24.7458C45.0718 24.7474 45.9594 24.6661 46.8338 24.5032C46.8338 24.4891 46.8338 24.475 46.8338 24.4594C46.6655 23.5238 46.4033 22.6077 46.0511 21.7249Z" fill="#0AE8F0"/>
<path d="M46.0511 21.7249C45.436 21.8271 44.8137 21.8794 44.1901 21.8815C40.1033 21.8815 38.571 20.5213 36.796 18.9482C35.0837 17.43 32.9518 15.5408 29.0732 15.5408H26.7567C23.9518 15.5408 21.4037 16.5597 19.5786 18.4067C17.7958 20.2114 16.8145 22.6813 16.8145 25.3625V28.5321C16.8145 31.2133 17.7958 33.6832 19.5786 35.4879C21.4037 37.3348 23.9518 38.3522 26.7567 38.3522H29.0732C32.9518 38.3522 35.0837 36.4646 36.796 34.9463C38.571 33.3811 40.1033 32.0131 44.1901 32.0131C44.8134 32.0133 45.4357 32.063 46.0511 32.1618C46.4044 31.2804 46.6666 30.3652 46.8338 29.4305C46.8347 29.4148 46.8347 29.3992 46.8338 29.3835C45.9593 29.2214 45.0716 29.1401 44.1823 29.1409C34.791 29.1409 35.2825 35.4816 29.0654 35.4816H26.7489C22.4821 35.4816 19.6788 32.4326 19.6788 28.5321V25.3562C19.6788 21.4557 22.4821 18.4082 26.7489 18.4082H29.0654C35.2825 18.4082 34.7941 24.7458 44.1823 24.7458C45.0718 24.7474 45.9594 24.6661 46.8338 24.5032C46.8338 24.4891 46.8338 24.475 46.8338 24.4594C46.6655 23.5238 46.4033 22.6077 46.0511 21.7249Z" fill="#0AE8F0"/>
</g>
</svg>
