<svg width="54" height="54" viewBox="0 0 54 54" fill="none" xmlns="http://www.w3.org/2000/svg">
<path d="M22.4764 12.1607C24.2162 10.3479 26.6384 9.22361 29.3173 9.22361C32.8783 9.22361 35.9852 11.2093 37.6396 14.1571C39.0776 13.5147 40.6689 13.1574 42.3435 13.1574C48.7662 13.1574 53.9734 18.4098 53.9734 24.8887C53.9734 31.3685 48.7662 36.6208 42.3435 36.6208C41.5597 36.6208 40.7936 36.5423 40.0527 36.3926C38.5956 38.9915 35.8192 40.7474 32.6324 40.7474C31.2984 40.7474 30.0366 40.4392 28.9131 39.8914C27.4362 43.3655 23.9949 45.8017 19.9843 45.8017C15.8077 45.8017 12.2482 43.1588 10.8819 39.4526C10.2848 39.5794 9.66615 39.6454 9.03142 39.6454C4.05869 39.6454 0.0273438 35.5727 0.0273438 30.5477C0.0273438 27.1802 1.83861 24.2401 4.52976 22.6671C3.97571 21.3922 3.66755 19.9851 3.66755 18.5059C3.66755 12.727 8.35901 8.04248 14.1455 8.04248C17.5429 8.04248 20.5622 9.65779 22.4764 12.1607Z" fill="#00A1E0"/>
<path d="M7.84032 27.6235C7.8065 27.7119 7.85261 27.7303 7.86337 27.7457C7.96481 27.8195 8.06779 27.8725 8.17153 27.9317C8.72174 28.2237 9.24122 28.309 9.78453 28.309C10.8911 28.309 11.5781 27.7203 11.5781 26.7728V26.7544C11.5781 25.8783 10.8027 25.5602 10.075 25.3304L9.98049 25.2997C9.4318 25.1214 8.95843 24.9677 8.95843 24.6065V24.5873C8.95843 24.2784 9.23508 24.0509 9.66387 24.0509C10.1403 24.0509 10.7059 24.2092 11.0702 24.4106C11.0702 24.4106 11.177 24.4797 11.2162 24.376C11.2377 24.3207 11.4221 23.8242 11.4413 23.7704C11.4621 23.712 11.4252 23.669 11.3875 23.646C10.9718 23.3931 10.397 23.2202 9.8022 23.2202L9.69155 23.221C8.67871 23.221 7.97173 23.8327 7.97173 24.7095V24.7279C7.97173 25.6524 8.75171 25.9521 9.48253 26.1611L9.6001 26.1972C10.1326 26.3609 10.5914 26.5015 10.5914 26.8766V26.895C10.5914 27.2377 10.2932 27.4929 9.81218 27.4929C9.62546 27.4929 9.0299 27.489 8.38669 27.0825C8.30908 27.0372 8.26373 27.0041 8.2038 26.968C8.17229 26.948 8.09315 26.9134 8.05855 27.018L7.84032 27.6235Z" fill="white"/>
<path d="M24.0415 27.6235C24.0077 27.7119 24.0537 27.7303 24.0645 27.7457C24.1659 27.8195 24.2689 27.8725 24.3726 27.9317C24.923 28.2237 25.4423 28.309 25.9857 28.309C27.0923 28.309 27.7793 27.7203 27.7793 26.7728V26.7544C27.7793 25.8783 27.0039 25.5602 26.2761 25.3304L26.1816 25.2997C25.633 25.1214 25.1597 24.9677 25.1597 24.6065V24.5873C25.1597 24.2784 25.4362 24.0509 25.865 24.0509C26.3415 24.0509 26.9071 24.2092 27.2713 24.4106C27.2713 24.4106 27.3781 24.4797 27.4173 24.376C27.4388 24.3207 27.6232 23.8242 27.6424 23.7704C27.6633 23.712 27.6264 23.669 27.5886 23.646C27.1728 23.3931 26.598 23.2202 26.0034 23.2202L25.8927 23.221C24.8799 23.221 24.1729 23.8327 24.1729 24.7095V24.7279C24.1729 25.6524 24.9529 25.9521 25.6836 26.1611L25.8013 26.1972C26.3337 26.3609 26.7934 26.5015 26.7934 26.8766V26.895C26.7934 27.2377 26.4945 27.4929 26.0133 27.4929C25.8266 27.4929 25.2309 27.489 24.5878 27.0825C24.5102 27.0372 24.4642 27.0057 24.4058 26.968C24.3857 26.9549 24.2921 26.9188 24.2598 27.018L24.0415 27.6235Z" fill="white"/>
<path d="M35.1004 25.7675C35.1004 26.3031 35.0004 26.725 34.8039 27.0231C34.6094 27.3182 34.3151 27.4619 33.9046 27.4619C33.4935 27.4619 33.2007 27.319 33.0094 27.0231C32.8158 26.7257 32.7175 26.3031 32.7175 25.7675C32.7175 25.2326 32.8158 24.8115 33.0094 24.5164C33.2007 24.2244 33.4935 24.0822 33.9046 24.0822C34.3151 24.0822 34.6094 24.2244 34.8045 24.5164C35.0004 24.8115 35.1004 25.2326 35.1004 25.7675ZM36.0241 24.7746C35.9334 24.468 35.7921 24.1975 35.6037 23.9723C35.4156 23.7464 35.1772 23.5651 34.8946 23.4329C34.6125 23.3015 34.2788 23.2346 33.9046 23.2346C33.5296 23.2346 33.1961 23.3015 32.9141 23.4329C32.6314 23.5651 32.393 23.7464 32.204 23.9723C32.0165 24.1983 31.8752 24.4688 31.7836 24.7746C31.6938 25.0797 31.6484 25.4132 31.6484 25.7675C31.6484 26.1217 31.6938 26.456 31.7836 26.7603C31.8752 27.0662 32.0159 27.3367 32.2049 27.5626C32.393 27.7885 32.632 27.9691 32.9141 28.0974C33.1969 28.2258 33.5296 28.2911 33.9046 28.2911C34.2788 28.2911 34.6117 28.2258 34.8946 28.0974C35.1766 27.9691 35.4156 27.7885 35.6037 27.5626C35.7921 27.3374 35.9334 27.0669 36.0241 26.7603C36.1148 26.4552 36.1602 26.1209 36.1602 25.7675C36.1602 25.414 36.1148 25.0797 36.0241 24.7746Z" fill="white"/>
<path d="M43.608 27.3192C43.5772 27.2293 43.4903 27.2631 43.4903 27.2631C43.356 27.3146 43.2129 27.3622 43.0609 27.3861C42.9065 27.4099 42.7366 27.4222 42.5544 27.4222C42.1072 27.4222 41.7522 27.2892 41.4978 27.0264C41.2426 26.7636 41.0998 26.3386 41.1013 25.7638C41.1027 25.2405 41.2289 24.8471 41.4556 24.5474C41.6807 24.2492 42.0235 24.0963 42.4806 24.0963C42.8617 24.0963 43.1522 24.1401 43.4566 24.2361C43.4566 24.2361 43.5296 24.2676 43.5642 24.1724C43.6449 23.948 43.7049 23.7874 43.7909 23.5407C43.8154 23.4708 43.7555 23.4408 43.734 23.4323C43.6142 23.3855 43.3313 23.3094 43.1178 23.2771C42.9178 23.2464 42.6843 23.2302 42.4247 23.2302C42.0365 23.2302 41.6906 23.2963 41.3949 23.4285C41.0998 23.5599 40.8492 23.7412 40.6509 23.9672C40.4526 24.1931 40.302 24.4636 40.2014 24.7695C40.1014 25.0745 40.0508 25.4096 40.0508 25.7638C40.0508 26.53 40.2575 27.1494 40.6655 27.6028C41.0745 28.0577 41.6883 28.289 42.4892 28.289C42.9626 28.289 43.4481 28.193 43.797 28.0554C43.797 28.0554 43.8639 28.0231 43.8348 27.9455L43.608 27.3192Z" fill="white"/>
<path d="M45.2255 25.2544C45.2693 24.957 45.3516 24.7095 45.4784 24.5166C45.6697 24.2239 45.9616 24.0633 46.3721 24.0633C46.7824 24.0633 47.0537 24.2246 47.2482 24.5166C47.3772 24.7095 47.4334 24.9677 47.4555 25.2544H45.2255ZM48.3355 24.6004C48.2571 24.3045 48.0626 24.0056 47.9352 23.8688C47.7337 23.6521 47.5371 23.5007 47.3418 23.4162C47.0868 23.3071 46.7809 23.2349 46.4457 23.2349C46.0555 23.2349 45.7011 23.3002 45.4138 23.4354C45.1257 23.5707 44.8835 23.7551 44.6937 23.9849C44.5039 24.2139 44.361 24.4867 44.2703 24.7964C44.1788 25.1045 44.1328 25.4403 44.1328 25.7946C44.1328 26.155 44.1805 26.4908 44.275 26.7928C44.3701 27.0972 44.5224 27.3653 44.7283 27.5874C44.9335 27.811 45.1978 27.9863 45.5145 28.1084C45.8288 28.2299 46.2108 28.2929 46.6495 28.2921C47.5523 28.289 48.0282 28.0877 48.2239 27.9793C48.2585 27.9601 48.2917 27.9263 48.2501 27.8295L48.0457 27.257C48.0151 27.1717 47.9282 27.2032 47.9282 27.2032C47.7046 27.2862 47.3865 27.4353 46.6449 27.4337C46.1599 27.433 45.8003 27.29 45.5752 27.0664C45.3438 26.8374 45.231 26.5008 45.2109 26.0259L48.3379 26.029C48.3379 26.029 48.4199 26.0274 48.4286 25.9475C48.4315 25.9137 48.5361 25.3051 48.3355 24.6004Z" fill="white"/>
<path d="M20.1826 25.2544C20.2272 24.957 20.3086 24.7095 20.4354 24.5166C20.6268 24.2239 20.9188 24.0633 21.3292 24.0633C21.7395 24.0633 22.0107 24.2246 22.206 24.5166C22.3343 24.7095 22.3904 24.9677 22.4128 25.2544H20.1826ZM23.2917 24.6004C23.2135 24.3045 23.0198 24.0056 22.8922 23.8688C22.6908 23.6521 22.4942 23.5007 22.2989 23.4162C22.0438 23.3071 21.738 23.2349 21.403 23.2349C21.0133 23.2349 20.6583 23.3002 20.3709 23.4354C20.0827 23.5707 19.8406 23.7551 19.6508 23.9849C19.461 24.2139 19.3181 24.4867 19.2274 24.7964C19.1367 25.1045 19.0898 25.4403 19.0898 25.7946C19.0898 26.155 19.1375 26.4908 19.232 26.7928C19.3273 27.0972 19.4795 27.3653 19.6854 27.5874C19.8906 27.811 20.1549 27.9863 20.4715 28.1084C20.7858 28.2299 21.1678 28.2929 21.6066 28.2921C22.5096 28.289 22.9852 28.0877 23.1812 27.9793C23.2158 27.9601 23.2487 27.9263 23.2074 27.8295L23.0036 27.257C22.9722 27.1717 22.8853 27.2032 22.8853 27.2032C22.6617 27.2862 22.3442 27.4353 21.6013 27.4337C21.117 27.433 20.7574 27.29 20.5323 27.0664C20.3009 26.8374 20.188 26.5008 20.168 26.0259L23.2949 26.029C23.2949 26.029 23.3772 26.0274 23.3856 25.9475C23.3886 25.9137 23.4932 25.3051 23.2917 24.6004Z" fill="white"/>
<path d="M13.4239 27.3018C13.3017 27.2042 13.2848 27.1796 13.2433 27.1166C13.1818 27.0206 13.1503 26.8838 13.1503 26.7101C13.1503 26.435 13.241 26.2375 13.4293 26.1045C13.427 26.1053 13.6982 25.8702 14.336 25.8786C14.7841 25.8848 15.1844 25.9509 15.1844 25.9509V27.3725H15.1852C15.1852 27.3725 14.7879 27.4578 14.3407 27.4847C13.7044 27.5231 13.4216 27.301 13.4239 27.3018ZM14.668 25.1048C14.5412 25.0956 14.3768 25.0902 14.18 25.0902C13.9119 25.0902 13.6529 25.124 13.41 25.1893C13.1657 25.2546 12.9459 25.3568 12.7569 25.4921C12.5671 25.6281 12.4141 25.8018 12.3035 26.0077C12.1928 26.2137 12.1367 26.4565 12.1367 26.7285C12.1367 27.0052 12.1843 27.2457 12.2797 27.4424C12.3749 27.6399 12.5125 27.8044 12.6877 27.9312C12.8614 28.058 13.0758 28.151 13.3248 28.2071C13.5699 28.2631 13.8481 28.2916 14.1524 28.2916C14.4728 28.2916 14.7925 28.2655 15.1022 28.2124C15.4088 28.1602 15.7854 28.0841 15.8899 28.0603C15.9936 28.0357 16.1089 28.0042 16.1089 28.0042C16.1865 27.985 16.1803 27.902 16.1803 27.902L16.1788 25.0425C16.1788 24.4155 16.0113 23.9506 15.6816 23.6624C15.3535 23.375 14.8701 23.2297 14.2454 23.2297C14.011 23.2297 13.6337 23.262 13.4077 23.3073C13.4077 23.3073 12.7246 23.4395 12.4433 23.6593C12.4433 23.6593 12.3818 23.6977 12.4157 23.7838L12.637 24.3786C12.6647 24.4554 12.7392 24.4293 12.7392 24.4293C12.7392 24.4293 12.763 24.4201 12.7907 24.4039C13.3924 24.0766 14.1532 24.0866 14.1532 24.0866C14.4913 24.0866 14.751 24.1542 14.9262 24.2887C15.0968 24.4193 15.1837 24.6168 15.1837 25.0333V25.1655C14.9147 25.1271 14.668 25.1048 14.668 25.1048Z" fill="white"/>
<path d="M39.8871 23.4936C39.9109 23.4229 39.8609 23.3891 39.8403 23.3814C39.7873 23.3607 39.5213 23.3046 39.3161 23.2915C38.9235 23.2677 38.7052 23.3338 38.5101 23.4214C38.3165 23.509 38.1013 23.6504 37.9813 23.811V23.4306C37.9813 23.3776 37.9437 23.3353 37.8914 23.3353H37.0899C37.0378 23.3353 37 23.3776 37 23.4306V28.0944C37 28.1467 37.043 28.1897 37.0953 28.1897H37.9167C37.969 28.1897 38.0112 28.1467 38.0112 28.0944V25.7644C38.0112 25.4517 38.0458 25.1397 38.115 24.9437C38.1827 24.7501 38.2749 24.5948 38.3886 24.4834C38.5031 24.3728 38.6331 24.2951 38.7753 24.2513C38.9204 24.2068 39.0811 24.1922 39.1948 24.1922C39.3585 24.1922 39.5382 24.2344 39.5382 24.2344C39.5981 24.2413 39.6321 24.2044 39.6519 24.1499C39.7057 24.007 39.858 23.5789 39.8871 23.4936Z" fill="white"/>
<path d="M32.1769 21.3324C32.077 21.3016 31.9862 21.2809 31.8679 21.2586C31.7481 21.2371 31.6051 21.2263 31.4431 21.2263C30.8774 21.2263 30.4316 21.3861 30.119 21.7012C29.8077 22.0148 29.5963 22.492 29.4904 23.1198L29.4518 23.3311H28.7418C28.7418 23.3311 28.6558 23.3281 28.6374 23.4218L28.5214 24.0727C28.513 24.1342 28.5397 24.1734 28.6226 24.1734H29.3137L28.6127 28.0864C28.5581 28.4014 28.4952 28.6604 28.4252 28.8571C28.3569 29.0508 28.29 29.196 28.2071 29.3021C28.1271 29.4035 28.0518 29.4788 27.9211 29.5227C27.8135 29.5588 27.689 29.5757 27.553 29.5757C27.4777 29.5757 27.3771 29.5634 27.3026 29.548C27.2288 29.5335 27.1895 29.5172 27.1334 29.4934C27.1334 29.4934 27.0528 29.4626 27.0206 29.5434C26.995 29.6103 26.8107 30.1167 26.7883 30.1789C26.7668 30.2412 26.7976 30.2895 26.8368 30.3042C26.929 30.3365 26.9974 30.358 27.1227 30.388C27.2965 30.4287 27.4431 30.431 27.5806 30.431C27.8681 30.431 28.1309 30.3903 28.3484 30.3118C28.5667 30.2327 28.7572 30.0952 28.9262 29.9092C29.1084 29.7079 29.223 29.4972 29.332 29.2091C29.4404 28.9248 29.5335 28.5713 29.6071 28.1594L30.3118 24.1734H31.3416C31.3416 24.1734 31.4283 24.1764 31.446 24.0819L31.5629 23.4318C31.5705 23.3695 31.5443 23.3311 31.4606 23.3311H30.461C30.4662 23.3088 30.5116 22.9569 30.6261 22.6257C30.6753 22.485 30.7675 22.3705 30.8451 22.2922C30.9221 22.2153 31.0105 22.1608 31.1073 22.1293C31.2062 22.097 31.3193 22.0816 31.4431 22.0816C31.5367 22.0816 31.6298 22.0924 31.6996 22.107C31.7964 22.1277 31.8342 22.1385 31.8595 22.1462C31.9618 22.1769 31.9755 22.1469 31.9955 22.0977L32.2345 21.4415C32.2592 21.3708 32.1985 21.3408 32.1769 21.3324Z" fill="white"/>
<path d="M18.2094 28.0947C18.2094 28.147 18.1717 28.1893 18.1195 28.1893H17.2903C17.2381 28.1893 17.2012 28.147 17.2012 28.0947V21.4214C17.2012 21.3692 17.2381 21.3269 17.2903 21.3269H18.1195C18.1717 21.3269 18.2094 21.3692 18.2094 21.4214V28.0947Z" fill="white"/>
</svg>
