<svg width="26" height="26" viewBox="0 0 26 26" fill="none" xmlns="http://www.w3.org/2000/svg">
<path d="M19.2402 16.8863C18.8193 16.8862 18.4028 16.9713 18.0157 17.1366C17.6287 17.302 17.2792 17.544 16.9883 17.8482L9.76172 13.7823C9.9017 13.2566 9.9017 12.7035 9.76172 12.1778L16.9883 8.1119C17.5145 8.65748 18.2216 8.99248 18.9771 9.05413C19.7326 9.11579 20.4846 8.89987 21.0924 8.44683C21.7001 7.9938 22.1218 7.33472 22.2785 6.59309C22.4351 5.85145 22.316 5.07813 21.9434 4.41801C21.5709 3.75789 20.9704 3.25626 20.2545 3.0071C19.5386 2.75793 18.7564 2.77833 18.0545 3.06447C17.3526 3.3506 16.7791 3.88285 16.4414 4.56149C16.1038 5.24013 16.0251 6.0186 16.2202 6.75106L8.99365 10.817C8.56198 10.3669 8.00553 10.0563 7.39586 9.92504C6.7862 9.79381 6.15122 9.84799 5.57261 10.0806C4.99399 10.3132 4.49821 10.7137 4.14904 11.2304C3.79987 11.7471 3.61328 12.3564 3.61328 12.9801C3.61328 13.6037 3.79987 14.2131 4.14904 14.7298C4.49821 15.2465 4.99399 15.6469 5.57261 15.8795C6.15122 16.1121 6.7862 16.1663 7.39586 16.0351C8.00553 15.9039 8.56198 15.5932 8.99365 15.1432L16.2202 19.2091C16.0527 19.8399 16.0868 20.5073 16.3179 21.1177C16.549 21.7281 16.9653 22.2508 17.5086 22.6125C18.0519 22.9742 18.6948 23.1568 19.3471 23.1345C19.9994 23.1122 20.6283 22.8863 21.1457 22.4884C21.663 22.0905 22.0428 21.5406 22.2317 20.9159C22.4206 20.2911 22.4092 19.6229 22.199 19.005C21.9889 18.3871 21.5905 17.8505 21.0599 17.4706C20.5292 17.0906 19.8929 16.8863 19.2402 16.8863Z" fill="white"/>
</svg>
