<svg width="54" height="54" viewBox="0 0 54 54" fill="none" xmlns="http://www.w3.org/2000/svg">
<mask id="mask0_1_532" style="mask-type:alpha" maskUnits="userSpaceOnUse" x="7" y="0" width="40" height="54">
<path d="M31.8985 0.0856934H11.0784C9.05766 0.0856934 7.4043 1.73725 7.4043 3.75582V50.244C7.4043 52.2625 9.05766 53.9142 11.0784 53.9142H42.9209C44.9417 53.9142 46.595 52.2625 46.595 50.244V14.7661L31.8985 0.0856934Z" fill="white"/>
</mask>
<g mask="url(#mask0_1_532)">
<path d="M31.8985 0.0856934H11.0784C9.05766 0.0856934 7.4043 1.73725 7.4043 3.75582V50.244C7.4043 52.2625 9.05766 53.9142 11.0784 53.9142H42.9209C44.9417 53.9142 46.595 52.2625 46.595 50.244V14.7661L38.022 8.64931L31.8985 0.0856934Z" fill="#0F9D58"/>
</g>
<mask id="mask1_1_532" style="mask-type:alpha" maskUnits="userSpaceOnUse" x="7" y="0" width="40" height="54">
<path d="M31.8985 0.0856934H11.0784C9.05766 0.0856934 7.4043 1.73725 7.4043 3.75582V50.244C7.4043 52.2625 9.05766 53.9142 11.0784 53.9142H42.9209C44.9417 53.9142 46.595 52.2625 46.595 50.244V14.7661L31.8985 0.0856934Z" fill="white"/>
</mask>
<g mask="url(#mask1_1_532)">
<path d="M17.2012 26.3879V44.1268H36.7966V26.3879H17.2012ZM25.7741 41.6801H19.6506V38.6216H25.7741V41.6801ZM25.7741 36.7866H19.6506V33.7281H25.7741V36.7866ZM25.7741 31.8931H19.6506V28.8346H25.7741V31.8931ZM34.3471 41.6801H28.2236V38.6216H34.3471V41.6801ZM34.3471 36.7866H28.2236V33.7281H34.3471V36.7866ZM34.3471 31.8931H28.2236V28.8346H34.3471V31.8931Z" fill="#F1F1F1"/>
</g>
<mask id="mask2_1_532" style="mask-type:alpha" maskUnits="userSpaceOnUse" x="7" y="0" width="40" height="54">
<path d="M31.8985 0.0856934H11.0784C9.05766 0.0856934 7.4043 1.73725 7.4043 3.75582V50.244C7.4043 52.2625 9.05766 53.9142 11.0784 53.9142H42.9209C44.9417 53.9142 46.595 52.2625 46.595 50.244V14.7661L31.8985 0.0856934Z" fill="white"/>
</mask>
<g mask="url(#mask2_1_532)">
<path d="M32.9727 13.6926L46.5945 27.2965V14.7661L32.9727 13.6926Z" fill="url(#paint0_linear_1_532)"/>
</g>
<mask id="mask3_1_532" style="mask-type:alpha" maskUnits="userSpaceOnUse" x="7" y="0" width="40" height="54">
<path d="M31.8985 0.0856934H11.0784C9.05766 0.0856934 7.4043 1.73725 7.4043 3.75582V50.244C7.4043 52.2625 9.05766 53.9142 11.0784 53.9142H42.9209C44.9417 53.9142 46.595 52.2625 46.595 50.244V14.7661L31.8985 0.0856934Z" fill="white"/>
</mask>
<g mask="url(#mask3_1_532)">
<path d="M31.8984 0.0856934V11.096C31.8984 13.1238 33.5426 14.7661 35.5726 14.7661H46.5951L31.8984 0.0856934Z" fill="#87CEAC"/>
</g>
<mask id="mask4_1_532" style="mask-type:alpha" maskUnits="userSpaceOnUse" x="7" y="0" width="40" height="54">
<path d="M31.8985 0.0856934H11.0784C9.05766 0.0856934 7.4043 1.73725 7.4043 3.75582V50.244C7.4043 52.2625 9.05766 53.9142 11.0784 53.9142H42.9209C44.9417 53.9142 46.595 52.2625 46.595 50.244V14.7661L31.8985 0.0856934Z" fill="white"/>
</mask>
<g mask="url(#mask4_1_532)">
<path d="M11.0784 0.0856934C9.05766 0.0856934 7.4043 1.73725 7.4043 3.75582V4.06165C7.4043 2.04308 9.05766 0.391537 11.0784 0.391537H31.8985V0.0856934H11.0784Z" fill="white" fill-opacity="0.2"/>
</g>
<mask id="mask5_1_532" style="mask-type:alpha" maskUnits="userSpaceOnUse" x="7" y="0" width="40" height="54">
<path d="M31.8985 0.0856934H11.0784C9.05766 0.0856934 7.4043 1.73725 7.4043 3.75582V50.244C7.4043 52.2625 9.05766 53.9142 11.0784 53.9142H42.9209C44.9417 53.9142 46.595 52.2625 46.595 50.244V14.7661L31.8985 0.0856934Z" fill="white"/>
</mask>
<g mask="url(#mask5_1_532)">
<path d="M42.9209 53.6085H11.0784C9.05766 53.6085 7.4043 51.957 7.4043 49.9385V50.2442C7.4043 52.2629 9.05766 53.9144 11.0784 53.9144H42.9209C44.9417 53.9144 46.595 52.2629 46.595 50.2442V49.9385C46.595 51.957 44.9417 53.6085 42.9209 53.6085Z" fill="#263238" fill-opacity="0.2"/>
</g>
<mask id="mask6_1_532" style="mask-type:alpha" maskUnits="userSpaceOnUse" x="7" y="0" width="40" height="54">
<path d="M31.8985 0.0856934H11.0784C9.05766 0.0856934 7.4043 1.73725 7.4043 3.75582V50.244C7.4043 52.2625 9.05766 53.9142 11.0784 53.9142H42.9209C44.9417 53.9142 46.595 52.2625 46.595 50.244V14.7661L31.8985 0.0856934Z" fill="white"/>
</mask>
<g mask="url(#mask6_1_532)">
<path d="M35.5726 14.7661C33.5426 14.7661 31.8984 13.1237 31.8984 11.0959V11.4018C31.8984 13.4295 33.5426 15.0718 35.5726 15.0718H46.5951V14.7661H35.5726Z" fill="#263238" fill-opacity="0.1"/>
</g>
<path d="M31.8985 0.0856934H11.0784C9.05766 0.0856934 7.4043 1.73725 7.4043 3.75582V50.244C7.4043 52.2625 9.05766 53.9142 11.0784 53.9142H42.9209C44.9417 53.9142 46.595 52.2625 46.595 50.244V14.7661L31.8985 0.0856934Z" fill="url(#paint1_radial_1_532)"/>
<defs>
<linearGradient id="paint0_linear_1_532" x1="39.7843" y1="14.8607" x2="39.7843" y2="27.2985" gradientUnits="userSpaceOnUse">
<stop stop-color="#263238" stop-opacity="0.2"/>
<stop offset="1" stop-color="#263238" stop-opacity="0.02"/>
</linearGradient>
<radialGradient id="paint1_radial_1_532" cx="0" cy="0" r="1" gradientUnits="userSpaceOnUse" gradientTransform="translate(8.64588 1.15564) scale(63.1944 63.1254)">
<stop stop-color="white" stop-opacity="0.1"/>
<stop offset="1" stop-color="white" stop-opacity="0"/>
</radialGradient>
</defs>
</svg>
