<svg width="54" height="54" viewBox="0 0 54 54" fill="none" xmlns="http://www.w3.org/2000/svg">
<path d="M44.8886 10.3981C44.8512 10.1254 44.6129 9.97407 44.4152 9.9576C44.219 9.94113 40.3748 9.88272 40.3748 9.88272C40.3748 9.88272 37.1597 6.76057 36.8421 6.44297C36.5246 6.12536 35.9043 6.22124 35.6631 6.29315C35.6601 6.29465 35.0594 6.48042 34.0481 6.79353C33.8788 6.24522 33.6301 5.57104 33.275 4.89389C32.1305 2.70959 30.4541 1.55453 28.4285 1.55154C28.4255 1.55154 28.424 1.55154 28.421 1.55154C28.2802 1.55154 28.1409 1.56502 28.0001 1.577C27.9402 1.50509 27.8802 1.43468 27.8173 1.36576C26.9349 0.421934 25.8038 -0.0379963 24.448 0.00245351C21.8322 0.0773607 19.227 1.96652 17.1146 5.32236C15.6284 7.68343 14.4973 10.6498 14.1767 12.9464C11.1729 13.8767 9.07254 14.5269 9.0261 14.5419C7.50998 15.0183 7.46205 15.0647 7.26429 16.494C7.11747 17.5741 3.15039 48.2502 3.15039 48.2502L36.3957 54L50.8048 50.4179C50.8048 50.4179 44.9261 10.6708 44.8886 10.3981ZM32.3837 7.30889C31.6181 7.5456 30.7476 7.81527 29.8038 8.10741C29.7844 6.78305 29.627 4.94033 29.0098 3.3478C30.9949 3.72384 31.9716 5.96956 32.3837 7.30889ZM28.0645 8.64673C26.3222 9.18603 24.421 9.77481 22.5139 10.3651C23.0502 8.31115 24.0675 6.26619 25.3169 4.92535C25.7813 4.42647 26.4315 3.87066 27.2015 3.55305C27.9251 5.06317 28.0825 7.20103 28.0645 8.64673ZM24.5004 1.74329C25.1146 1.72981 25.6315 1.86465 26.0735 2.15528C25.3664 2.52233 24.6832 3.04968 24.042 3.73732C22.3805 5.52011 21.1071 8.28718 20.5992 10.9569C19.0157 11.4467 17.4666 11.9277 16.0404 12.3682C16.9408 8.16584 20.4629 1.86015 24.5004 1.74329Z" fill="#95BF47"/>
<path d="M44.416 9.95912C44.2198 9.94265 40.3756 9.88424 40.3756 9.88424C40.3756 9.88424 37.1606 6.7621 36.843 6.4445C36.7246 6.32614 36.5643 6.26472 36.3965 6.23926L36.398 53.9985L50.8057 50.418C50.8057 50.418 44.927 10.6723 44.8895 10.3996C44.852 10.1269 44.6123 9.97559 44.416 9.95912Z" fill="#5E8E3E"/>
<path d="M28.409 17.3674L26.7356 23.6281C26.7356 23.6281 24.8689 22.7787 22.6562 22.918C19.4111 23.1233 19.3767 25.1697 19.4097 25.6836C19.5865 28.4836 26.9528 29.0949 27.3663 35.6537C27.6914 40.8133 24.6292 44.3429 20.2172 44.6216C14.9212 44.9557 12.0059 41.832 12.0059 41.832L13.128 37.059C13.128 37.059 16.0628 39.2732 18.4119 39.1249C19.946 39.0275 20.4943 37.7796 20.4388 36.8972C20.2082 33.2447 14.2096 33.4604 13.8306 27.4589C13.5115 22.4087 16.8284 17.291 24.1468 16.8296C26.9663 16.6483 28.409 17.3674 28.409 17.3674Z" fill="white"/>
</svg>
