<svg width="54" height="54" viewBox="0 0 54 54" fill="none" xmlns="http://www.w3.org/2000/svg">
<path fill-rule="evenodd" clip-rule="evenodd" d="M19.8148 0C16.8362 0.00220183 14.4256 2.41982 14.4278 5.3989C14.4256 8.37798 16.8384 10.7956 19.817 10.7978H25.2063V5.4011C25.2085 2.42202 22.7957 0.00440367 19.8148 0C19.817 0 19.817 0 19.8148 0ZM19.8148 14.4H5.44786C2.46924 14.4022 0.0563983 16.8198 0.0585998 19.799C0.0541968 22.778 2.46704 25.1956 5.44567 25.2H19.8148C22.7935 25.1978 25.2063 22.7802 25.2041 19.801C25.2063 16.8198 22.7935 14.4022 19.8148 14.4Z" fill="#36C5F0"/>
<path fill-rule="evenodd" clip-rule="evenodd" d="M53.9424 19.799C53.9446 16.8198 51.5317 14.4022 48.5531 14.4C45.5745 14.4022 43.1617 16.8198 43.1638 19.799V25.2H48.5531C51.5317 25.1978 53.9446 22.7802 53.9424 19.799ZM39.5732 19.799V5.3989C39.5754 2.42202 37.1648 0.00440367 34.1861 0C31.2075 0.00220183 28.7947 2.41982 28.7969 5.3989V19.799C28.7925 22.778 31.2053 25.1956 34.1839 25.2C37.1626 25.1978 39.5754 22.7802 39.5732 19.799Z" fill="#2EB67D"/>
<path fill-rule="evenodd" clip-rule="evenodd" d="M34.1842 53.9998C37.1628 53.9976 39.5756 51.58 39.5734 48.601C39.5756 45.6219 37.1628 43.2042 34.1842 43.202H28.7949V48.601C28.7927 51.5778 31.2055 53.9955 34.1842 53.9998ZM34.1842 39.5976H48.5534C51.5321 39.5955 53.9449 37.1778 53.9427 34.1988C53.9471 31.2197 51.5343 28.802 48.5556 28.7976H34.1864C31.2077 28.7998 28.7949 31.2175 28.7971 34.1966C28.7949 37.1778 31.2055 39.5955 34.1842 39.5976Z" fill="#ECB22E"/>
<path fill-rule="evenodd" clip-rule="evenodd" d="M0.0585953 34.199C0.0563938 37.1781 2.46924 39.5956 5.44786 39.5978C8.42649 39.5956 10.8393 37.1781 10.8371 34.199V28.8H5.44786C2.46924 28.8023 0.0563938 31.2198 0.0585953 34.199ZM14.4278 34.199V48.599C14.4234 51.5781 16.8362 53.9956 19.8148 54C22.7935 53.9978 25.2063 51.5803 25.2041 48.6012V34.2033C25.2085 31.2242 22.7956 28.8067 19.817 28.8023C16.8362 28.8023 14.4256 31.2198 14.4278 34.199Z" fill="#E01E5A"/>
</svg>
