<svg width="241" height="36" viewBox="0 0 241 36" fill="none" xmlns="http://www.w3.org/2000/svg">
<path d="M10.8403 25.8582C9.72417 25.5956 8.66291 25.1389 7.70508 24.509L9.27292 20.9918C10.0869 21.517 10.9722 21.9226 11.9017 22.1962C12.8541 22.4947 13.8459 22.649 14.844 22.6542C16.6772 22.6542 17.5937 22.1964 17.5936 21.2808C17.5918 21.0427 17.5153 20.8112 17.3748 20.6189C17.2343 20.4266 17.0369 20.2832 16.8104 20.2089C15.9944 19.888 15.1508 19.642 14.2902 19.4739C13.21 19.2541 12.1463 18.9603 11.1066 18.5946C10.2597 18.2853 9.5048 17.7673 8.91181 17.0888C8.26788 16.3041 7.94092 15.3073 7.99515 14.2942C7.98417 13.3021 8.27895 12.3307 8.83949 11.5117C9.47286 10.6285 10.348 9.94663 11.3598 9.54804C12.6672 9.03126 14.0662 8.78544 15.4717 8.8255C16.5758 8.82495 17.6763 8.95021 18.7519 9.19884C19.7508 9.41775 20.7105 9.78744 21.5979 10.2952L20.1265 13.8367C18.7003 13.0191 17.0915 12.5719 15.4475 12.536C14.7305 12.4842 14.013 12.63 13.3733 12.9576C13.1773 13.0663 13.0138 13.2251 12.8994 13.4176C12.785 13.6102 12.7238 13.8296 12.7222 14.0535C12.7281 14.2818 12.8058 14.5025 12.9443 14.6841C13.0829 14.8658 13.2751 14.9993 13.4939 15.0656C14.2986 15.3747 15.1302 15.6085 15.978 15.7642C17.0629 15.9811 18.1309 16.2749 19.174 16.6434C20.0164 16.9553 20.7698 17.468 21.3688 18.1369C22.0204 18.9131 22.3523 19.9079 22.2971 20.9195C22.3066 21.9001 22.0118 22.8595 21.4532 23.6659C20.812 24.5463 19.9338 25.227 18.9208 25.6287C17.6186 26.1514 16.2228 26.4015 14.82 26.3635C13.4772 26.3667 12.1396 26.1969 10.8403 25.8582Z" fill="#A0AEC0"/>
<path d="M30.003 25.2322C28.6081 24.5017 27.4399 23.4039 26.6248 22.0578C25.8098 20.7116 25.3789 19.1684 25.3789 17.5952C25.3789 16.022 25.8098 14.4787 26.6248 13.1326C27.4399 11.7864 28.6081 10.6886 30.003 9.95816C31.4974 9.21338 33.1445 8.82568 34.8146 8.82568C36.4847 8.82568 38.1319 9.21338 39.6262 9.95816C41.0211 10.6887 42.1893 11.7864 43.0043 13.1326C43.8193 14.4787 44.2502 16.022 44.2502 17.5952C44.2502 19.1684 43.8193 20.7116 43.0043 22.0577C42.1893 23.4039 41.0211 24.5017 39.6262 25.2322C38.1318 25.9768 36.4847 26.3644 34.8146 26.3644C33.1446 26.3644 31.4974 25.9768 30.003 25.2322ZM37.1302 21.8103C37.8237 21.4067 38.3915 20.8188 38.7703 20.112C39.1666 19.3318 39.3732 18.4693 39.3732 17.5945C39.3732 16.7196 39.1666 15.8571 38.7703 15.0769C38.3913 14.3702 37.8235 13.7822 37.1302 13.3783C36.4225 12.9834 35.6254 12.7761 34.8148 12.7761C34.0042 12.7761 33.207 12.9834 32.4994 13.3783C31.8058 13.7819 31.238 14.3699 30.8591 15.0768C30.4627 15.857 30.2562 16.7195 30.2562 17.5943C30.2562 18.4692 30.4627 19.3317 30.8591 20.1118C31.2377 20.8188 31.8055 21.4067 32.4992 21.8101C33.2069 22.2051 34.004 22.4126 34.8146 22.4126C35.6253 22.4126 36.4225 22.2053 37.1302 21.8103Z" fill="#A0AEC0"/>
<path d="M52.1678 25.243C50.7952 24.5288 49.6473 23.4489 48.8516 22.123C48.0375 20.754 47.6202 19.1861 47.6456 17.594C47.6202 16.0019 48.0375 14.4339 48.8516 13.0648C49.6473 11.7389 50.7952 10.6591 52.1678 9.94494C53.6378 9.18271 55.2748 8.7977 56.9313 8.82456C58.3639 8.80273 59.7854 9.08182 61.1031 9.64383C62.3101 10.1663 63.3702 10.9771 64.1899 12.0049L61.1516 14.7513C60.6859 14.1377 60.0841 13.6402 59.3936 13.2975C58.7031 12.9548 57.943 12.7761 57.1722 12.7756C56.3175 12.7602 55.4738 12.9678 54.7238 13.3779C54.0167 13.7714 53.4384 14.3614 53.0599 15.0764C52.6713 15.8589 52.4692 16.7204 52.4692 17.5939C52.4692 18.4673 52.6713 19.3289 53.0599 20.1114C53.4384 20.8266 54.0167 21.4165 54.7242 21.8097C55.4738 22.2199 56.3179 22.4276 57.1722 22.4122C57.943 22.4116 58.7036 22.233 59.3936 21.8903C60.0841 21.5477 60.6859 21.0502 61.1516 20.4368L64.1908 23.1836C63.3711 24.2114 62.311 25.0222 61.1036 25.5447C59.7859 26.1066 58.3644 26.3857 56.9318 26.3638C55.2753 26.3905 53.6382 26.0054 52.1678 25.243Z" fill="#A0AEC0"/>
<path d="M68.1211 9.16162H72.8966V26.0258H68.1211V9.16162Z" fill="#A0AEC0"/>
<path d="M89.4171 22.7494H82.2781L80.9521 26.0258H76.0801L83.5325 9.16162H88.2356L95.7125 26.0258H90.744L89.4171 22.7494ZM88.0187 19.2318L85.8481 13.8354L83.677 19.2318H88.0187Z" fill="#A0AEC0"/>
<path d="M98.8711 9.16162H103.646V22.2432H111.702V26.0265H98.8711V9.16162Z" fill="#A0AEC0"/>
<path d="M120.105 22.4082H118.238V26.3638H120.105V22.4082Z" fill="#A0AEC0"/>
<path d="M132.996 22.4082H131.154V26.3638H132.996V22.4082Z" fill="#A0AEC0"/>
<path d="M131.154 14.1982V16.5863H120.105V14.1982H118.238V21.4251H120.105V18.2248H131.154V21.4251H132.997V14.1982H131.154Z" fill="#A0AEC0"/>
<path d="M120.818 8.72412H118.951V13.2151H120.818V8.72412Z" fill="#A0AEC0"/>
<path d="M133.709 8.72412H131.867V13.2151H133.709V8.72412Z" fill="#A0AEC0"/>
<path d="M165.015 11.1936C166.18 10.5494 167.493 10.2192 168.825 10.2356C169.792 10.2065 170.755 10.3774 171.654 10.7374C172.552 11.0973 173.367 11.6388 174.046 12.3277L175.232 11.1429C174.449 10.297 173.483 9.64194 172.407 9.22812C171.248 8.78232 170.016 8.55995 168.774 8.57274C167.12 8.54948 165.488 8.94848 164.031 9.73194C162.649 10.4752 161.5 11.5875 160.714 12.9448C160.663 13.0321 160.629 13.126 160.58 13.215H162.734C163.337 12.3825 164.115 11.6924 165.015 11.1936Z" fill="#A0AEC0"/>
<path d="M160.645 17.5444C160.636 16.3829 160.903 15.2359 161.426 14.1982H159.412C159.003 15.2663 158.797 16.401 158.803 17.5444C158.794 18.8842 159.082 20.2095 159.646 21.4252H161.719C161.687 21.373 161.648 21.3271 161.616 21.2737C160.962 20.1407 160.626 18.8522 160.645 17.5444Z" fill="#A0AEC0"/>
<path d="M163.306 25.3559C164.757 26.1402 166.386 26.5393 168.036 26.515C169.283 26.5269 170.52 26.3 171.681 25.8466C172.762 25.4273 173.732 24.768 174.52 23.9186L173.334 22.7344C172.66 23.4324 171.847 23.9814 170.947 24.346C170.048 24.7106 169.082 24.8826 168.112 24.8509C166.78 24.8675 165.468 24.5375 164.302 23.8936C163.608 23.5049 162.985 23.0024 162.458 22.4072H160.18C160.951 23.6419 162.028 24.6574 163.306 25.3559Z" fill="#A0AEC0"/>
<path d="M182.263 22.4082H180.396V26.3638H182.263V22.4082Z" fill="#A0AEC0"/>
<path d="M195.49 8.72461H193.346L188.979 13.2149H191.193L195.49 8.72461Z" fill="#A0AEC0"/>
<path d="M189.54 14.1982H187.309L182.265 19.384V14.1982H180.398V21.4251H182.563L185.872 18.0741L188.789 21.4251H191.125L187.133 16.7129L189.54 14.1982Z" fill="#A0AEC0"/>
<path d="M182.976 8.72412H181.109V13.2151H182.976V8.72412Z" fill="#A0AEC0"/>
<path d="M193.086 26.3627H195.306L191.957 22.4072H189.645L193.086 26.3627Z" fill="#A0AEC0"/>
<path d="M212.284 26.3627H214.327L211.506 22.4072H209.467L212.284 26.3627Z" fill="#A0AEC0"/>
<path d="M202.806 10.3369H207.499C208.929 10.2406 210.347 10.6462 211.51 11.4836C212.057 11.9353 212.461 12.5372 212.67 13.2151H214.59C214.346 12.0886 213.733 11.0756 212.847 10.3369C211.33 9.18461 209.451 8.61253 207.549 8.72418H200.939V13.2151H202.806V10.3369Z" fill="#A0AEC0"/>
<path d="M213.003 18.2631C213.723 17.2443 214.09 16.0192 214.05 14.7731C214.05 14.5764 214.039 14.3867 214.025 14.1988H212.154C212.172 14.3837 212.183 14.5749 212.183 14.7731C212.216 15.3849 212.108 15.9962 211.867 16.5597C211.626 17.1232 211.259 17.6241 210.795 18.0237C209.636 18.8695 208.216 19.28 206.784 19.1829H202.092V14.1982H200.225V21.4252H202.092V20.7699H206.834C207.306 20.7709 207.778 20.7456 208.247 20.6942L208.767 21.4252H210.804L210.012 20.3158C211.203 19.9686 212.252 19.2492 213.003 18.2631Z" fill="#A0AEC0"/>
<path d="M202.093 22.4082H200.227V26.3638H202.093V22.4082Z" fill="#A0AEC0"/>
<path d="M222.824 11.0549C223.861 10.3878 225.087 10.0742 226.317 10.1609C227.155 10.1653 227.987 10.2882 228.79 10.5261C229.631 10.7696 230.431 11.1388 231.161 11.6213L231.792 10.1353C231.023 9.61896 230.175 9.23164 229.281 8.98859C228.318 8.71158 227.32 8.57155 226.317 8.57256C225.074 8.5343 223.836 8.75759 222.685 9.22795C221.805 9.58605 221.05 10.1951 220.515 10.9791C220.085 11.6476 219.846 12.4204 219.822 13.2145H221.667C221.681 12.79 221.793 12.3745 221.993 12C222.194 11.6256 222.478 11.3022 222.824 11.0549Z" fill="#A0AEC0"/>
<path d="M219.941 16.0069C220.493 16.6378 221.19 17.1263 221.971 17.431C223.01 17.8185 224.072 18.1424 225.15 18.4009C226.029 18.6031 226.896 18.8513 227.748 19.1447C228.338 19.3513 228.875 19.682 229.325 20.1146C229.675 20.4674 229.892 20.9306 229.937 21.4252H231.791C231.791 20.5941 231.503 19.7886 230.977 19.1447C230.425 18.5164 229.728 18.0319 228.946 17.733C227.92 17.3533 226.871 17.0377 225.805 16.7882C224.712 16.5196 223.842 16.2719 223.195 16.0451C222.589 15.844 222.037 15.5079 221.58 15.062C221.341 14.8201 221.165 14.5236 221.066 14.1982H219.15C219.229 14.8658 219.504 15.4951 219.941 16.0069Z" fill="#A0AEC0"/>
<path d="M228.782 24.0575C227.716 24.7108 226.473 25.0148 225.225 24.9271C224.106 24.9283 222.995 24.7277 221.946 24.335C220.995 24.0073 220.126 23.4785 219.398 22.7847L218.666 24.2213C219.45 24.9882 220.406 25.5582 221.454 25.8841C222.666 26.306 223.941 26.5192 225.225 26.5144C226.476 26.5503 227.72 26.3315 228.884 25.8716C229.775 25.523 230.543 24.9179 231.091 24.1329C231.434 23.6124 231.66 23.0236 231.753 22.4072H229.9C229.75 23.0788 229.351 23.6685 228.782 24.0575Z" fill="#A0AEC0"/>
<path d="M132.996 13.2148H131.154V14.1978H132.996V13.2148Z" fill="#A0AEC0"/>
<path d="M120.105 13.2148H118.238V14.1978H120.105V13.2148Z" fill="#A0AEC0"/>
<path d="M160.713 14.1981C160.778 14.0701 160.831 13.9385 160.904 13.8141C161.028 13.6076 161.163 13.4076 161.308 13.2148H159.155C158.983 13.5326 158.83 13.861 158.699 14.1978L160.713 14.1981Z" fill="#A0AEC0"/>
<path d="M188.825 14.1976L189.765 13.2148H187.551L186.594 14.1976H188.825Z" fill="#A0AEC0"/>
<path d="M181.551 13.2148H179.684V14.1978H181.551V13.2148Z" fill="#A0AEC0"/>
<path d="M211.44 14.1978H213.311C213.286 13.8669 213.236 13.5382 213.162 13.2148H211.242C211.343 13.5345 211.409 13.864 211.44 14.1978Z" fill="#A0AEC0"/>
<path d="M201.379 13.2148H199.512V14.1978H201.379V13.2148Z" fill="#A0AEC0"/>
<path d="M218.436 14.1978H220.352C220.265 13.9271 220.222 13.6446 220.222 13.3605C220.222 13.3096 220.237 13.2646 220.239 13.2148H218.394C218.391 13.281 218.381 13.3443 218.381 13.4113C218.38 13.6744 218.398 13.9373 218.436 14.1978Z" fill="#A0AEC0"/>
<path d="M120.818 21.4253H118.951V22.4083H120.818V21.4253Z" fill="#A0AEC0"/>
<path d="M133.709 21.4253H131.867V22.4083H133.709V21.4253Z" fill="#A0AEC0"/>
<path d="M160.357 21.4253C160.47 21.6671 160.578 21.911 160.714 22.1436C160.768 22.2369 160.835 22.3178 160.892 22.4084H163.17C162.895 22.1031 162.648 21.7741 162.43 21.4253H160.357Z" fill="#A0AEC0"/>
<path d="M183.276 21.4248H181.111V22.4076H182.978V21.7278L183.276 21.4248Z" fill="#A0AEC0"/>
<path d="M189.502 21.4248L190.358 22.4076H192.67L191.837 21.4248H189.502Z" fill="#A0AEC0"/>
<path d="M202.806 21.4253H200.939V22.4083H202.806V21.4253Z" fill="#A0AEC0"/>
<path d="M209.482 21.4248L210.181 22.4076H212.22L211.518 21.4248H209.482Z" fill="#A0AEC0"/>
<path d="M232.504 21.4253H230.651C230.669 21.5506 230.679 21.6768 230.681 21.8034C230.68 22.0069 230.657 22.2097 230.613 22.4084H232.466C232.503 22.1749 232.522 21.9388 232.523 21.7024C232.523 21.6057 232.509 21.5192 232.504 21.4253Z" fill="#A0AEC0"/>
<path d="M118.845 22.4082H116.979V26.3638H118.845V22.4082Z" fill="#A0AEC0"/>
<path d="M131.737 22.4082H129.895V26.3638H131.737V22.4082Z" fill="#A0AEC0"/>
<path d="M129.895 14.1982V16.5863H118.845V14.1982H116.979V21.4251H118.845V18.2248H129.895V21.4251H131.737V14.1982H129.895Z" fill="#A0AEC0"/>
<path d="M119.558 8.72412H117.691V13.2151H119.558V8.72412Z" fill="#A0AEC0"/>
<path d="M132.451 8.72412H130.609V13.2151H132.451V8.72412Z" fill="#A0AEC0"/>
<path d="M163.757 11.1936C164.922 10.5494 166.235 10.2192 167.566 10.2356C168.534 10.2065 169.497 10.3774 170.395 10.7374C171.294 11.0973 172.109 11.6388 172.788 12.3277L173.974 11.1429C173.191 10.297 172.225 9.64194 171.148 9.22812C169.99 8.78232 168.757 8.55995 167.516 8.57274C165.862 8.54948 164.229 8.94848 162.773 9.73189C161.39 10.4752 160.242 11.5875 159.456 12.9448C159.405 13.0321 159.37 13.126 159.322 13.215H161.475C162.079 12.3825 162.857 11.6924 163.757 11.1936Z" fill="#A0AEC0"/>
<path d="M159.385 17.5444C159.376 16.3829 159.644 15.2359 160.166 14.1982H158.152C157.743 15.2663 157.537 16.401 157.543 17.5444C157.534 18.8842 157.822 20.2095 158.386 21.4252H160.459C160.426 21.373 160.388 21.3271 160.356 21.2737C159.702 20.1407 159.367 18.8522 159.385 17.5444Z" fill="#A0AEC0"/>
<path d="M162.048 25.3559C163.5 26.1402 165.129 26.5393 166.779 26.515C168.025 26.5269 169.263 26.3 170.424 25.8466C171.504 25.4273 172.474 24.7679 173.262 23.9186L172.076 22.7344C171.402 23.4324 170.589 23.9814 169.69 24.346C168.79 24.7106 167.824 24.8826 166.854 24.8509C165.523 24.8675 164.21 24.5375 163.045 23.8936C162.351 23.5049 161.728 23.0024 161.2 22.4072H158.922C159.694 23.6419 160.77 24.6574 162.048 25.3559Z" fill="#A0AEC0"/>
<path d="M181.005 22.4082H179.139V26.3638H181.005V22.4082Z" fill="#A0AEC0"/>
<path d="M194.23 8.72461H192.085L187.719 13.2149H189.933L194.23 8.72461Z" fill="#A0AEC0"/>
<path d="M188.28 14.1982H186.049L181.005 19.384V14.1982H179.139V21.4251H181.303L184.612 18.0741L187.529 21.4251H189.865L185.874 16.7129L188.28 14.1982Z" fill="#A0AEC0"/>
<path d="M181.718 8.72412H179.852V13.2151H181.718V8.72412Z" fill="#A0AEC0"/>
<path d="M191.826 26.3627H194.046L190.697 22.4072H188.385L191.826 26.3627Z" fill="#A0AEC0"/>
<path d="M211.025 26.3627H213.069L210.248 22.4072H208.209L211.025 26.3627Z" fill="#A0AEC0"/>
<path d="M201.547 10.3369H206.239C207.669 10.2406 209.087 10.6462 210.25 11.4836C210.797 11.9352 211.201 12.5372 211.41 13.2152H213.33C213.086 12.0886 212.473 11.0756 211.587 10.3369C210.07 9.18461 208.191 8.61253 206.289 8.72418H199.68V13.2152H201.547V10.3369Z" fill="#A0AEC0"/>
<path d="M211.745 18.2631C212.464 17.2443 212.831 16.0191 212.792 14.7731C212.792 14.5764 212.781 14.3867 212.767 14.1988H210.896C210.914 14.3837 210.925 14.5749 210.925 14.7731C210.958 15.3849 210.85 15.9962 210.609 16.5597C210.368 17.1232 210.001 17.6241 209.536 18.0237C208.378 18.8695 206.958 19.28 205.526 19.1829H200.833V14.1982H198.967V21.4252H200.833V20.7699H205.576C206.048 20.7709 206.519 20.7456 206.989 20.6942L207.509 21.4252H209.545L208.755 20.3158C209.945 19.9684 210.994 19.249 211.745 18.2631Z" fill="#A0AEC0"/>
<path d="M200.834 22.4082H198.967V26.3638H200.834V22.4082Z" fill="#A0AEC0"/>
<path d="M221.564 11.0549C222.601 10.3878 223.827 10.0741 225.058 10.1609C225.895 10.1653 226.728 10.2882 227.53 10.5261C228.371 10.7696 229.17 11.1388 229.901 11.6213L230.532 10.1353C229.764 9.61901 228.916 9.23168 228.022 8.98859C227.058 8.71158 226.061 8.57155 225.058 8.57256C223.814 8.5343 222.576 8.75759 221.425 9.22795C220.545 9.58605 219.791 10.1951 219.256 10.9791C218.826 11.6476 218.586 12.4203 218.562 13.2144H220.407C220.421 12.79 220.533 12.3745 220.734 12C220.934 11.6256 221.218 11.3022 221.564 11.0549Z" fill="#A0AEC0"/>
<path d="M218.681 16.0069C219.233 16.6377 219.93 17.1262 220.712 17.431C221.75 17.8185 222.812 18.1424 223.89 18.4009C224.768 18.603 225.636 18.8513 226.489 19.1447C227.078 19.3513 227.616 19.682 228.066 20.1146C228.416 20.4674 228.632 20.9306 228.678 21.4252H230.531C230.531 20.5941 230.243 19.7886 229.718 19.1447C229.165 18.5164 228.468 18.0319 227.686 17.733C226.66 17.3533 225.611 17.0377 224.546 16.7882C223.452 16.5196 222.582 16.2719 221.935 16.0451C221.329 15.844 220.777 15.5079 220.321 15.062C220.082 14.82 219.905 14.5236 219.806 14.1982H217.891C217.97 14.8659 218.245 15.4951 218.681 16.0069Z" fill="#A0AEC0"/>
<path d="M227.525 24.0575C226.459 24.7108 225.215 25.0148 223.968 24.9271C222.848 24.9283 221.737 24.7277 220.688 24.335C219.737 24.0073 218.868 23.4785 218.14 22.7847L217.408 24.2213C218.193 24.9883 219.148 25.5582 220.196 25.8841C221.408 26.306 222.684 26.5192 223.968 26.5144C225.218 26.5503 226.463 26.3315 227.626 25.8716C228.517 25.5231 229.285 24.9179 229.833 24.1329C230.176 23.6124 230.402 23.0236 230.495 22.4072H228.642C228.492 23.0788 228.093 23.6685 227.525 24.0575Z" fill="#A0AEC0"/>
<path d="M131.737 13.2148H129.895V14.1978H131.737V13.2148Z" fill="#A0AEC0"/>
<path d="M118.845 13.2148H116.979V14.1978H118.845V13.2148Z" fill="#A0AEC0"/>
<path d="M159.453 14.1981C159.517 14.0701 159.571 13.9385 159.643 13.8141C159.768 13.6076 159.903 13.4076 160.048 13.2148H157.895C157.722 13.5326 157.571 13.8609 157.439 14.1978L159.453 14.1981Z" fill="#A0AEC0"/>
<path d="M187.567 14.1976L188.509 13.2148H186.293L185.336 14.1976H187.567Z" fill="#A0AEC0"/>
<path d="M180.293 13.2148H178.426V14.1978H180.293V13.2148Z" fill="#A0AEC0"/>
<path d="M210.183 14.1978H212.054C212.029 13.8669 211.979 13.5382 211.905 13.2148H209.984C210.086 13.5345 210.152 13.864 210.183 14.1978Z" fill="#A0AEC0"/>
<path d="M200.12 13.2148H198.254V14.1978H200.12V13.2148Z" fill="#A0AEC0"/>
<path d="M217.178 14.1978H219.094C219.008 13.9271 218.964 13.6446 218.965 13.3605C218.965 13.3096 218.978 13.2646 218.98 13.2148H217.136C217.134 13.281 217.123 13.3443 217.123 13.4113C217.122 13.6744 217.141 13.9373 217.178 14.1978Z" fill="#A0AEC0"/>
<path d="M119.558 21.4253H117.691V22.4083H119.558V21.4253Z" fill="#A0AEC0"/>
<path d="M132.451 21.4253H130.609V22.4083H132.451V21.4253Z" fill="#A0AEC0"/>
<path d="M159.1 21.4253C159.212 21.6671 159.32 21.911 159.455 22.1436C159.51 22.2369 159.577 22.3178 159.635 22.4084H161.913C161.638 22.1031 161.39 21.7741 161.172 21.4253H159.1Z" fill="#A0AEC0"/>
<path d="M182.016 21.4248H179.852V22.4076H181.718V21.7278L182.016 21.4248Z" fill="#A0AEC0"/>
<path d="M188.242 21.4248L189.098 22.4076H191.411L190.578 21.4248H188.242Z" fill="#A0AEC0"/>
<path d="M201.546 21.4253H199.68V22.4083H201.546V21.4253Z" fill="#A0AEC0"/>
<path d="M208.223 21.4248L208.922 22.4076H210.961L210.259 21.4248H208.223Z" fill="#A0AEC0"/>
<path d="M231.246 21.4253H229.393C229.411 21.5506 229.421 21.6768 229.423 21.8034C229.422 22.0069 229.399 22.2097 229.355 22.4084H231.209C231.245 22.1749 231.264 21.9388 231.265 21.7024C231.265 21.6057 231.251 21.5192 231.246 21.4253Z" fill="#A0AEC0"/>
<path d="M119.392 22.4082H117.525V26.3638H119.392V22.4082Z" fill="#A0AEC0"/>
<path d="M132.283 22.4082H130.441V26.3638H132.283V22.4082Z" fill="#A0AEC0"/>
<path d="M130.441 14.1982V16.5863H119.39V14.1982H117.523V21.4251H119.39V18.2248H130.441V21.4251H132.282V14.1982H130.441Z" fill="#A0AEC0"/>
<path d="M120.105 8.72412H118.238V13.2151H120.105V8.72412Z" fill="#A0AEC0"/>
<path d="M132.996 8.72412H131.154V13.2151H132.996V8.72412Z" fill="#A0AEC0"/>
<path d="M164.302 11.1936C165.467 10.5494 166.78 10.2192 168.111 10.2356C169.079 10.2065 170.042 10.3774 170.941 10.7374C171.839 11.0973 172.654 11.6388 173.333 12.3277L174.519 11.1429C173.736 10.297 172.77 9.64194 171.694 9.22812C170.535 8.78232 169.302 8.55995 168.061 8.57274C166.407 8.54948 164.774 8.94848 163.318 9.73194C161.935 10.4752 160.787 11.5875 160.001 12.9448C159.95 13.0321 159.915 13.126 159.867 13.215H162.02C162.623 12.3825 163.403 11.6924 164.302 11.1936Z" fill="#A0AEC0"/>
<path d="M159.932 17.5444C159.922 16.3829 160.191 15.2359 160.713 14.1982H158.699C158.29 15.2663 158.084 16.401 158.09 17.5444C158.081 18.8842 158.369 20.2095 158.933 21.4252H161.006C160.973 21.373 160.935 21.3271 160.903 21.2737C160.249 20.1407 159.913 18.8522 159.932 17.5444Z" fill="#A0AEC0"/>
<path d="M162.593 25.3559C164.045 26.1402 165.674 26.5393 167.324 26.515C168.57 26.5269 169.808 26.3 170.969 25.8466C172.049 25.4273 173.019 24.768 173.807 23.9186L172.621 22.7344C171.947 23.4324 171.134 23.9814 170.234 24.346C169.335 24.7106 168.369 24.8826 167.399 24.8509C166.067 24.8675 164.755 24.5375 163.59 23.8936C162.896 23.5049 162.272 23.0024 161.745 22.4072H159.467C160.238 23.6419 161.315 24.6574 162.593 25.3559Z" fill="#A0AEC0"/>
<path d="M181.551 22.4082H179.684V26.3638H181.551V22.4082Z" fill="#A0AEC0"/>
<path d="M194.775 8.72461H192.631L188.264 13.2149H190.478L194.775 8.72461Z" fill="#A0AEC0"/>
<path d="M188.825 14.1982H186.594L181.551 19.384V14.1982H179.684V21.4251H181.848L185.157 18.0741L188.075 21.4251H190.41L186.419 16.7129L188.825 14.1982Z" fill="#A0AEC0"/>
<path d="M182.263 8.72412H180.396V13.2151H182.263V8.72412Z" fill="#A0AEC0"/>
<path d="M192.373 26.3627H194.593L191.242 22.4072H188.93L192.373 26.3627Z" fill="#A0AEC0"/>
<path d="M211.57 26.3627H213.613L210.793 22.4072H208.754L211.57 26.3627Z" fill="#A0AEC0"/>
<path d="M202.093 10.337H206.785C208.215 10.2406 209.634 10.6462 210.796 11.4837C211.344 11.9353 211.747 12.5372 211.957 13.2152H213.877C213.633 12.0886 213.019 11.0757 212.134 10.337C210.617 9.18469 208.738 8.61257 206.836 8.72417H200.227V13.2152H202.093V10.337Z" fill="#A0AEC0"/>
<path d="M212.29 18.2631C213.009 17.2443 213.377 16.0192 213.337 14.7731C213.337 14.5764 213.326 14.3867 213.312 14.1988H211.441C211.459 14.3837 211.47 14.5749 211.47 14.7731C211.503 15.3849 211.395 15.9962 211.154 16.5597C210.914 17.1232 210.547 17.6241 210.081 18.0237C208.923 18.8695 207.503 19.28 206.071 19.1829H201.379V14.1982H199.512V21.4252H201.379V20.7699H206.121C206.593 20.7709 207.065 20.7456 207.534 20.6942L208.054 21.4252H210.09L209.299 20.3158C210.49 19.9686 211.538 19.2492 212.29 18.2631Z" fill="#A0AEC0"/>
<path d="M201.379 22.4082H199.512V26.3638H201.379V22.4082Z" fill="#A0AEC0"/>
<path d="M222.109 11.0549C223.146 10.3878 224.372 10.0742 225.603 10.1609C226.44 10.1653 227.272 10.2882 228.076 10.5261C228.916 10.7696 229.716 11.1388 230.446 11.6213L231.077 10.1353C230.309 9.61896 229.461 9.23164 228.567 8.98859C227.603 8.71158 226.606 8.57155 225.603 8.57256C224.359 8.5343 223.122 8.75759 221.97 9.22795C221.091 9.58605 220.336 10.1951 219.801 10.9791C219.371 11.6476 219.131 12.4204 219.107 13.2145H220.952C220.966 12.79 221.078 12.3745 221.278 12C221.479 11.6256 221.763 11.3022 222.109 11.0549Z" fill="#A0AEC0"/>
<path d="M219.227 16.0069C219.779 16.6378 220.476 17.1263 221.258 17.431C222.296 17.8185 223.358 18.1424 224.436 18.4009C225.315 18.6031 226.182 18.8513 227.035 19.1447C227.624 19.3513 228.162 19.682 228.612 20.1146C228.961 20.4674 229.178 20.9306 229.224 21.4252H231.078C231.078 20.5941 230.79 19.7886 230.264 19.1447C229.712 18.5164 229.015 18.0319 228.233 17.733C227.207 17.3533 226.158 17.0378 225.092 16.7882C223.999 16.5196 223.129 16.2719 222.482 16.0451C221.876 15.844 221.324 15.5079 220.867 15.062C220.628 14.8201 220.452 14.5236 220.353 14.1982H218.438C218.516 14.8657 218.791 15.495 219.227 16.0069Z" fill="#A0AEC0"/>
<path d="M228.07 24.0575C227.003 24.7108 225.76 25.0148 224.512 24.9271C223.392 24.9283 222.281 24.7277 221.233 24.335C220.282 24.0073 219.413 23.4785 218.685 22.7847L217.953 24.2213C218.737 24.9882 219.693 25.5582 220.74 25.8841C221.953 26.306 223.228 26.5192 224.512 26.5144C225.763 26.5503 227.007 26.3315 228.17 25.8716C229.062 25.523 229.83 24.9179 230.377 24.1329C230.721 23.6123 230.947 23.0236 231.04 22.4072H229.186C229.036 23.0787 228.637 23.6685 228.07 24.0575Z" fill="#A0AEC0"/>
<path d="M132.283 13.2148H130.441V14.1978H132.283V13.2148Z" fill="#A0AEC0"/>
<path d="M119.392 13.2148H117.525V14.1978H119.392V13.2148Z" fill="#A0AEC0"/>
<path d="M160 14.1981C160.064 14.0701 160.118 13.9385 160.19 13.8141C160.315 13.6076 160.45 13.4076 160.595 13.2148H158.442C158.27 13.5326 158.117 13.861 157.986 14.1978L160 14.1981Z" fill="#A0AEC0"/>
<path d="M188.112 14.1976L189.053 13.2148H186.838L185.881 14.1976H188.112Z" fill="#A0AEC0"/>
<path d="M180.838 13.2148H178.971V14.1978H180.838V13.2148Z" fill="#A0AEC0"/>
<path d="M210.728 14.1978H212.598C212.574 13.8669 212.524 13.5382 212.449 13.2148H210.529C210.63 13.5345 210.697 13.864 210.728 14.1978Z" fill="#A0AEC0"/>
<path d="M200.665 13.2148H198.799V14.1978H200.665V13.2148Z" fill="#A0AEC0"/>
<path d="M217.723 14.1978H219.639C219.552 13.9271 219.509 13.6446 219.51 13.3605C219.51 13.3096 219.524 13.2646 219.525 13.2148H217.681C217.679 13.281 217.668 13.3443 217.668 13.4113C217.667 13.6744 217.686 13.9373 217.723 14.1978Z" fill="#A0AEC0"/>
<path d="M120.105 21.4253H118.238V22.4083H120.105V21.4253Z" fill="#A0AEC0"/>
<path d="M132.996 21.4253H131.154V22.4083H132.996V21.4253Z" fill="#A0AEC0"/>
<path d="M159.646 21.4253C159.759 21.6671 159.867 21.911 160.002 22.1436C160.057 22.2369 160.124 22.3178 160.181 22.4084H162.46C162.184 22.1031 161.937 21.7741 161.719 21.4253H159.646Z" fill="#A0AEC0"/>
<path d="M182.563 21.4248H180.398V22.4076H182.265V21.7278L182.563 21.4248Z" fill="#A0AEC0"/>
<path d="M188.787 21.4248L189.643 22.4076H191.956L191.122 21.4248H188.787Z" fill="#A0AEC0"/>
<path d="M202.093 21.4253H200.227V22.4083H202.093V21.4253Z" fill="#A0AEC0"/>
<path d="M208.768 21.4248L209.467 22.4076H211.506L210.804 21.4248H208.768Z" fill="#A0AEC0"/>
<path d="M231.791 21.4253H229.938C229.956 21.5506 229.966 21.6768 229.968 21.8034C229.967 22.0069 229.944 22.2097 229.9 22.4084H231.753C231.79 22.1749 231.809 21.9388 231.81 21.7024C231.81 21.6057 231.795 21.5192 231.791 21.4253Z" fill="#A0AEC0"/>
<path d="M146.544 26.7314L149.353 25.4754L149.076 24.7686H145.779L146.544 26.7314Z" fill="#A0AEC0"/>
<path d="M145.93 13.1123H140.764L140.492 18.2042H151.119L145.93 13.1123Z" fill="#A0AEC0"/>
<path d="M141.587 8.29639L141.344 12.8464H146.226L141.587 8.29639Z" fill="#A0AEC0"/>
<path d="M144.849 22.38L145.676 24.5021H148.972L147.715 21.2649L154.631 21.6504L151.833 18.9053H140.459L140.158 24.5021H142.776L144.849 22.38Z" fill="#A0AEC0"/>
<path d="M140.147 24.7686L140.012 27.3259L142.515 24.7686H140.147Z" fill="#A0AEC0"/>
<path d="M144.525 12.8467H139.642L139.631 13.1127H144.797L144.525 12.8467Z" fill="#A0AEC0"/>
<path d="M142.209 24.502H139.592L139.58 24.7679H141.948L142.209 24.502Z" fill="#A0AEC0"/>
<path d="M145.212 24.7679H148.508L148.406 24.502H145.109L145.212 24.7679Z" fill="#A0AEC0"/>
<path d="M152.252 18.2041H141.626L141.592 18.9053H152.965L152.252 18.2041Z" fill="#A0AEC0"/>
<path d="M145.409 26.7314L148.219 25.4754L147.941 24.7686H144.645L145.409 26.7314Z" fill="#A0AEC0"/>
<path d="M144.797 13.1123H139.632L139.359 18.2042H149.986L144.797 13.1123Z" fill="#A0AEC0"/>
<path d="M140.452 8.29639L140.209 12.8464H145.091L140.452 8.29639Z" fill="#A0AEC0"/>
<path d="M143.717 22.38L144.543 24.5021H147.841L146.584 21.2649L153.5 21.6504L150.702 18.9053H139.326L139.027 24.5021H141.644L143.717 22.38Z" fill="#A0AEC0"/>
<path d="M139.016 24.7686L138.879 27.3259L141.384 24.7686H139.016Z" fill="#A0AEC0"/>
<path d="M143.394 12.8467H138.512L138.5 13.1127H143.666L143.394 12.8467Z" fill="#A0AEC0"/>
<path d="M141.076 24.502H138.458L138.447 24.7679H140.815L141.076 24.502Z" fill="#A0AEC0"/>
<path d="M144.078 24.7679H147.374L147.273 24.502H143.977L144.078 24.7679Z" fill="#A0AEC0"/>
<path d="M151.12 18.2041H140.493L140.459 18.9053H151.833L151.12 18.2041Z" fill="#A0AEC0"/>
<path d="M145.976 26.7314L148.785 25.4754L148.507 24.7686H145.211L145.976 26.7314Z" fill="#A0AEC0"/>
<path d="M145.364 13.1123H140.198L139.926 18.2042H150.552L145.364 13.1123Z" fill="#A0AEC0"/>
<path d="M141.019 8.29639L140.775 12.8464H145.658L141.019 8.29639Z" fill="#A0AEC0"/>
<path d="M144.282 22.38L145.109 24.5021H148.405L147.148 21.2649L154.066 21.6504L151.266 18.9053H139.892L139.592 24.5021H142.209L144.282 22.38Z" fill="#A0AEC0"/>
<path d="M139.581 24.7686L139.445 27.3259L141.948 24.7686H139.581Z" fill="#A0AEC0"/>
<path d="M143.96 12.8467H139.076L139.064 13.1127H144.232L143.96 12.8467Z" fill="#A0AEC0"/>
<path d="M141.645 24.502H139.027L139.016 24.7679H141.384L141.645 24.502Z" fill="#A0AEC0"/>
<path d="M144.646 24.7679H147.942L147.841 24.502H144.543L144.646 24.7679Z" fill="#A0AEC0"/>
<path d="M151.686 18.2041H141.06L141.025 18.9053H152.4L151.686 18.2041Z" fill="#A0AEC0"/>
<path d="M235.151 35.6228H5.07696C3.75208 35.6213 2.48192 35.0949 1.54514 34.1591C0.608358 33.2232 0.0814725 31.9544 0.0800781 30.631V4.99134C0.0815104 3.66801 0.608423 2.39927 1.54521 1.46352C2.48199 0.527763 3.75213 0.00143065 5.07696 0H235.151C236.476 0.00146829 237.746 0.527819 238.683 1.46357C239.62 2.39931 240.147 3.66803 240.148 4.99134V30.631C240.147 31.9544 239.62 33.2231 238.683 34.159C237.746 35.0948 236.476 35.6212 235.151 35.6228ZM5.07696 1.42489C4.1303 1.42582 3.2227 1.80188 2.55332 2.47052C1.88395 3.13916 1.50747 4.04576 1.50653 4.99134V30.631C1.50736 31.5767 1.88378 32.4834 2.55317 33.1521C3.22256 33.8209 4.13023 34.197 5.07696 34.1979H235.151C236.098 34.1969 237.006 33.8208 237.675 33.1521C238.345 32.4834 238.721 31.5767 238.722 30.631V4.99134C238.721 4.04579 238.344 3.13921 237.675 2.47057C237.006 1.80193 236.098 1.42586 235.151 1.42489H5.07696Z" fill="#A0AEC0"/>
</svg>
