<svg width="26" height="26" viewBox="0 0 26 26" fill="none" xmlns="http://www.w3.org/2000/svg">
<path d="M14.5527 12.98C17.1304 12.98 19.4077 10.5527 19.6309 7.56885C19.7417 6.06982 19.2715 4.67188 18.3066 3.6333C17.3521 2.60742 16.0176 2.04248 14.5527 2.04248C13.0762 2.04248 11.7407 2.604 10.793 3.62353C9.83447 4.6543 9.36719 6.05518 9.47461 7.56787C9.69385 10.5522 11.9707 12.98 14.5527 12.98ZM24.6787 21.9526C24.2666 19.6665 22.98 17.7461 20.9585 16.3984C19.1631 15.2017 16.8882 14.5425 14.5527 14.5425C12.2173 14.5425 9.94238 15.2017 8.14697 16.3979C6.12549 17.7456 4.83887 19.666 4.42676 21.9521C4.33252 22.4761 4.46045 22.9941 4.77783 23.3735C4.92179 23.5464 5.10254 23.685 5.30689 23.7791C5.51124 23.8732 5.73403 23.9205 5.95898 23.9175H23.1465C23.3716 23.9207 23.5945 23.8736 23.799 23.7795C24.0036 23.6855 24.1845 23.547 24.3286 23.374C24.645 22.9946 24.7729 22.4766 24.6787 21.9526ZM5.56836 14.5425V12.5894H7.52148C7.72868 12.5894 7.9274 12.507 8.07391 12.3605C8.22042 12.214 8.30273 12.0153 8.30273 11.8081C8.30273 11.6009 8.22042 11.4022 8.07391 11.2557C7.9274 11.1092 7.72868 11.0269 7.52148 11.0269H5.56836V9.07373C5.56836 8.86653 5.48605 8.66782 5.33954 8.5213C5.19302 8.37479 4.99431 8.29248 4.78711 8.29248C4.57991 8.29248 4.3812 8.37479 4.23468 8.5213C4.08817 8.66782 4.00586 8.86653 4.00586 9.07373V11.0269H2.05273C1.84553 11.0269 1.64682 11.1092 1.50031 11.2557C1.35379 11.4022 1.27148 11.6009 1.27148 11.8081C1.27148 12.0153 1.35379 12.214 1.50031 12.3605C1.64682 12.507 1.84553 12.5894 2.05273 12.5894H4.00586V14.5425C4.00586 14.7497 4.08817 14.9484 4.23468 15.0949C4.3812 15.2414 4.57991 15.3237 4.78711 15.3237C4.99431 15.3237 5.19302 15.2414 5.33954 15.0949C5.48605 14.9484 5.56836 14.7497 5.56836 14.5425Z" fill="white"/>
</svg>
