<svg width="53" height="54" viewBox="0 0 53 54" fill="none" xmlns="http://www.w3.org/2000/svg">
<path d="M26.5 53.5C41.1356 53.5 53 41.6356 53 27C53 12.3645 41.1356 0.5 26.5 0.5C11.8645 0.5 0 12.3645 0 27C0 41.6356 11.8645 53.5 26.5 53.5Z" fill="#4353FF"/>
<path d="M34.2841 23.8536L31.8826 31.4227C31.8826 30.843 30.2263 18.2886 30.2263 18.2886C26.4169 18.2886 24.3963 20.9883 23.3363 23.8536L20.4048 31.4393C20.4048 30.8927 19.9907 23.9198 19.9907 23.9198C19.8493 22.4104 19.1592 21.0052 18.0512 19.9704C16.9432 18.9356 15.4941 18.3431 13.9785 18.3051L17.0923 37.319C21.0673 37.319 23.2204 34.6193 24.3301 31.754L26.8144 25.2946C26.8144 25.5596 28.4707 37.319 28.4707 37.319C30.0962 37.3169 31.6786 36.7973 32.9889 35.8352C34.2993 34.8734 35.2691 33.5193 35.7582 31.9693L41.3894 18.2886C37.4144 18.2886 35.3276 20.9883 34.2676 23.8536H34.2841Z" fill="white"/>
</svg>
