<svg width="241" height="36" viewBox="0 0 241 36" fill="none" xmlns="http://www.w3.org/2000/svg">
<path d="M31.9448 6.83871C33.2011 5.57974 33.2011 3.5386 31.9448 2.27966C30.6885 1.02071 28.6516 1.02071 27.3953 2.27966C26.1391 3.5386 26.1391 5.57974 27.3953 6.83871C28.6516 8.09764 30.6885 8.09764 31.9448 6.83871Z" fill="#A0AEC0"/>
<path d="M42.0959 7.78345C43.8725 7.78345 45.3128 6.34011 45.3128 4.55969C45.3128 2.77926 43.8725 1.33594 42.0959 1.33594C40.3192 1.33594 38.8789 2.77926 38.8789 4.55969C38.8789 6.34011 40.3192 7.78345 42.0959 7.78345Z" fill="#A0AEC0"/>
<path d="M54.2189 7.78345C55.9956 7.78345 57.4359 6.34011 57.4359 4.55969C57.4359 2.77926 55.9956 1.33594 54.2189 1.33594C52.4423 1.33594 51.002 2.77926 51.002 4.55969C51.002 6.34011 52.4423 7.78345 54.2189 7.78345Z" fill="#A0AEC0"/>
<path d="M42.0959 26.4757C43.8722 26.4757 45.3128 25.0328 45.3128 23.252V14.6954C45.3128 12.9154 43.873 11.4717 42.0959 11.4717C40.3196 11.4717 38.8789 12.9146 38.8789 14.6954V23.252C38.8789 25.032 40.3196 26.4757 42.0959 26.4757Z" fill="#A0AEC0"/>
<path d="M57.5129 19.8526L57.5113 19.7223C57.5129 19.575 57.5129 19.4268 57.5105 19.2786C57.5097 19.2281 57.5072 19.1784 57.5048 19.1279L57.4447 13.638C57.443 11.8344 55.982 10.3743 54.183 10.376C52.3832 10.3776 50.9262 11.8417 50.9279 13.6445L50.9498 19.8469C50.7897 24.9216 46.8861 29.0272 42.0473 29.0964C37.0581 29.1681 32.9351 24.9216 32.8563 19.6303C32.8555 19.5684 32.8522 19.5074 32.8481 19.4471V19.4447L32.7084 13.5997C32.7059 11.8376 31.2799 10.411 29.5215 10.4126C27.7623 10.4142 26.337 11.8449 26.3395 13.6079L26.3029 19.531C26.3005 19.5953 26.2988 19.6597 26.2996 19.724C26.2996 19.746 26.3013 19.768 26.3013 19.7899L26.2988 20.114C26.2988 20.206 26.3086 20.2956 26.3224 20.3835C26.5085 23.8288 27.7379 26.9833 29.6864 29.5207C32.5987 33.3128 37.1166 35.7222 42.144 35.6506C50.563 35.5301 57.3423 28.4963 57.5081 19.8518H57.5129V19.8526Z" fill="#A0AEC0"/>
<path d="M96.9708 9.37777L89.9337 28.967H86.8064L84.3764 22.8102L82.3103 16.6257L80.2715 22.8656L77.8981 28.9662H74.7704L67.5938 9.37695H71.7267L76.3347 23.5089L81.0815 9.37695H83.4837L88.3703 23.5089L92.8381 9.37695H96.9708V9.37777Z" fill="#A0AEC0"/>
<path d="M110.319 23.287H99.5674C99.6797 24.164 100.098 24.8732 100.824 25.4139C101.55 25.9554 102.499 26.2257 103.673 26.2257C104.342 26.2257 105.031 26.1093 105.739 25.8756C106.447 25.6419 106.986 25.33 107.358 24.9383L109.537 27.0929C108.848 27.8201 107.964 28.3754 106.884 28.7582C105.804 29.1401 104.715 29.3322 103.617 29.3322C101.271 29.3322 99.423 28.6653 98.073 27.3315C96.7234 25.9977 96.0488 24.2112 96.0488 21.9727C96.0488 19.8458 96.7144 18.1114 98.0455 16.7678C99.3767 15.4242 101.15 14.7524 103.365 14.7524C105.729 14.7524 107.544 15.4845 108.81 16.9494C110.076 18.4127 110.58 20.5257 110.319 23.287ZM99.6235 20.4606H107.051C106.94 19.5836 106.567 18.9167 105.934 18.4599C105.301 18.0031 104.482 17.7743 103.477 17.7743C102.528 17.7743 101.708 18.0031 101.019 18.4599C100.331 18.9167 99.8648 19.5836 99.6235 20.4606Z" fill="#A0AEC0"/>
<path d="M112.943 9.40625H116.351V17.0459C116.723 16.3741 117.37 15.8383 118.292 15.4369C119.213 15.0354 120.074 14.8351 120.875 14.8351C122.96 14.8351 124.649 15.4605 125.943 16.7096C127.237 17.9595 127.884 19.7412 127.884 22.0546C127.884 24.2751 127.218 26.0331 125.887 27.3295C124.557 28.6258 122.858 29.2748 120.791 29.2748C118.781 29.2748 117.301 28.5379 116.351 27.064L116.128 28.967H112.944V9.40625H112.943ZM120.568 18.0255C119.469 18.0255 118.529 18.4033 117.747 19.1589C116.966 19.9146 116.575 20.8795 116.575 22.0554C116.575 23.2687 116.961 24.2474 117.734 24.9941C118.505 25.7408 119.45 26.1138 120.568 26.1138C121.666 26.1138 122.592 25.7359 123.346 24.9803C124.1 24.2246 124.477 23.2499 124.477 22.0562C124.477 20.8437 124.104 19.869 123.36 19.1321C122.614 18.3935 121.684 18.0255 120.568 18.0255Z" fill="#A0AEC0"/>
<path d="M130.718 12.7644C130.299 12.4102 130.09 11.916 130.09 11.2816C130.09 10.6473 130.3 10.153 130.718 9.79882C131.137 9.4446 131.598 9.26709 132.1 9.26709C132.603 9.26709 133.064 9.4446 133.482 9.79882C133.901 10.1538 134.111 10.6481 134.111 11.2816C134.111 11.916 133.901 12.411 133.482 12.7644C133.063 13.1195 132.603 13.2962 132.1 13.2962C131.598 13.2962 131.136 13.1187 130.718 12.7644ZM133.803 15.1153H130.396V28.9679H133.803V15.1153Z" fill="#A0AEC0"/>
<path d="M152.121 12.5961L149.19 14.1074C148.835 13.5105 148.231 12.9975 147.374 12.5684C146.518 12.1392 145.578 11.9251 144.554 11.9251C143.232 11.9251 142.227 12.1677 141.538 12.6522C140.849 13.1376 140.505 13.7629 140.505 14.5275C140.505 15.069 140.718 15.512 141.147 15.8565C141.575 16.2017 142.078 16.4484 142.655 16.5975C143.232 16.7473 143.967 16.8776 144.861 16.9891C145.773 17.1015 146.574 17.2318 147.263 17.3808C147.951 17.5306 148.66 17.7586 149.385 18.0664C150.111 18.3742 150.702 18.7382 151.158 19.1576C151.614 19.5777 151.992 20.1372 152.289 20.8366C152.587 21.5361 152.736 22.3341 152.736 23.229C152.736 24.6288 152.346 25.8087 151.564 26.7695C150.782 27.7304 149.791 28.4209 148.59 28.8402C147.389 29.2604 146.034 29.4697 144.527 29.4697C140.152 29.4697 137.313 27.8655 136.01 24.6564L139.081 23.0613C139.491 24.0873 140.193 24.8616 141.189 25.3836C142.185 25.9064 143.316 26.1669 144.582 26.1669C145.867 26.1669 146.937 25.9243 147.794 25.439C148.649 24.9545 149.078 24.2175 149.078 23.2282C149.078 21.624 147.57 20.6632 144.554 20.3464C143.418 20.2161 142.446 20.0435 141.636 19.8285C140.826 19.6144 140.03 19.2927 139.248 18.8628C138.467 18.4337 137.875 17.8458 137.475 17.0999C137.074 16.354 136.874 15.4583 136.874 14.4135C136.874 13.1449 137.265 12.0627 138.047 11.167C138.828 10.2713 139.769 9.64183 140.867 9.27785C141.966 8.91386 143.157 8.72332 144.442 8.70459C148.296 8.70703 150.855 10.0034 152.121 12.5961Z" fill="#A0AEC0"/>
<path d="M155.613 9.37793H159.02V17.0452C160.082 15.665 161.515 14.9745 163.322 14.9745C165.22 14.9745 166.635 15.5673 167.566 16.7513C168.497 17.9361 168.962 19.5826 168.962 21.6907V28.9664H165.555V21.7184C165.555 20.506 165.271 19.6054 164.704 19.0183C164.135 18.4303 163.377 18.1364 162.428 18.1364C161.441 18.1364 160.627 18.5004 159.984 19.2275C159.342 19.9547 159.02 20.8504 159.02 21.9139V28.9656H155.613V9.37793Z" fill="#A0AEC0"/>
<path d="M182.643 17.0737L182.756 15.1707H186.023V28.9671H182.812L182.644 26.9518C182.272 27.6985 181.648 28.2864 180.774 28.7147C179.899 29.1438 179.032 29.3678 178.177 29.3865C176.072 29.4052 174.365 28.7758 173.053 27.4974C171.741 26.2197 171.084 24.4047 171.084 22.0539C171.084 19.7592 171.758 17.9775 173.108 16.7089C174.458 15.4402 176.175 14.8157 178.26 14.8344C179.191 14.8344 180.057 15.0396 180.858 15.45C181.657 15.8612 182.253 16.4019 182.643 17.0737ZM178.567 17.8855C177.394 17.8855 176.421 18.2585 175.649 19.0052C174.876 19.7519 174.49 20.7681 174.49 22.0555C174.49 23.3429 174.876 24.364 175.649 25.1196C176.421 25.8753 177.394 26.2531 178.567 26.2531C179.591 26.2531 180.452 25.9641 181.15 25.3859C181.848 24.8078 182.276 24.1124 182.435 23.3013C182.592 22.4895 182.592 21.6744 182.435 20.8528C182.276 20.032 181.849 19.3325 181.15 18.7536C180.452 18.1746 179.591 17.8855 178.567 17.8855Z" fill="#A0AEC0"/>
<path d="M188.9 15.1706H192.056L192.307 16.7658C192.79 15.9825 193.349 15.4597 193.982 15.1983C194.615 14.9377 195.35 14.8066 196.188 14.8066C197.678 14.8066 198.859 15.2455 199.735 16.1217L198.2 19.0882C197.492 18.4913 196.673 18.1924 195.742 18.1924C194.755 18.1924 193.936 18.4774 193.285 19.0458C192.633 19.615 192.308 20.4969 192.308 21.6906V28.9663H188.9V15.1706Z" fill="#A0AEC0"/>
<path d="M204.426 34.7314H201.02V15.1706H204.203L204.426 17.0736C204.929 16.3456 205.59 15.796 206.409 15.4222C207.228 15.0493 208.057 14.8628 208.895 14.8628C210.98 14.8628 212.678 15.5484 213.991 16.9197C215.303 18.2909 215.96 20.0115 215.96 22.0831C215.96 24.1725 215.336 25.8988 214.09 27.2603C212.842 28.6226 211.148 29.3033 209.007 29.3033C208.132 29.3033 207.262 29.1494 206.396 28.8416C205.531 28.5338 204.874 28.0355 204.427 27.345V34.7314H204.426ZM205.836 24.8671C206.572 25.6228 207.507 26.0006 208.643 26.0006C209.778 26.0006 210.713 25.6228 211.45 24.8671C212.185 24.1115 212.552 23.184 212.552 22.0831C212.552 20.9634 212.198 20.0311 211.491 19.2844C210.783 18.5385 209.833 18.1647 208.643 18.1647C207.452 18.1647 206.502 18.5385 205.794 19.2844C205.086 20.0302 204.733 20.9634 204.733 22.0831C204.734 23.184 205.101 24.1115 205.836 24.8671Z" fill="#A0AEC0"/>
</svg>
