<svg width="53" height="54" viewBox="0 0 53 54" fill="none" xmlns="http://www.w3.org/2000/svg">
<path d="M3.75195 26.8966C3.75195 35.8601 8.96103 43.6062 16.5146 47.277L5.71252 17.6807C4.45603 20.497 3.75195 23.6136 3.75195 26.8966Z" fill="#A0AEC0"/>
<path d="M41.6844 25.7538C41.6844 22.9552 40.6791 21.017 39.8169 19.5084C38.669 17.6431 37.5931 16.0634 37.5931 14.1981C37.5931 12.1164 39.1719 10.1787 41.3957 10.1787C41.4961 10.1787 41.5913 10.1912 41.6891 10.1968C37.6603 6.50577 32.2926 4.2522 26.3971 4.2522C18.4859 4.2522 11.5257 8.31122 7.47656 14.4592C8.00786 14.4752 8.50855 14.4864 8.93385 14.4864C11.3025 14.4864 14.969 14.199 14.969 14.199C16.1897 14.127 16.3336 15.9199 15.1142 16.0643C15.1142 16.0643 13.8874 16.2086 12.5223 16.2802L20.7688 40.8088L25.7245 25.946L22.1963 16.2793C20.9769 16.2078 19.8217 16.0634 19.8217 16.0634C18.6014 15.9919 18.7444 14.1261 19.9647 14.1981C19.9647 14.1981 23.7045 14.4855 25.9296 14.4855C28.2978 14.4855 31.9647 14.1981 31.9647 14.1981C33.1863 14.1261 33.3298 15.9191 32.1099 16.0634C32.1099 16.0634 30.8806 16.2078 29.5181 16.2793L37.7016 40.6223L39.9604 33.0743C40.9394 29.9421 41.6844 27.6924 41.6844 25.7538Z" fill="#A0AEC0"/>
<path d="M26.7943 28.8777L20 48.6207C22.0287 49.217 24.1741 49.5432 26.3971 49.5432C29.0341 49.5432 31.563 49.0873 33.917 48.2596C33.8563 48.1626 33.8011 48.0596 33.7559 47.9476L26.7943 28.8777Z" fill="#A0AEC0"/>
<path d="M46.2678 16.032C46.3652 16.7533 46.4204 17.5276 46.4204 18.3605C46.4204 20.6585 45.9912 23.2417 44.6985 26.4717L37.7812 46.4708C44.5137 42.5449 49.0419 35.2512 49.0419 26.897C49.0424 22.9599 48.0367 19.2577 46.2678 16.032Z" fill="#A0AEC0"/>
<path d="M26.3974 0.5C11.8423 0.5 0 12.3414 0 26.8966C0 41.4535 11.8423 53.2945 26.3974 53.2945C40.9522 53.2945 52.7962 41.4535 52.7962 26.8966C52.7958 12.3414 40.9522 0.5 26.3974 0.5ZM26.3974 52.0845C12.5097 52.0845 1.21038 40.7852 1.21038 26.8966C1.21038 13.0089 12.5093 1.71038 26.3974 1.71038C40.2847 1.71038 51.5832 13.0089 51.5832 26.8966C51.5832 40.7852 40.2847 52.0845 26.3974 52.0845Z" fill="#A0AEC0"/>
</svg>
