<svg width="54" height="54" viewBox="0 0 54 54" fill="none" xmlns="http://www.w3.org/2000/svg">
<path d="M0.0488281 34.082L5.64663 25.4093H0.708474C0.662697 25.1375 0.644384 24.8617 0.65381 24.5862C0.644875 24.3108 0.663271 24.0343 0.708474 23.7631H8.66628L8.7714 24.0375L3.11789 32.7101H8.39296C8.43874 32.9819 8.45705 33.2577 8.44762 33.5332C8.4588 33.7906 8.44046 34.0484 8.39296 34.3016H0.104017L0.0488281 34.082ZM16.131 27.3856C16.1616 27.075 16.1233 26.7617 16.019 26.4675C15.9145 26.1735 15.7466 25.9061 15.5271 25.6842C14.9965 25.3196 14.3581 25.1455 13.7159 25.1901C13.2565 25.1972 12.7981 25.2339 12.3435 25.3C11.9344 25.3593 11.5306 25.451 11.1362 25.5744C10.8555 25.0726 10.7225 24.5017 10.7524 23.9276C11.2507 23.76 11.7662 23.6494 12.2893 23.5981C12.8333 23.5069 13.3849 23.4701 13.9361 23.4882C15.0566 23.4181 16.1655 23.7488 17.0645 24.4212C17.7784 25.0256 18.162 26.068 18.162 27.4398V34.0809L16.4055 34.4105C15.7159 34.5198 15.0179 34.5749 14.3198 34.5749C13.7122 34.5803 13.1109 34.5245 12.5085 34.4105C12.0127 34.3111 11.5444 34.1051 11.1362 33.8066C10.7594 33.5394 10.457 33.1805 10.2578 32.7637C10.0274 32.2849 9.91442 31.7581 9.92828 31.2268C9.90507 30.6883 10.0383 30.1545 10.312 29.6899C10.5335 29.2398 10.8756 28.8598 11.3002 28.5925C11.743 28.3079 12.2232 28.0862 12.7272 27.9338C13.2801 27.7762 13.8535 27.7026 14.4286 27.7142C14.7953 27.7005 15.1625 27.7188 15.5261 27.7688C15.8004 27.7688 16.0202 27.8235 16.2398 27.8235V27.3845L16.131 27.3856ZM16.131 29.362C15.8719 29.3488 15.615 29.3121 15.3627 29.2568C15.033 29.2568 14.7581 29.2022 14.5395 29.2022C13.8457 29.1607 13.1558 29.3332 12.5632 29.6962C12.3465 29.8635 12.1734 30.0804 12.0588 30.329C11.9442 30.5774 11.8913 30.8499 11.9046 31.1233C11.8737 31.426 11.9295 31.7312 12.0656 32.0034C12.2016 32.2755 12.4124 32.5034 12.6731 32.6602C12.9084 32.7926 13.1717 32.8679 13.4415 32.8799C13.6952 32.9235 13.9526 32.9419 14.21 32.9346C14.5403 32.9438 14.8708 32.9254 15.1981 32.8799L16.0758 32.7154V29.3672L16.131 29.362ZM20.4122 23.7631C20.5768 23.7631 20.6865 23.7084 20.8511 23.7084H21.7289C21.8933 23.7084 22.0032 23.7631 22.1678 23.7631C22.1976 23.8519 22.216 23.9441 22.2224 24.0375C22.2224 24.202 22.2771 24.3119 22.2771 24.4764C22.2771 24.6409 22.3318 24.8059 22.3318 24.9704C22.3302 25.0651 22.3491 25.1581 22.3864 25.2448L22.8805 24.5862C23.0938 24.3733 23.3335 24.1889 23.5942 24.0375C24.2329 23.6837 24.9503 23.4961 25.6799 23.4887C26.258 23.4814 26.8425 23.5939 27.3813 23.8183C27.9107 24.0312 28.3799 24.3705 28.7479 24.8064C29.1477 25.2912 29.4464 25.8512 29.6262 26.4531C29.8581 27.218 29.9693 28.0142 29.9558 28.8132C30.0435 30.3794 29.5112 31.9173 28.474 33.0944C27.4859 34.1372 26.1088 34.6313 24.3028 34.6313C23.9908 34.6403 23.6787 34.6221 23.3698 34.5766C23.0404 34.5216 22.7661 34.4667 22.5468 34.4121V39.2971C22.3822 39.2971 22.2171 39.3517 21.998 39.3517H21.0099C20.8453 39.3517 20.6802 39.2971 20.5158 39.2971V23.7631H20.4122ZM22.4426 32.6554C22.7095 32.7541 22.9852 32.8277 23.2658 32.8752C23.6293 32.9252 23.9966 32.9434 24.3633 32.9298C24.8363 32.9419 25.2957 32.8668 25.7299 32.7101C26.1358 32.5712 26.4962 32.3244 26.7727 31.9963C27.0856 31.6225 27.3275 31.1946 27.4864 30.7338C27.6747 30.1487 27.7673 29.5371 27.7609 28.9225C27.7953 28.0065 27.5869 27.0977 27.1569 26.2882C26.7295 25.6206 25.9711 25.2369 25.1806 25.3C24.8444 25.301 24.5108 25.3566 24.1924 25.4645C23.8799 25.5825 23.5984 25.7702 23.3693 26.0133C23.1065 26.2798 22.901 26.5973 22.7654 26.9462C22.5993 27.3841 22.5246 27.8503 22.5457 28.3128V32.6491L22.4426 32.6554ZM32.4325 25.3494H31.0659C31.0167 25.2279 30.9979 25.0962 31.0113 24.9657V24.0879C31.0113 23.9234 31.0659 23.8136 31.0659 23.7042H34.414V34.3521C34.2495 34.3521 34.0845 34.4068 33.92 34.4068H32.9318C32.7673 34.4068 32.6023 34.3521 32.4377 34.3521L32.4325 25.3494ZM38.8544 29.5753C38.9091 30.728 39.184 31.6063 39.7323 32.1004C40.4328 32.6963 41.3401 32.992 42.2573 32.9235C43.2123 32.9287 44.161 32.7622 45.0567 32.4294C45.1895 32.6689 45.2822 32.9285 45.3311 33.1978C45.394 33.4867 45.4309 33.7803 45.4414 34.0757C44.9692 34.2868 44.4709 34.4344 43.9598 34.5145C43.3627 34.6286 42.7508 34.6838 42.1484 34.6791C41.3079 34.7122 40.469 34.5819 39.678 34.2953C39.0433 33.9979 38.467 33.589 37.9767 33.0881C37.5209 32.5831 37.1833 31.9831 36.9885 31.3314C36.7639 30.6214 36.6527 29.8806 36.6589 29.1359C36.6621 28.3958 36.7535 27.6642 36.9333 26.9405C37.122 26.2977 37.4395 25.7 37.8663 25.1838C38.3026 24.6934 38.8229 24.2903 39.4032 23.9765C40.1224 23.6338 40.9121 23.4645 41.7086 23.4824C42.3297 23.4554 42.9488 23.5698 43.5192 23.817C44.0897 24.0642 44.5965 24.4378 45.0015 24.9095C45.3919 25.3506 45.6738 25.877 45.8246 26.4464C46.0307 27.0839 46.1242 27.7525 46.0989 28.4227V29.0271C46.0989 29.2469 46.0443 29.4109 46.0443 29.5759L38.8544 29.5753ZM44.1237 28.0384C44.1268 27.6663 44.0713 27.2959 43.9592 26.9409C43.8464 26.6153 43.6993 26.3025 43.5203 26.008C43.3179 25.7326 43.055 25.5073 42.7518 25.3494C42.4096 25.1874 42.0327 25.112 41.6544 25.1297C41.2977 25.1116 40.9413 25.171 40.6096 25.3036C40.2781 25.4362 39.9791 25.6391 39.7333 25.8981C39.2474 26.5114 38.9602 27.2582 38.9102 28.039L44.1237 28.0384ZM48.4049 23.7579C48.5693 23.7579 48.6792 23.7032 48.8438 23.7032H49.7215C49.886 23.7032 49.9959 23.7579 50.1605 23.7579C50.2313 24.0265 50.2682 24.3031 50.2702 24.581C50.3147 24.8713 50.333 25.1651 50.3249 25.4587C50.6048 24.9682 51.0006 24.5537 51.4776 24.2514C52.0183 23.9091 52.6492 23.7369 53.2889 23.7573H53.6184C53.7135 23.7433 53.8104 23.7626 53.8928 23.812C53.8928 23.9171 53.9474 24.0864 53.9474 24.1957V24.6346C53.9564 24.8011 53.9379 24.9681 53.8928 25.1287C53.8928 25.2932 53.8381 25.4582 53.8381 25.6227C53.733 25.6227 53.6184 25.5681 53.5086 25.5681H53.2342C52.8799 25.5647 52.5275 25.6204 52.1914 25.7326C51.8416 25.8399 51.5221 26.0278 51.2584 26.2813C50.953 26.5883 50.7269 26.9649 50.5999 27.3788C50.428 27.9478 50.3538 28.5417 50.3801 29.1354V34.411C50.2156 34.411 50.0506 34.4656 49.886 34.4656H48.8979C48.7333 34.4656 48.5142 34.411 48.3491 34.411V23.7631L48.4049 23.7579ZM36.384 17.5062H34.3584L35.7854 16.0791C35.6803 15.9146 35.5656 15.8048 35.4559 15.6403C35.2981 15.5261 35.1511 15.3976 35.0169 15.2566L33.5857 16.682V14.7005C33.4065 14.6552 33.2215 14.6367 33.0369 14.6458C32.8522 14.634 32.6669 14.6525 32.4882 14.7005V16.7314L31.0059 15.2492C30.8356 15.3469 30.6865 15.4775 30.5671 15.6334C30.462 15.7979 30.2927 15.9078 30.1833 16.0723L31.6105 17.4994H29.6278L29.5732 18.0481C29.5608 18.2345 29.5793 18.4217 29.6278 18.6021H31.6588L30.1766 20.0843C30.3936 20.4102 30.6732 20.6909 30.9996 20.9074L32.4267 19.4804V21.5114C32.6059 21.5567 32.7908 21.5751 32.9754 21.566C33.1601 21.5778 33.3454 21.5594 33.5241 21.5114V19.4804L34.9513 20.9074C35.1216 20.8097 35.2707 20.6791 35.3901 20.5232C35.5317 20.3894 35.6601 20.2424 35.7738 20.0843L34.3584 18.6583H36.3893C36.4346 18.4791 36.4531 18.2942 36.444 18.1096C36.4555 17.9065 36.4371 17.7028 36.3893 17.5051L36.384 17.5062ZM33.859 18.0549C33.8539 18.2967 33.8167 18.5367 33.7487 18.7687C33.5226 18.8581 33.2781 18.8949 33.0348 18.8738C32.793 18.8687 32.553 18.8316 32.3211 18.7635C32.2317 18.5374 32.1949 18.293 32.216 18.0497C32.2211 17.8079 32.2581 17.5679 32.3263 17.3359C32.5524 17.2465 32.7967 17.2097 33.0401 17.2308C33.2818 17.2359 33.5218 17.273 33.7539 17.3411C33.8173 17.5742 33.8541 17.8136 33.8637 18.0549H33.859Z" fill="#FF4A00"/>
</svg>
